<svg width="24" height="24" viewBox="0 0 24 24" fill="none" xmlns="http://www.w3.org/2000/svg">
<path d="M21.68 18.9655C22.4061 18.5551 23 17.5476 23 16.7266V7.27339C23 6.45245 22.4061 5.44493 21.68 5.03446L13.32 0.307852C12.5939 -0.102617 11.4061 -0.102617 10.68 0.307852L2.31997 5.03446C1.59394 5.44493 1 6.45245 1 7.27339V16.7266C1 17.5476 1.59394 18.5551 2.31997 18.9655L10.68 23.6921C11.4061 24.1026 12.5939 24.1026 13.32 23.6921L21.68 18.9655Z" fill="url(#paint0_linear_2_7967)"/>
<path d="M9.48897 6.63899C9.31433 6.61423 9.30602 6.60598 9.38918 6.59773C9.54718 6.57298 9.91309 6.60598 10.1709 6.66374C10.7696 6.80402 11.3102 7.1671 11.884 7.80248L12.0337 7.97576L12.2499 7.94275C13.173 7.79422 14.121 7.90975 14.911 8.27282C15.1273 8.37184 15.4682 8.56988 15.5098 8.61939C15.5264 8.6359 15.5514 8.74317 15.568 8.85044C15.6262 9.23827 15.6013 9.52708 15.4765 9.74987C15.41 9.87365 15.41 9.90665 15.4516 10.0139C15.4849 10.0964 15.5846 10.1542 15.6761 10.1542C15.8757 10.1542 16.0836 9.84064 16.1834 9.4033L16.225 9.23002L16.2998 9.31253C16.7239 9.78288 17.0566 10.4348 17.1065 10.8969L17.1231 11.0206L17.0483 10.9134C16.9235 10.7236 16.8071 10.5998 16.6491 10.4925C16.3664 10.3027 16.067 10.245 15.277 10.2037C14.5618 10.1625 14.1543 10.1047 13.7551 9.97267C13.0732 9.74987 12.7239 9.46106 11.9173 8.3966C11.5597 7.92625 11.3351 7.67045 11.1106 7.45591C10.62 6.98556 10.1293 6.73801 9.48897 6.63899Z" fill="white"/>
<path d="M15.6844 7.68695C15.7011 7.37339 15.7427 7.1671 15.8341 6.97731C15.8674 6.90304 15.9007 6.83703 15.909 6.83703C15.9173 6.83703 15.9007 6.89479 15.8757 6.9608C15.8092 7.14234 15.8009 7.39814 15.8424 7.68695C15.9007 8.05828 15.9256 8.10779 16.3248 8.51212C16.5077 8.70191 16.7239 8.94121 16.8071 9.04023L16.9485 9.22176L16.8071 9.08974C16.6325 8.9247 16.2333 8.61114 16.1418 8.56988C16.0836 8.53688 16.0753 8.53687 16.0337 8.57813C16.0004 8.61114 15.9921 8.66065 15.9921 8.89995C15.9838 9.27127 15.9339 9.50232 15.8092 9.74162C15.7427 9.86539 15.7343 9.84064 15.7925 9.70036C15.8341 9.59309 15.8424 9.54358 15.8424 9.18876C15.8424 8.47086 15.7593 8.29758 15.252 8.00877C15.1273 7.9345 14.911 7.82723 14.7863 7.76947C14.6532 7.71171 14.5535 7.6622 14.5618 7.6622C14.5784 7.64569 15.069 7.78597 15.2603 7.86849C15.5514 7.98401 15.6013 7.99226 15.6345 7.98401C15.6595 7.95926 15.6761 7.89324 15.6844 7.68695Z" fill="white"/>
<path d="M9.82993 8.91645C9.48066 8.43785 9.25612 7.6952 9.30602 7.14234L9.32265 6.96906L9.40581 6.98556C9.5555 7.01031 9.8133 7.10933 9.93804 7.1836C10.2707 7.38164 10.4204 7.65395 10.5617 8.33058C10.6033 8.52862 10.6615 8.75967 10.6865 8.83394C10.7281 8.95771 10.8861 9.24652 11.0191 9.42806C11.1106 9.56008 11.0524 9.6261 10.8445 9.60959C10.5285 9.57659 10.1044 9.28778 9.82993 8.91645Z" fill="white"/>
<path d="M15.2603 12.5059C13.6137 11.8458 13.0316 11.2764 13.0316 10.311C13.0316 10.1707 13.0399 10.0552 13.0399 10.0552C13.0482 10.0552 13.1065 10.1047 13.1813 10.1625C13.5139 10.4265 13.8882 10.542 14.9277 10.6906C15.5347 10.7813 15.884 10.8473 16.2 10.9546C17.2063 11.2847 17.83 11.9613 17.9797 12.8773C18.0213 13.1413 17.9963 13.6447 17.9298 13.9087C17.8716 14.115 17.7052 14.4946 17.6637 14.5028C17.6553 14.5028 17.6387 14.4616 17.6387 14.3956C17.6221 14.049 17.4474 13.7189 17.1564 13.4631C16.8071 13.1661 16.358 12.9433 15.2603 12.5059Z" fill="white"/>
<path d="M14.0961 12.7782C14.0794 12.6545 14.0379 12.4977 14.0129 12.4317L13.9713 12.3079L14.0462 12.3987C14.1543 12.5224 14.2374 12.671 14.3123 12.8773C14.3705 13.034 14.3705 13.0835 14.3705 13.3394C14.3705 13.5869 14.3622 13.6447 14.3123 13.7849C14.2291 14.0077 14.1293 14.1645 13.963 14.3378C13.6636 14.6431 13.2728 14.8081 12.7156 14.8824C12.6158 14.8907 12.3331 14.9154 12.0836 14.9319C11.4599 14.9649 11.0441 15.0309 10.6699 15.163C10.62 15.1795 10.5701 15.196 10.5617 15.1877C10.5451 15.1712 10.8029 15.0227 11.0108 14.9237C11.3019 14.7834 11.6013 14.7091 12.2582 14.5936C12.5825 14.5441 12.9152 14.4781 12.9984 14.4451C13.8216 14.1893 14.2291 13.5539 14.0961 12.7782Z" fill="white"/>
<path d="M14.8528 14.1068C14.6366 13.6364 14.5867 13.1908 14.7031 12.77C14.7198 12.7287 14.7364 12.6875 14.753 12.6875C14.7697 12.6875 14.8196 12.7122 14.8695 12.7452C14.9693 12.8112 15.1772 12.9268 15.7094 13.2156C16.383 13.5786 16.7655 13.8592 17.0316 14.181C17.2645 14.4616 17.4059 14.7834 17.4724 15.1795C17.514 15.4023 17.489 15.9386 17.4308 16.1614C17.2479 16.8628 16.8321 17.4239 16.225 17.7457C16.1335 17.7953 16.0587 17.8283 16.0503 17.8283C16.042 17.8283 16.0753 17.7457 16.1252 17.6467C16.3248 17.2259 16.3497 16.8216 16.2 16.3677C16.1086 16.0872 15.9173 15.7488 15.5347 15.1795C15.0774 14.5193 14.9693 14.3461 14.8528 14.1068Z" fill="white"/>
<path d="M8.65737 16.6318C9.27275 16.1202 10.0295 15.7571 10.7281 15.6416C11.0274 15.5921 11.5264 15.6086 11.8008 15.6828C12.2416 15.7984 12.6408 16.0459 12.8487 16.3512C13.0482 16.6483 13.1397 16.9041 13.2312 17.4734C13.2645 17.6962 13.306 17.9273 13.3144 17.9768C13.3809 18.2739 13.5139 18.5049 13.6803 18.6287C13.9381 18.8185 14.3871 18.8267 14.8279 18.6617C14.9027 18.6369 14.9693 18.6122 14.9693 18.6204C14.9859 18.6369 14.7614 18.7855 14.6117 18.8597C14.4038 18.967 14.2374 19 14.0129 19C13.6137 19 13.2728 18.7937 12.9984 18.3811C12.9401 18.2986 12.8237 18.0593 12.7239 17.8365C12.4329 17.1681 12.2832 16.9701 11.9422 16.7473C11.6428 16.5575 11.2603 16.5162 10.9692 16.6565C10.5867 16.8381 10.4869 17.3249 10.753 17.622C10.8611 17.7457 11.0607 17.8448 11.227 17.8695C11.5347 17.9108 11.8008 17.6715 11.8008 17.3662C11.8008 17.1681 11.726 17.0526 11.5264 16.9618C11.2603 16.8463 10.9692 16.9783 10.9775 17.2341C10.9775 17.3414 11.0274 17.4074 11.1356 17.4569C11.2021 17.4899 11.2021 17.4899 11.1522 17.4817C10.911 17.4322 10.8528 17.1351 11.0441 16.9453C11.2769 16.7143 11.7676 16.8133 11.9339 17.1351C12.0004 17.2671 12.0087 17.5312 11.9505 17.6962C11.8092 18.0593 11.41 18.2491 11.0025 18.1418C10.7281 18.0676 10.6116 17.9933 10.279 17.655C9.69687 17.0609 9.47234 16.9453 8.64073 16.8216L8.48273 16.7968L8.65737 16.6318Z" fill="white"/>
<path fill-rule="evenodd" clip-rule="evenodd" d="M4.28312 3.35482C6.22076 5.69005 9.20623 9.32078 9.35591 9.51882C9.48066 9.68386 9.43076 9.84064 9.22286 9.95616C9.10643 10.0222 8.86527 10.0882 8.74884 10.0882C8.61578 10.0882 8.45778 10.0222 8.34967 9.91491C8.27483 9.84064 7.9505 9.37029 7.21869 8.23981C6.66151 7.37339 6.18749 6.65549 6.17918 6.64724C6.14591 6.63074 6.14591 6.63074 7.16047 8.4296C7.80081 9.56008 8.00871 9.96442 8.00871 10.0139C8.00871 10.1212 7.97545 10.179 7.84239 10.3275C7.61786 10.575 7.51806 10.8556 7.44322 11.4415C7.36006 12.0933 7.13553 12.5554 6.49519 13.3394C6.12097 13.8014 6.06275 13.884 5.97128 14.0737C5.85485 14.3048 5.82159 14.4368 5.80496 14.7339C5.78832 15.0474 5.82159 15.2455 5.91306 15.5425C5.99622 15.8066 6.0877 15.9799 6.31224 16.3182C6.5035 16.6153 6.61993 16.8381 6.61993 16.9206C6.61993 16.9866 6.63656 16.9866 6.93594 16.9206C7.65112 16.7555 8.24156 16.475 8.56589 16.1284C8.76547 15.9139 8.81537 15.7984 8.81537 15.5013C8.81537 15.3115 8.80705 15.2702 8.75716 15.1547C8.674 14.9732 8.51599 14.8247 8.17503 14.5936C7.72597 14.2883 7.5347 14.0407 7.4848 13.7107C7.44322 13.4301 7.49312 13.2403 7.7426 12.7205C8.0004 12.1841 8.06693 11.9613 8.10851 11.4167C8.13345 11.0701 8.17503 10.9299 8.27483 10.8226C8.38294 10.7071 8.47441 10.6658 8.73221 10.6328C9.15633 10.575 9.43076 10.4678 9.64698 10.2615C9.83825 10.0882 9.92141 9.9149 9.92972 9.6591L9.93804 9.46931L9.82993 9.35379C9.43907 8.9082 4.02532 3 4.00037 3C3.99205 3 4.12511 3.15678 4.28312 3.35482ZM6.83615 15.0887C6.92762 14.9319 6.87773 14.7339 6.72804 14.6349C6.58667 14.5441 6.37045 14.5854 6.37045 14.7091C6.37045 14.7421 6.38708 14.7751 6.43698 14.7916C6.51182 14.8329 6.52014 14.8742 6.46192 14.9649C6.40371 15.0557 6.40371 15.1382 6.47856 15.196C6.59498 15.2867 6.75299 15.2372 6.83615 15.0887Z" fill="white"/>
<path fill-rule="evenodd" clip-rule="evenodd" d="M10.2042 10.7483C10.0046 10.8061 9.8133 11.0206 9.75509 11.2352C9.72182 11.3672 9.73845 11.6065 9.79667 11.6808C9.88814 11.7963 9.9713 11.8293 10.2042 11.8293C10.6615 11.8293 11.0524 11.6313 11.094 11.392C11.1356 11.1939 10.9609 10.9216 10.7197 10.7978C10.595 10.7318 10.3372 10.7071 10.2042 10.7483ZM10.7364 11.1609C10.8029 11.0619 10.778 10.9546 10.6532 10.8804C10.4287 10.7401 10.0877 10.8556 10.0877 11.0701C10.0877 11.1774 10.2624 11.2929 10.4287 11.2929C10.5368 11.2929 10.6865 11.2269 10.7364 11.1609Z" fill="white"/>
<defs>
<linearGradient id="paint0_linear_2_7967" x1="12" y1="0" x2="12" y2="24" gradientUnits="userSpaceOnUse">
<stop stop-color="#FE6AB1"/>
<stop offset="1" stop-color="#FF007A"/>
</linearGradient>
</defs>
</svg>
