<svg width="24" height="24" viewBox="0 0 24 24" fill="none" xmlns="http://www.w3.org/2000/svg">
<path d="M21.68 18.9655C22.4061 18.5551 23 17.5476 23 16.7266V7.27339C23 6.45245 22.4061 5.44493 21.68 5.03446L13.32 0.307852C12.5939 -0.102617 11.4061 -0.102617 10.68 0.307852L2.31997 5.03446C1.59394 5.44493 1 6.45245 1 7.27339V16.7266C1 17.5476 1.59394 18.5551 2.31997 18.9655L10.68 23.6921C11.4061 24.1026 12.5939 24.1026 13.32 23.6921L21.68 18.9655Z" fill="#0B88F0"/>
<path d="M7.40768 9.09536C9.94483 6.61128 14.0583 6.61128 16.5955 9.09536L16.9009 9.39432C17.0277 9.51854 17.0277 9.7199 16.9009 9.84412L15.8563 10.8668C15.7929 10.9289 15.6901 10.9289 15.6266 10.8668L15.2064 10.4554C13.4364 8.72244 10.5667 8.72244 8.79675 10.4554L8.34675 10.896C8.28334 10.9581 8.18051 10.9581 8.11707 10.896L7.07254 9.87329C6.94565 9.74907 6.94565 9.54771 7.07254 9.42349L7.40768 9.09536ZM18.7557 11.2104L19.6854 12.1206C19.8122 12.2448 19.8122 12.4462 19.6854 12.5704L15.4936 16.6746C15.3667 16.7988 15.161 16.7988 15.0342 16.6746L12.059 13.7617C12.0273 13.7307 11.9759 13.7307 11.9442 13.7617L8.96914 16.6746C8.84229 16.7988 8.63659 16.7988 8.50974 16.6746L4.3178 12.5703C4.19094 12.4461 4.19094 12.2448 4.3178 12.1205L5.24745 11.2103C5.3743 11.0862 5.57998 11.0862 5.70684 11.2103L8.68201 14.1233C8.71369 14.1543 8.76511 14.1543 8.79683 14.1233L11.7718 11.2103C11.8987 11.0862 12.1044 11.0862 12.2312 11.2103L15.2064 14.1233C15.2381 14.1543 15.2895 14.1543 15.3212 14.1233L18.2963 11.2104C18.4232 11.0862 18.6289 11.0862 18.7557 11.2104Z" fill="white"/>
<mask id="mask0_530_48675" style="mask-type:alpha" maskUnits="userSpaceOnUse" x="1" y="0" width="22" height="24">
<path d="M21.68 18.9655C22.4061 18.5551 23 17.5476 23 16.7266V7.27339C23 6.45245 22.4061 5.44493 21.68 5.03446L13.32 0.307852C12.5939 -0.102617 11.4061 -0.102617 10.68 0.307852L2.31997 5.03446C1.59394 5.44493 1 6.45245 1 7.27339V16.7266C1 17.5476 1.59394 18.5551 2.31997 18.9655L10.68 23.6921C11.4061 24.1026 12.5939 24.1026 13.32 23.6921L21.68 18.9655Z" fill="#B956A2"/>
</mask>
<g mask="url(#mask0_530_48675)">
</g>
</svg>
