<svg width="24" height="24" viewBox="0 0 24 24" fill="none" xmlns="http://www.w3.org/2000/svg">
<path d="M21.68 18.9655C22.4061 18.5551 23 17.5476 23 16.7266V7.27339C23 6.45245 22.4061 5.44493 21.68 5.03446L13.32 0.307852C12.5939 -0.102617 11.4061 -0.102617 10.68 0.307852L2.31997 5.03446C1.59394 5.44493 1 6.45245 1 7.27339V16.7266C1 17.5476 1.59394 18.5551 2.31997 18.9655L10.68 23.6921C11.4061 24.1026 12.5939 24.1026 13.32 23.6921L21.68 18.9655Z" fill="url(#paint0_linear_5_13316)"/>
<path fill-rule="evenodd" clip-rule="evenodd" d="M11.7781 4.16423C11.8391 4.05531 11.9196 4.00052 12 4.00049C12.0803 4.00049 12.1608 4.05461 12.2219 4.16374L19.4479 17.1026C19.5088 17.2118 19.5139 17.3106 19.474 17.3826C19.434 17.4549 19.3482 17.4998 19.2261 17.4998H4.77234C4.65023 17.4998 4.56473 17.4547 4.52488 17.3824C4.48554 17.3105 4.49155 17.2118 4.55224 17.1031L11.7781 4.16423ZM12.0001 9.26626L8.95014 14.7271H15.0495L12.0001 9.26626Z" fill="white"/>
<defs>
<linearGradient id="paint0_linear_5_13316" x1="12" y1="0" x2="12" y2="24" gradientUnits="userSpaceOnUse">
<stop stop-color="#FF8155"/>
<stop offset="1" stop-color="#EB5D2B"/>
</linearGradient>
</defs>
</svg>
