<svg width="24" height="24" viewBox="0 0 24 24" fill="none" xmlns="http://www.w3.org/2000/svg">
<path d="M21.68 18.9655C22.4061 18.5551 23 17.5476 23 16.7266V7.27339C23 6.45245 22.4061 5.44493 21.68 5.03446L13.32 0.307852C12.5939 -0.102617 11.4061 -0.102617 10.68 0.307852L2.31997 5.03446C1.59394 5.44493 1 6.45245 1 7.27339V16.7266C1 17.5476 1.59394 18.5551 2.31997 18.9655L10.68 23.6921C11.4061 24.1026 12.5939 24.1026 13.32 23.6921L21.68 18.9655Z" fill="url(#paint0_linear_5_13362)"/>
<path opacity="0.25" d="M18.5821 8.66686C18.0545 8.12833 17.362 7.79079 16.6201 7.71054C15.8782 7.63032 15.1318 7.81224 14.5054 8.22596C15.184 9.01239 15.5439 10.033 15.5121 11.0806C15.4803 12.1282 15.0592 13.1241 14.3343 13.8662L12.3594 15.8827L13.0221 16.5593L13.2933 16.2824L13.9714 16.9748L13.7002 17.2517L14.2427 17.8056L18.5822 13.3749C19.1936 12.7505 19.5371 11.9037 19.5371 11.0208C19.5371 10.1379 19.1936 9.2912 18.5821 8.66686Z" fill="black"/>
<path opacity="0.25" d="M13.7862 8.59854C13.4835 8.28943 13.1241 8.04422 12.7285 7.87693C12.333 7.70964 11.909 7.62354 11.4809 7.62354C11.0527 7.62354 10.6288 7.70964 10.2332 7.87693C9.83764 8.04422 9.47823 8.28943 9.17547 8.59854L4.83594 13.0293L5.37845 13.5831L5.64962 13.3062L6.32775 13.9986L6.05655 14.2754L6.73465 14.9678L7.00585 14.6909L7.81953 15.5217L7.54836 15.7986L8.22649 16.491L8.49769 16.2141L9.17578 16.9063L8.90458 17.1832L9.4471 17.7371L13.7866 13.3063C14.3979 12.6819 14.7413 11.8352 14.7412 10.9523C14.7411 10.0695 14.3976 9.22282 13.7862 8.59854Z" fill="black"/>
<path d="M18.2071 8.28418C17.6795 7.74563 16.987 7.40808 16.2451 7.32786C15.5033 7.24761 14.7568 7.42953 14.1305 7.84325C14.809 8.62968 15.1689 9.65037 15.1372 10.6979C15.1054 11.7455 14.6842 12.7415 13.9593 13.4835L11.9844 15.5L12.6471 16.1766L12.9183 15.8998L13.5964 16.5921L13.3252 16.869L13.8677 17.4229L18.2073 12.9921C18.8187 12.3678 19.1621 11.521 19.1621 10.6381C19.1621 9.75521 18.8186 8.90849 18.2071 8.28418Z" fill="#D7D7D7"/>
<path d="M18.2071 8.28418C17.6795 7.74563 16.987 7.40808 16.2451 7.32786C15.5033 7.24761 14.7568 7.42953 14.1305 7.84325C14.809 8.62968 15.1689 9.65037 15.1372 10.6979C15.1054 11.7455 14.6842 12.7415 13.9593 13.4835L11.9844 15.4999L12.2723 15.7939L12.5434 15.517L13.5964 16.5921L13.3252 16.869L13.4927 17.04L17.8323 12.6093C19.1056 11.3091 19.4804 9.58416 18.2071 8.28418Z" fill="white"/>
<path d="M13.4112 8.21572C13.1085 7.90659 12.7491 7.66141 12.3535 7.49412C11.958 7.32683 11.534 7.24072 11.1059 7.24072C10.6777 7.24072 10.2538 7.32683 9.85821 7.49412C9.46266 7.66141 9.10323 7.90659 8.8005 8.21572L4.46094 12.6465L5.00331 13.2004L5.27451 12.9235L5.95261 13.6159L5.68141 13.8928L6.35953 14.5851L6.63071 14.3083L7.44442 15.1391L7.17322 15.4159L7.85135 16.1083L8.12252 15.8314L8.80064 16.5238L8.52944 16.8007L9.07196 17.3546L13.4115 12.9238C14.0228 12.2994 14.3663 11.4526 14.3662 10.5697C14.3662 9.68681 14.0226 8.84007 13.4112 8.21572Z" fill="#D7D7D7"/>
<path d="M13.4112 8.21572C13.1085 7.90659 12.7491 7.66141 12.3535 7.49412C11.958 7.32683 11.534 7.24072 11.1059 7.24072C10.6777 7.24072 10.2538 7.32683 9.85821 7.49412C9.46266 7.66141 9.10326 7.90659 8.8005 8.21572L4.46094 12.6465L4.62848 12.8175L4.89968 12.5407L5.95261 13.6157L5.68141 13.8927L5.98454 14.2022L6.25574 13.9253L7.44428 15.1388L7.1731 15.4157L7.47623 15.7252L7.7474 15.4483L8.80036 16.5234L8.52916 16.8003L8.6967 16.9713L13.0363 12.5405C14.3096 11.2406 14.6845 9.5157 13.4112 8.21572Z" fill="white"/>
<defs>
<linearGradient id="paint0_linear_5_13362" x1="12" y1="24" x2="14.0478" y2="0.176012" gradientUnits="userSpaceOnUse">
<stop stop-color="#6E2EEC"/>
<stop offset="1" stop-color="#FF1EFF"/>
</linearGradient>
</defs>
</svg>
