<svg width="24" height="24" viewBox="0 0 24 24" fill="none" xmlns="http://www.w3.org/2000/svg">
<path d="M21.68 18.9655C22.4061 18.5551 23 17.5476 23 16.7266V7.27339C23 6.45245 22.4061 5.44493 21.68 5.03446L13.32 0.307852C12.5939 -0.102617 11.4061 -0.102617 10.68 0.307852L2.31997 5.03446C1.59394 5.44493 1 6.45245 1 7.27339V16.7266C1 17.5476 1.59394 18.5551 2.31997 18.9655L10.68 23.6921C11.4061 24.1026 12.5939 24.1026 13.32 23.6921L21.68 18.9655Z" fill="url(#paint0_linear_5_350265)"/>
<path fill-rule="evenodd" clip-rule="evenodd" d="M15.6016 10.256L15.6013 10.2566C16.227 11.0239 16.601 11.9958 16.601 13.0528C16.601 14.1256 16.2158 15.1106 15.5732 15.8832L15.5179 15.9497L15.5033 15.8651C15.4907 15.7932 15.4761 15.7207 15.4591 15.6475C15.1374 14.2656 14.0896 13.0806 12.3651 12.1211C11.2005 11.475 10.5339 10.6969 10.3589 9.81296C10.2458 9.24132 10.3299 8.66716 10.4923 8.17538C10.6546 7.68376 10.8961 7.27186 11.1013 7.02387L11.7723 6.22146C11.8899 6.08077 12.1101 6.08077 12.2278 6.22146L15.6016 10.256ZM16.6627 9.45439L12.1662 4.077C12.0804 3.97433 11.9196 3.97433 11.8338 4.077L7.33715 9.45415L7.32264 9.47221C6.49518 10.4764 6 11.7525 6 13.1417C6 16.3771 8.68624 19 12 19C15.3138 19 18 16.3771 18 13.1417C18 11.7525 17.5048 10.4764 16.6774 9.47221L16.6627 9.45439ZM8.41306 10.2386L8.81544 9.75743L8.82759 9.84619C8.83722 9.91655 8.8489 9.98726 8.86274 10.0582C9.12298 11.3936 10.0526 12.507 11.6069 13.3693C12.9579 14.1213 13.7445 14.986 13.9711 15.9344C14.0657 16.3302 14.0826 16.7196 14.0416 17.0601L14.0391 17.0812L14.0196 17.0905C13.4098 17.3818 12.7244 17.5453 11.9999 17.5453C9.45881 17.5453 7.39875 15.534 7.39875 13.0528C7.39875 11.9875 7.77851 11.0087 8.41306 10.2386Z" fill="white"/>
<defs>
<linearGradient id="paint0_linear_5_350265" x1="12" y1="0" x2="12" y2="24" gradientUnits="userSpaceOnUse">
<stop stop-color="#82AAEE"/>
<stop offset="0.676104" stop-color="#5496E5"/>
<stop offset="1" stop-color="#637EE1"/>
</linearGradient>
</defs>
</svg>
