<svg width="24" height="24" viewBox="0 0 24 24" fill="none" xmlns="http://www.w3.org/2000/svg">
<path d="M21.68 18.9655C22.4061 18.5551 23 17.5476 23 16.7266V7.27339C23 6.45245 22.4061 5.44493 21.68 5.03446L13.32 0.307852C12.5939 -0.102617 11.4061 -0.102617 10.68 0.307852L2.31997 5.03446C1.59394 5.44493 1 6.45245 1 7.27339V16.7266C1 17.5476 1.59394 18.5551 2.31997 18.9655L10.68 23.6921C11.4061 24.1026 12.5939 24.1026 13.32 23.6921L21.68 18.9655Z" fill="url(#paint0_linear_2_7928)"/>
<path d="M11.4772 12.002L17.4543 15.4211C17.6643 15.5403 17.9249 15.3886 17.9249 15.1503V8.85012C17.9249 8.60822 17.6643 8.46019 17.4543 8.57933L11.4772 12.002Z" fill="white"/>
<path d="M17.3208 7.06508L13.2381 4.06425C13.0484 3.92459 12.777 4.02486 12.7287 4.24688L11.2376 10.9253L17.2836 7.58074C17.4844 7.46973 17.503 7.20116 17.3208 7.06508Z" fill="white"/>
<path d="M13.2342 19.9373L17.3204 16.9358C17.5026 16.7997 17.484 16.531 17.2869 16.42L11.2376 13.0746L12.7286 19.7546C12.7732 19.9767 13.0483 20.0734 13.2342 19.9373Z" fill="white"/>
<path d="M9.92435 11.8823L11.4698 4.61887C11.5306 4.3334 11.2086 4.12742 10.9797 4.30449L7.02313 7.35439C6.81922 7.50978 6.70117 7.75551 6.70117 8.01208V15.7489C6.70117 16.0054 6.81922 16.2512 7.02313 16.4065L10.9797 19.4565C11.2086 19.6335 11.5306 19.4275 11.4698 19.1421L9.92435 11.8823Z" fill="white"/>
<defs>
<linearGradient id="paint0_linear_2_7928" x1="12" y1="0" x2="12" y2="24" gradientUnits="userSpaceOnUse">
<stop stop-color="#18EFB0"/>
<stop offset="1" stop-color="#31CB9E"/>
</linearGradient>
</defs>
</svg>
