<svg width="24" height="24" viewBox="0 0 24 24" fill="none" xmlns="http://www.w3.org/2000/svg">
<path d="M21.68 18.9655C22.4061 18.5551 23 17.5476 23 16.7266V7.27339C23 6.45245 22.4061 5.44493 21.68 5.03446L13.32 0.307852C12.5939 -0.102617 11.4061 -0.102617 10.68 0.307852L2.31997 5.03446C1.59394 5.44493 1 6.45245 1 7.27339V16.7266C1 17.5476 1.59394 18.5551 2.31997 18.9655L10.68 23.6921C11.4061 24.1026 12.5939 24.1026 13.32 23.6921L21.68 18.9655Z" fill="url(#paint0_linear_2_4736)"/>
<path d="M15.1359 5.5L11.0757 7.83185V15.1097L8.83546 16.4083L6.58154 15.1086V12.5103L8.83546 11.2233L10.2847 12.0637V9.96148L8.82281 9.13153L4.76367 11.4897V16.1545L8.83651 18.5L12.8957 16.1545V8.8777L15.1495 7.57802L17.4024 8.8777V11.4645L15.1495 12.7757L13.6877 11.9279V14.0196L15.1359 14.8548L19.2351 12.5229V7.83185L15.1359 5.5Z" fill="white"/>
<defs>
<linearGradient id="paint0_linear_2_4736" x1="5.75296" y1="3.12582" x2="17.7693" y2="21.4235" gradientUnits="userSpaceOnUse">
<stop stop-color="#8937C8"/>
<stop offset="1" stop-color="#7340DB"/>
</linearGradient>
</defs>
</svg>
