<svg width="24" height="24" viewBox="0 0 24 24" fill="none" xmlns="http://www.w3.org/2000/svg">
<path d="M21.68 18.9655C22.4061 18.5551 23 17.5476 23 16.7266V7.27339C23 6.45245 22.4061 5.44493 21.68 5.03446L13.32 0.307852C12.5939 -0.102617 11.4061 -0.102617 10.68 0.307852L2.31997 5.03446C1.59394 5.44493 1 6.45245 1 7.27339V16.7266C1 17.5476 1.59394 18.5551 2.31997 18.9655L10.68 23.6921C11.4061 24.1026 12.5939 24.1026 13.32 23.6921L21.68 18.9655Z" fill="url(#paint0_linear_5_15782)"/>
<path d="M19.4108 7.42273C19.1582 7.22364 18.8572 6.9517 18.3085 6.88372C17.7937 6.81574 17.2693 7.16051 16.9148 7.38874C16.5603 7.61697 15.8902 8.2871 15.6134 8.49105C15.3366 8.695 14.6276 8.88439 13.4865 9.56908C12.3453 10.2538 7.86808 13.1285 7.86808 13.1285L9.03351 13.1431L3.83761 15.8187H4.3572L3.60938 16.3869C3.60938 16.3869 4.26979 16.5617 4.82337 16.2121V16.3723C4.82337 16.3723 11.0099 13.9346 12.2045 14.5659L11.4761 14.7796C11.5392 14.7796 12.7144 14.8573 12.7144 14.8573C12.7429 15.1006 12.8247 15.3347 12.9539 15.5428C13.0832 15.751 13.2567 15.9281 13.4622 16.0615C14.1712 16.5277 14.1857 16.7851 14.1857 16.7851C14.1857 16.7851 13.8167 16.9356 13.8167 17.125C13.8167 17.125 14.3605 16.9599 14.8656 16.9745C15.1861 16.9866 15.504 17.0372 15.8125 17.125C15.8125 17.125 15.7736 16.921 15.2832 16.7851C14.7927 16.6491 14.3071 16.115 14.0692 15.8236C13.9234 15.6381 13.8284 15.418 13.7935 15.1847C13.7586 14.9514 13.785 14.7131 13.8701 14.4931C14.04 14.0512 14.6325 13.8084 15.8562 13.1771C17.2984 12.4293 17.6286 11.8757 17.8326 11.4435C18.0365 11.0113 18.3376 10.1518 18.5075 9.74875C18.7212 9.22916 18.9834 8.95237 19.202 8.78727C19.4205 8.62216 20.3917 8.25796 20.3917 8.25796C20.3917 8.25796 19.6487 7.61212 19.4108 7.42273Z" fill="white"/>
<defs>
<linearGradient id="paint0_linear_5_15782" x1="12" y1="0" x2="12" y2="24" gradientUnits="userSpaceOnUse">
<stop stop-color="#F55BA0"/>
<stop offset="1" stop-color="#E10F6D"/>
</linearGradient>
</defs>
</svg>
