<svg width="24" height="24" viewBox="0 0 24 24" fill="none" xmlns="http://www.w3.org/2000/svg">
<path d="M21.68 18.9655C22.4061 18.5551 23 17.5476 23 16.7266V7.27339C23 6.45245 22.4061 5.44493 21.68 5.03446L13.32 0.307852C12.5939 -0.102617 11.4061 -0.102617 10.68 0.307852L2.31997 5.03446C1.59394 5.44493 1 6.45245 1 7.27339V16.7266C1 17.5476 1.59394 18.5551 2.31997 18.9655L10.68 23.6921C11.4061 24.1026 12.5939 24.1026 13.32 23.6921L21.68 18.9655Z" fill="url(#paint0_linear_5_13616)"/>
<path d="M17.9372 15.1728L15.9562 17.3499C15.9133 17.3972 15.8614 17.4349 15.8037 17.4607C15.746 17.4866 15.6838 17.4999 15.6208 17.5H6.23016C6.18538 17.5 6.14157 17.4866 6.1041 17.4614C6.06664 17.4363 6.03714 17.4004 6.01922 17.3584C6.00131 17.3163 5.99575 17.2698 6.00324 17.2245C6.01072 17.1793 6.03092 17.1372 6.06136 17.1035L8.0401 14.9265C8.08295 14.8792 8.13483 14.8414 8.19254 14.8156C8.25024 14.7898 8.31252 14.7764 8.37548 14.7764H17.7661C17.8113 14.7754 17.8558 14.7882 17.8939 14.8131C17.932 14.838 17.9622 14.8738 17.9804 14.9162C17.9988 14.9586 18.0043 15.0056 17.9966 15.0512C17.9889 15.0969 17.9682 15.1392 17.9372 15.1728ZM15.9562 10.7877C15.9132 10.7407 15.8612 10.7031 15.8036 10.6773C15.7459 10.6515 15.6837 10.638 15.6208 10.6376H6.23016C6.18538 10.6377 6.14157 10.6511 6.1041 10.6762C6.06664 10.7014 6.03714 10.7372 6.01922 10.7793C6.00131 10.8213 5.99575 10.8679 6.00324 10.9131C6.01072 10.9584 6.03092 11.0004 6.06136 11.0341L8.0401 13.2123C8.0831 13.2594 8.13503 13.297 8.1927 13.3228C8.25036 13.3486 8.31256 13.3621 8.37548 13.3624H17.7661C17.8108 13.3622 17.8544 13.3486 17.8918 13.3234C17.9291 13.2981 17.9584 13.2623 17.9762 13.2203C17.9939 13.1782 17.9994 13.1318 17.9918 13.0867C17.9843 13.0415 17.9642 12.9996 17.9338 12.966L15.9562 10.7877ZM6.23016 9.22368H15.6208C15.6838 9.22362 15.746 9.21025 15.8037 9.18442C15.8614 9.15861 15.9133 9.12086 15.9562 9.07358L17.9372 6.89651C17.9682 6.86288 17.9889 6.82057 17.9966 6.77491C18.0043 6.72925 17.9988 6.68228 17.9804 6.6399C17.9622 6.59752 17.932 6.56163 17.8939 6.53674C17.8558 6.51186 17.8113 6.49909 17.7661 6.50005H8.37548C8.31252 6.50012 8.25024 6.51348 8.19254 6.53931C8.13483 6.56513 8.08295 6.60287 8.0401 6.65015L6.06136 8.82722C6.03092 8.8609 6.01072 8.90295 6.00324 8.94821C5.99575 8.99347 6.00131 9.03998 6.01922 9.08205C6.03714 9.12413 6.06664 9.15994 6.1041 9.18509C6.14157 9.21025 6.18538 9.22366 6.23016 9.22368Z" fill="white"/>
<defs>
<linearGradient id="paint0_linear_5_13616" x1="2.85665" y1="24.5725" x2="24.9664" y2="4.13751" gradientUnits="userSpaceOnUse">
<stop offset="0.08" stop-color="#9945FF"/>
<stop offset="0.3" stop-color="#8752F3"/>
<stop offset="0.5" stop-color="#5497D5"/>
<stop offset="0.6" stop-color="#43B4CA"/>
<stop offset="0.72" stop-color="#28E0B9"/>
<stop offset="0.97" stop-color="#19FB9B"/>
</linearGradient>
</defs>
</svg>
