<svg width="24" height="24" viewBox="0 0 24 24" fill="none" xmlns="http://www.w3.org/2000/svg">
<path d="M21.68 18.9655C22.4061 18.5551 23 17.5476 23 16.7266V7.27339C23 6.45245 22.4061 5.44493 21.68 5.03446L13.32 0.307852C12.5939 -0.102617 11.4061 -0.102617 10.68 0.307852L2.31997 5.03446C1.59394 5.44493 1 6.45245 1 7.27339V16.7266C1 17.5476 1.59394 18.5551 2.31997 18.9655L10.68 23.6921C11.4061 24.1026 12.5939 24.1026 13.32 23.6921L21.68 18.9655Z" fill="#F25D00"/>
<path d="M8.15234 13.5214V10.4794C8.15234 10.4292 8.17231 10.3809 8.20786 10.3454C8.2434 10.3098 8.29161 10.2899 8.34188 10.2899H11.3832C11.4335 10.2899 11.4817 10.3098 11.5173 10.3454C11.5528 10.3809 11.5728 10.4292 11.5728 10.4794V13.5214C11.5728 13.5717 11.5528 13.6199 11.5173 13.6554C11.4817 13.691 11.4335 13.7109 11.3832 13.7109H8.34188C8.23714 13.7109 8.15234 13.6261 8.15234 13.5214Z" fill="white"/>
<path d="M8.15297 17.796V14.754C8.15297 14.7038 8.17294 14.6549 8.20848 14.6194C8.24403 14.5838 8.29224 14.5639 8.34251 14.5639H11.3845C11.4348 14.5639 11.483 14.5838 11.5185 14.6194C11.5541 14.6549 11.574 14.7031 11.574 14.7534V17.796C11.574 17.8463 11.5541 17.8945 11.5185 17.93C11.483 17.9656 11.4348 17.9855 11.3845 17.9855H8.34251C8.23776 17.9855 8.15297 17.9008 8.15297 17.796Z" fill="white"/>
<path d="M12.4276 17.796V14.7547C12.4276 14.7044 12.4475 14.6562 12.4831 14.6206C12.5186 14.5851 12.5668 14.5651 12.6171 14.5651H15.6591C15.7094 14.5651 15.7576 14.5851 15.7931 14.6206C15.8287 14.6562 15.8486 14.7044 15.8486 14.7547V17.796C15.8486 17.8463 15.8287 17.8945 15.7931 17.93C15.7576 17.9656 15.7094 17.9855 15.6591 17.9855H12.6171C12.513 17.9855 12.4276 17.9008 12.4276 17.796Z" fill="white"/>
<path d="M12.4276 13.5202V10.4788C12.4276 10.4285 12.4475 10.3803 12.4831 10.3448C12.5186 10.3092 12.5668 10.2893 12.6171 10.2893H15.6591C15.7094 10.2893 15.7576 10.3092 15.7931 10.3448C15.8287 10.3803 15.8486 10.4285 15.8486 10.4788V13.5202C15.8486 13.5704 15.8287 13.6186 15.7931 13.6542C15.7576 13.6897 15.7094 13.7097 15.6591 13.7097H12.6171C12.513 13.7097 12.4276 13.6249 12.4276 13.5202Z" fill="white"/>
<path d="M8.34188 6.01465H11.3832C11.4335 6.01465 11.4817 6.03462 11.5173 6.07016C11.5528 6.10571 11.5728 6.15392 11.5728 6.20419V9.24554C11.5728 9.29581 11.5528 9.34402 11.5173 9.37957C11.4817 9.41511 11.4335 9.43508 11.3832 9.43508H8.34188C8.23714 9.43508 8.15234 9.35029 8.15234 9.24554V6.20419C8.15234 6.15392 8.17231 6.10571 8.20786 6.07016C8.2434 6.03462 8.29161 6.01465 8.34188 6.01465Z" fill="white"/>
</svg>
