<svg width="24" height="24" viewBox="0 0 24 24" fill="none" xmlns="http://www.w3.org/2000/svg">
<path d="M21.68 18.9655C22.4061 18.5551 23 17.5476 23 16.7266V7.27339C23 6.45245 22.4061 5.44493 21.68 5.03446L13.32 0.307852C12.5939 -0.102617 11.4061 -0.102617 10.68 0.307852L2.31997 5.03446C1.59394 5.44493 1 6.45245 1 7.27339V16.7266C1 17.5476 1.59394 18.5551 2.31997 18.9655L10.68 23.6921C11.4061 24.1026 12.5939 24.1026 13.32 23.6921L21.68 18.9655Z" fill="url(#paint0_linear_2_4750)"/>
<path d="M12.0222 4.5L8.5341 6.54359L12.0222 8.58796L15.5759 6.54359L12.0222 4.5ZM12.5958 15.412V19.5L17.3338 16.7971V12.7083L12.5958 15.412ZM16.1495 7.82904V11.9178L12.595 13.9621V9.87341L16.1495 7.82904ZM7.59375 11.9178L11.1482 13.9621V9.87341L7.59375 7.82904V11.9178ZM7.59375 17.4564L11.1482 19.5V15.412L7.59375 13.3684V17.4556V17.4564Z" fill="white"/>
<defs>
<linearGradient id="paint0_linear_2_4750" x1="12" y1="0" x2="12" y2="24" gradientUnits="userSpaceOnUse">
<stop stop-color="#0A2540"/>
<stop offset="1"/>
</linearGradient>
</defs>
</svg>
