<svg width="24" height="24" viewBox="0 0 24 24" fill="none" xmlns="http://www.w3.org/2000/svg">
<path fill-rule="evenodd" clip-rule="evenodd" d="M21.68 18.9655C22.4061 18.5551 23 17.5476 23 16.7266V7.27339C23 6.45245 22.4061 5.44493 21.68 5.03446L13.32 0.307852C12.5939 -0.102617 11.4061 -0.102617 10.68 0.307852L2.31997 5.03446C1.59394 5.44493 1 6.45245 1 7.27339V16.7266C1 17.5476 1.59394 18.5551 2.31997 18.9655L10.68 23.6921C11.4061 24.1026 12.5939 24.1026 13.32 23.6921L21.68 18.9655Z" fill="url(#paint0_linear_2_4649)"/>
<path d="M10.022 17.2601C6.9969 16.2081 5.44553 12.9393 6.57031 10.0462C7.15207 8.46816 8.43193 7.26587 10.022 6.70229C10.1772 6.62717 10.2547 6.51446 10.2547 6.32653V5.80055C10.2547 5.65023 10.1772 5.53751 10.022 5.5C9.98322 5.5 9.90568 5.5 9.86687 5.53751C6.18245 6.66469 4.16566 10.4596 5.32917 14.0289C6.02728 16.1329 7.69501 17.7486 9.86687 18.4249C10.022 18.5 10.1772 18.4249 10.2159 18.2746C10.2547 18.2371 10.2547 18.1995 10.2547 18.1243V17.5983C10.2547 17.4855 10.1384 17.3353 10.022 17.2601Z" fill="white"/>
<path d="M14.1331 5.53751C13.978 5.4624 13.8228 5.53751 13.7841 5.68783C13.7453 5.72543 13.7453 5.76295 13.7453 5.83815V6.36414C13.7453 6.51446 13.8616 6.66469 13.978 6.73989C17.0031 7.79186 18.5545 11.0607 17.4297 13.9538C16.8479 15.5318 15.5681 16.7341 13.978 17.2977C13.8228 17.3728 13.7453 17.4855 13.7453 17.6735V18.1995C13.7453 18.3498 13.8228 18.4625 13.978 18.5C14.0168 18.5 14.0943 18.5 14.1331 18.4625C17.8176 17.3353 19.8343 13.5404 18.6708 9.97109C17.9727 7.82946 16.2662 6.21382 14.1331 5.53751Z" fill="white"/>
<path d="M12.1164 11.3613C13.7453 11.5491 14.5597 12 14.5597 13.315C14.5597 14.3295 13.7841 15.1185 12.6206 15.3064V16.2081C12.5818 16.396 12.4654 16.5087 12.3102 16.5087H11.7285C11.5346 16.4711 11.4182 16.3584 11.4182 16.2081V15.3064C10.1384 15.1185 9.51781 14.4422 9.36274 13.5029V13.4653C9.36274 13.315 9.47909 13.2023 9.63416 13.2023H10.2935C10.4099 13.2023 10.5263 13.2775 10.565 13.4277C10.6813 13.9913 11.0304 14.4047 12.0388 14.4047C12.7756 14.4047 13.3187 13.9914 13.3187 13.3902C13.3187 12.789 12.9696 12.5636 11.8836 12.3758C10.2547 12.1878 9.47909 11.6995 9.47909 10.4596C9.47909 9.52022 10.2159 8.7688 11.3794 8.61848V7.75435C11.4182 7.56642 11.5346 7.45371 11.6898 7.45371H12.2715C12.4654 7.49131 12.5818 7.60403 12.5818 7.75435V8.65608C13.4737 8.7312 14.1719 9.3699 14.327 10.1965V10.2341C14.327 10.3844 14.2107 10.4971 14.0555 10.4971H13.435C13.3187 10.4971 13.2023 10.422 13.1635 10.3092C12.9696 9.74565 12.5818 9.52022 11.8836 9.52022C11.108 9.52022 10.7201 9.85828 10.7201 10.3844C10.7201 10.9104 10.9528 11.211 12.1164 11.3613Z" fill="white"/>
<defs>
<linearGradient id="paint0_linear_2_4649" x1="1" y1="0" x2="1" y2="24" gradientUnits="userSpaceOnUse">
<stop stop-color="#4FADE7"/>
<stop offset="1" stop-color="#2775CA"/>
</linearGradient>
</defs>
</svg>
