<svg width="24" height="24" viewBox="0 0 24 24" fill="none" xmlns="http://www.w3.org/2000/svg">
<path d="M21.68 18.9655C22.4061 18.5551 23 17.5476 23 16.7266V7.27339C23 6.45245 22.4061 5.44493 21.68 5.03446L13.32 0.307852C12.5939 -0.102617 11.4061 -0.102617 10.68 0.307852L2.31997 5.03446C1.59394 5.44493 1 6.45245 1 7.27339V16.7266C1 17.5476 1.59394 18.5551 2.31997 18.9655L10.68 23.6921C11.4061 24.1026 12.5939 24.1026 13.32 23.6921L21.68 18.9655Z" fill="url(#paint0_linear_2_4764)"/>
<path fill-rule="evenodd" clip-rule="evenodd" d="M11.9946 19.3434C9.83583 19.3418 8.09689 18.8238 6.88189 17.8933C5.6523 16.9517 5 15.6155 5 14.1035C5 12.6466 5.65087 11.5961 6.38731 10.886C6.96445 10.3295 7.60134 9.97306 8.0448 9.76806C7.94453 9.4603 7.8194 9.05737 7.70746 8.64122C7.55769 8.08434 7.41074 7.43097 7.41074 6.9522C7.41074 6.3855 7.5343 5.81637 7.86744 5.37413C8.21942 4.90691 8.74928 4.65662 9.38675 4.65662C9.88493 4.65662 10.3079 4.8414 10.639 5.16021C10.9556 5.46492 11.1662 5.86963 11.3117 6.29149C11.5673 7.03276 11.6668 7.96408 11.6947 8.89348H12.3053C12.3332 7.96408 12.4327 7.03276 12.6883 6.29149C12.8338 5.86963 13.0444 5.46492 13.361 5.16021C13.6921 4.8414 14.1151 4.65662 14.6133 4.65662C15.2507 4.65662 15.7806 4.90691 16.1326 5.37413C16.4657 5.81637 16.5893 6.3855 16.5893 6.9522C16.5893 7.43097 16.4423 8.08434 16.2925 8.64122C16.1806 9.05737 16.0555 9.4603 15.9552 9.76806C16.3987 9.97306 17.0356 10.3295 17.6127 10.886C18.3492 11.5961 19 12.6466 19 14.1035C19 15.6155 18.3477 16.9517 17.1181 17.8933C15.9031 18.8238 14.1642 19.3418 12.0054 19.3434H11.9946Z" fill="#633001"/>
<path d="M9.38672 5.19557C8.45305 5.19557 8.02327 5.89921 8.02327 6.87236C8.02327 7.64584 8.52265 9.19496 8.72754 9.79801C8.77362 9.93364 8.70119 10.0823 8.56915 10.1349C7.82085 10.4329 5.61255 11.5243 5.61255 14.0236C5.61255 16.6565 7.85667 18.6416 11.995 18.6448C11.9967 18.6448 11.9983 18.6448 12 18.6448C12.0016 18.6448 12.0033 18.6448 12.0049 18.6448C16.1433 18.6416 18.3874 16.6565 18.3874 14.0236C18.3874 11.5243 16.1791 10.4329 15.4308 10.1349C15.2988 10.0823 15.2264 9.93364 15.2724 9.79801C15.4773 9.19496 15.9767 7.64584 15.9767 6.87236C15.9767 5.89921 15.5469 5.19557 14.6133 5.19557C13.2693 5.19557 12.9343 7.11877 12.9104 9.18285C12.9088 9.32065 12.7985 9.43245 12.6621 9.43245H11.3379C11.2015 9.43245 11.0912 9.32065 11.0896 9.18285C11.0657 7.11877 10.7307 5.19557 9.38672 5.19557Z" fill="#D1884F"/>
<path d="M12.0049 17.8014C8.96427 17.8014 5.6178 16.1571 5.61255 14.0286C5.61255 14.032 5.61255 14.0353 5.61255 14.0386C5.61255 16.6736 7.86026 18.6597 12.0049 18.6597C16.1496 18.6597 18.3973 16.6736 18.3973 14.0386C18.3973 14.0353 18.3973 14.032 18.3973 14.0286C18.392 16.1571 15.0456 17.8014 12.0049 17.8014Z" fill="#FEDC90"/>
<path d="M10.3155 13.3749C10.3155 14.0935 9.97926 14.4678 9.56457 14.4678C9.14986 14.4678 8.81369 14.0935 8.81369 13.3749C8.81369 12.6563 9.14986 12.282 9.56457 12.282C9.97926 12.282 10.3155 12.6563 10.3155 13.3749Z" fill="#633001"/>
<path d="M15.1962 13.3749C15.1962 14.0935 14.86 14.4678 14.4453 14.4678C14.0306 14.4678 13.6944 14.0935 13.6944 13.3749C13.6944 12.6563 14.0306 12.282 14.4453 12.282C14.86 12.282 15.1962 12.6563 15.1962 13.3749Z" fill="#633001"/>
<defs>
<linearGradient id="paint0_linear_2_4764" x1="12" y1="0" x2="12" y2="24" gradientUnits="userSpaceOnUse">
<stop stop-color="#53DEE9"/>
<stop offset="1" stop-color="#1FC7D4"/>
</linearGradient>
</defs>
</svg>
