<svg width="24" height="24" viewBox="0 0 24 24" fill="none" xmlns="http://www.w3.org/2000/svg">
<path d="M21.68 18.9655C22.4061 18.5551 23 17.5476 23 16.7266V7.27339C23 6.45245 22.4061 5.44493 21.68 5.03446L13.32 0.307852C12.5939 -0.102617 11.4061 -0.102617 10.68 0.307852L2.31997 5.03446C1.59394 5.44493 1 6.45245 1 7.27339V16.7266C1 17.5476 1.59394 18.5551 2.31997 18.9655L10.68 23.6921C11.4061 24.1026 12.5939 24.1026 13.32 23.6921L21.68 18.9655Z" fill="url(#paint0_linear_2_4662)"/>
<path fill-rule="evenodd" clip-rule="evenodd" d="M8.76266 16.9998H6.57679C6.11748 16.9998 5.89058 16.9998 5.75222 16.9154C5.60282 16.823 5.5115 16.67 5.50042 16.5012C5.49214 16.3456 5.60557 16.1556 5.83247 15.7758L11.2297 6.70627C11.4593 6.32114 11.5756 6.12859 11.7222 6.05736C11.8799 5.98088 12.0681 5.98088 12.2258 6.05736C12.3724 6.12859 12.4887 6.32114 12.7183 6.70627L13.8279 8.55278L13.8335 8.5622C14.0816 8.97539 14.2074 9.1849 14.2623 9.4048C14.3231 9.64485 14.3231 9.89807 14.2623 10.1381C14.2069 10.3597 14.0824 10.5708 13.8306 10.9902L10.9956 15.7679L10.9883 15.7801C10.7386 16.1967 10.612 16.4078 10.4367 16.5672C10.2458 16.7413 10.0161 16.8679 9.76431 16.9391C9.53466 16.9998 9.27733 16.9998 8.76266 16.9998ZM14.2827 17H17.4149C17.877 17 18.1094 17 18.2478 16.913C18.3972 16.8206 18.4913 16.665 18.4996 16.4962C18.5076 16.3457 18.3966 16.1631 18.1791 15.8053C18.1717 15.7931 18.1641 15.7807 18.1565 15.7681L16.5876 13.2094L16.5698 13.1806C16.3493 12.8252 16.238 12.6457 16.0951 12.5763C15.9374 12.4998 15.752 12.4998 15.5943 12.5763C15.4504 12.6475 15.3342 12.8348 15.1045 13.212L13.5412 15.7707L13.5359 15.7796C13.307 16.1562 13.1926 16.3444 13.2009 16.4988C13.212 16.6676 13.3032 16.8233 13.4527 16.9156C13.5883 17 13.8207 17 14.2827 17Z" fill="white"/>
<defs>
<linearGradient id="paint0_linear_2_4662" x1="12" y1="0" x2="12" y2="24" gradientUnits="userSpaceOnUse">
<stop stop-color="#F7716B"/>
<stop offset="1" stop-color="#CC3831"/>
</linearGradient>
</defs>
</svg>
