<svg width="24" height="24" viewBox="0 0 24 24" fill="none" xmlns="http://www.w3.org/2000/svg">
<path fill-rule="evenodd" clip-rule="evenodd" d="M21.68 18.9655C22.4061 18.5551 23 17.5476 23 16.7266V7.27339C23 6.45245 22.4061 5.44493 21.68 5.03446L13.32 0.307852C12.5939 -0.102617 11.4061 -0.102617 10.68 0.307852L2.31997 5.03446C1.59394 5.44493 1 6.45245 1 7.27339V16.7266C1 17.5476 1.59394 18.5551 2.31997 18.9655L10.68 23.6921C11.4061 24.1026 12.5939 24.1026 13.32 23.6921L21.68 18.9655Z" fill="url(#paint0_linear_2_7994)"/>
<path fill-rule="evenodd" clip-rule="evenodd" d="M16.4355 10.6558C16.6375 9.30825 15.6092 8.58382 14.203 8.10055L14.6591 6.27507L13.5454 5.99815L13.1014 7.77552C12.8086 7.70273 12.5079 7.63405 12.2091 7.566L12.6563 5.77692L11.5433 5.5L11.0868 7.32484C10.8445 7.26978 10.6066 7.21534 10.3756 7.15806L10.3769 7.15236L8.841 6.76973L8.54473 7.95655C8.54473 7.95655 9.37105 8.14549 9.3536 8.1572C9.80466 8.26955 9.88618 8.56736 9.87254 8.80345L9.35297 10.8831C9.38405 10.891 9.42434 10.9024 9.46875 10.9201L9.43102 10.9107L9.43087 10.9107C9.40508 10.9042 9.37836 10.8975 9.35106 10.891L8.62277 13.8042C8.56757 13.9409 8.42769 14.146 8.11239 14.0682C8.12349 14.0843 7.30288 13.8666 7.30288 13.8666L6.75 15.1385L8.1993 15.499C8.36116 15.5394 8.52107 15.5811 8.67932 15.6222C8.78468 15.6496 8.8893 15.6769 8.99326 15.7034L8.53236 17.5498L9.64479 17.8267L10.1012 16C10.4051 16.0823 10.7001 16.1582 10.9888 16.2297L10.5339 18.0479L11.6476 18.3249L12.1085 16.482C14.0076 16.8406 15.4356 16.6959 16.0367 14.9822C16.5211 13.6023 16.0126 12.8063 15.0134 12.2873C15.7411 12.1199 16.2892 11.6423 16.4355 10.6558ZM13.8909 14.216C13.5751 15.4819 11.589 14.9585 10.6803 14.7191C10.5985 14.6975 10.5255 14.6783 10.4632 14.6628L11.0747 12.2167C11.1506 12.2356 11.2433 12.2564 11.3484 12.2799C12.2883 12.4903 14.2144 12.9215 13.8909 14.216ZM11.5372 11.1447C12.2949 11.3465 13.9475 11.7865 14.2354 10.6359C14.5293 9.45899 12.9231 9.10422 12.1386 8.93095C12.0504 8.91146 11.9726 8.89427 11.909 8.87846L11.3545 11.097C11.4069 11.11 11.4684 11.1264 11.5372 11.1447Z" fill="white"/>
<defs>
<linearGradient id="paint0_linear_2_7994" x1="1" y1="0" x2="1" y2="24" gradientUnits="userSpaceOnUse">
<stop stop-color="#FCC538"/>
<stop offset="1" stop-color="#F7931A"/>
</linearGradient>
</defs>
</svg>
