<svg width="24" height="24" viewBox="0 0 24 24" fill="none" xmlns="http://www.w3.org/2000/svg">
<path fill-rule="evenodd" clip-rule="evenodd" d="M21.68 18.9655C22.4061 18.5551 23 17.5476 23 16.7266V7.27339C23 6.45245 22.4061 5.44493 21.68 5.03446L13.32 0.307852C12.5939 -0.102617 11.4061 -0.102617 10.68 0.307852L2.31997 5.03446C1.59394 5.44493 1 6.45245 1 7.27339V16.7266C1 17.5476 1.59394 18.5551 2.31997 18.9655L10.68 23.6921C11.4061 24.1026 12.5939 24.1026 13.32 23.6921L21.68 18.9655Z" fill="#314012"/>
<path d="M18.946 11.1917H15.8119C15.9271 10.8834 16.063 10.579 16.1491 10.257C16.6862 8.24763 15.5572 7.33572 13.6367 7.90178C11.355 8.5747 8.74143 11.1772 7.9507 13.4129C7.15097 15.6729 8.29077 16.8775 10.5664 16.0884C11.9958 15.5927 13.2978 14.5126 14.2985 13.4028L12.3175 12.744V12.0039H19C18.9903 13.3119 18.6297 14.5952 17.9449 15.7028C15.1638 20.1988 8.55626 20.0696 5.9384 15.4819C2.9466 10.2397 7.55732 3.94296 13.4379 5.15054C16.3501 5.74837 18.6214 8.22308 18.9463 11.1917H18.946Z" fill="#C7E36C"/>
</svg>
