<svg width="24" height="24" viewBox="0 0 24 24" fill="none" xmlns="http://www.w3.org/2000/svg">
<path fill-rule="evenodd" clip-rule="evenodd" d="M21.68 18.9655C22.4061 18.5551 23 17.5476 23 16.7266V7.27339C23 6.45245 22.4061 5.44493 21.68 5.03446L13.32 0.307852C12.5939 -0.102617 11.4061 -0.102617 10.68 0.307852L2.31997 5.03446C1.59394 5.44493 1 6.45245 1 7.27339V16.7266C1 17.5476 1.59394 18.5551 2.31997 18.9655L10.68 23.6921C11.4061 24.1026 12.5939 24.1026 13.32 23.6921L21.68 18.9655Z" fill="url(#paint0_linear_5_433616)"/>
<path fill-rule="evenodd" clip-rule="evenodd" d="M9.42705 8.66476L6.0918 12L9.42705 15.3353L12.6491 18.5573L15.9844 15.2221L12.7623 12L15.9844 8.77794L12.6491 5.44269L9.42705 8.66476Z" fill="white"/>
<defs>
<linearGradient id="paint0_linear_5_433616" x1="12" y1="0" x2="12" y2="24" gradientUnits="userSpaceOnUse">
<stop stop-color="#8651FF"/>
<stop offset="1" stop-color="#6624FF"/>
</linearGradient>
</defs>
</svg>
