<svg width="24" height="24" viewBox="0 0 24 24" fill="none" xmlns="http://www.w3.org/2000/svg">
<path fill-rule="evenodd" clip-rule="evenodd" d="M21.68 18.9655C22.4061 18.5551 23 17.5476 23 16.7266V7.27339C23 6.45245 22.4061 5.44493 21.68 5.03446L13.32 0.307852C12.5939 -0.102617 11.4061 -0.102617 10.68 0.307852L2.31997 5.03446C1.59394 5.44493 1 6.45245 1 7.27339V16.7266C1 17.5476 1.59394 18.5551 2.31997 18.9655L10.68 23.6921C11.4061 24.1026 12.5939 24.1026 13.32 23.6921L21.68 18.9655Z" fill="#0B0C1B"/>
<path d="M11.333 17.9551C11.8085 17.9551 12.1941 18.34 12.1943 18.8154C12.1943 19.2911 11.8086 19.6768 11.333 19.6768C10.8576 19.6765 10.4727 19.2909 10.4727 18.8154C10.4729 18.3402 10.8577 17.9553 11.333 17.9551ZM15.3721 16.2119C16.0735 16.2119 16.6426 16.781 16.6426 17.4824C16.6425 18.1838 16.0735 18.7529 15.3721 18.7529C14.6707 18.7529 14.1016 18.1838 14.1016 17.4824C14.1016 16.781 14.6706 16.212 15.3721 16.2119ZM8.13184 16.7471C8.60737 16.7472 8.99316 17.1328 8.99316 17.6084C8.99313 18.0839 8.60735 18.4696 8.13184 18.4697C7.65622 18.4697 7.27054 18.084 7.27051 17.6084C7.27051 17.1328 7.6562 16.7471 8.13184 16.7471ZM12.3799 14.3926C13.0811 14.3927 13.6493 14.9608 13.6494 15.6621C13.6494 16.3635 13.0812 16.9325 12.3799 16.9326C11.6784 16.9326 11.1094 16.3636 11.1094 15.6621C11.1095 14.9608 11.6785 14.3926 12.3799 14.3926ZM8.99316 13.2686C9.69448 13.2687 10.2627 13.8377 10.2627 14.5391C10.2625 15.2403 9.69437 15.8084 8.99316 15.8086C8.2918 15.8086 7.72283 15.2404 7.72266 14.5391C7.72266 13.8376 8.2917 13.2686 8.99316 13.2686ZM5.60645 12.9053C6.30769 12.9055 6.8759 13.4735 6.87598 14.1748C6.87598 14.8761 6.30773 15.4451 5.60645 15.4453C4.90498 15.4453 4.33594 14.8763 4.33594 14.1748C4.33601 13.4734 4.90502 12.9053 5.60645 12.9053ZM17.9414 12C18.8926 12.0001 19.6641 12.7715 19.6641 13.7227C19.664 14.6738 18.8925 15.4452 17.9414 15.4453C16.9901 15.4453 16.2188 14.6739 16.2188 13.7227C16.2188 12.7714 16.9901 12 17.9414 12ZM14.1016 10.4541C15.0528 10.4541 15.8242 11.2255 15.8242 12.1768C15.824 13.1278 15.0527 13.8984 14.1016 13.8984C13.1507 13.8982 12.3801 13.1277 12.3799 12.1768C12.3799 11.2256 13.1505 10.4544 14.1016 10.4541ZM10.2627 9.24121C11.214 9.24121 11.9854 10.0126 11.9854 10.9639C11.9853 11.9151 11.2139 12.6865 10.2627 12.6865C9.3116 12.6864 8.54014 11.915 8.54004 10.9639C8.54004 10.0127 9.31154 9.24135 10.2627 9.24121ZM6.42383 7.92773C7.3751 7.92773 8.14648 8.69911 8.14648 9.65039C8.14622 10.6014 7.37494 11.3721 6.42383 11.3721C5.47272 11.3721 4.70143 10.6014 4.70117 9.65039C4.70117 8.69912 5.47256 7.92775 6.42383 7.92773ZM16.0947 6.11816C17.2919 6.11816 18.2627 7.08893 18.2627 8.28613C18.2627 9.48333 17.2919 10.4541 16.0947 10.4541C14.8976 10.454 13.9268 9.48329 13.9268 8.28613C13.9268 7.08897 14.8976 6.11823 16.0947 6.11816ZM10.708 4.32324C11.9052 4.32324 12.876 5.29401 12.876 6.49121C12.8758 7.68831 11.9051 8.65918 10.708 8.65918C9.51099 8.65905 8.54017 7.68823 8.54004 6.49121C8.54004 5.29408 9.51091 4.32337 10.708 4.32324Z" fill="white"/>
</svg>
