<svg width="24" height="24" viewBox="0 0 24 24" fill="none" xmlns="http://www.w3.org/2000/svg">
<path d="M21.68 18.9655C22.4061 18.5551 23 17.5476 23 16.7266V7.27339C23 6.45245 22.4061 5.44493 21.68 5.03446L13.32 0.307852C12.5939 -0.102617 11.4061 -0.102617 10.68 0.307852L2.31997 5.03446C1.59394 5.44493 1 6.45245 1 7.27339V16.7266C1 17.5476 1.59394 18.5551 2.31997 18.9655L10.68 23.6921C11.4061 24.1026 12.5939 24.1026 13.32 23.6921L21.68 18.9655Z" fill="url(#paint0_linear_2_4710)"/>
<path d="M16.6903 15.684L12.9698 6.6924C12.7596 6.22773 12.449 6 12.0374 6H11.7084C11.297 6 10.9865 6.22773 10.7759 6.6924L9.15757 10.6097H7.93296C7.75661 10.6105 7.58767 10.6807 7.46276 10.8052C7.33785 10.9297 7.26703 11.0984 7.26566 11.2748V11.2839C7.26703 11.4602 7.33785 11.6289 7.46276 11.7534C7.58767 11.8779 7.75661 11.9482 7.93296 11.9489H8.59116L7.04626 15.684C7.01705 15.766 7.0016 15.8521 7.00054 15.9391C6.99331 16.1236 7.05897 16.3036 7.18333 16.4401C7.24726 16.5053 7.32437 16.5561 7.40949 16.5891C7.49462 16.622 7.5858 16.6365 7.67695 16.6314C7.81504 16.6296 7.94918 16.585 8.06092 16.5039C8.17792 16.4173 8.26949 16.3009 8.32604 16.1668L10.0263 11.9489H11.2055C11.3819 11.9482 11.551 11.878 11.6759 11.7535C11.8009 11.629 11.8718 11.4603 11.8732 11.2839V11.2657C11.8718 11.0893 11.801 10.9206 11.6761 10.7961C11.5512 10.6716 11.3822 10.6014 11.2059 10.6006H10.5751L11.8732 7.36641L15.4109 16.1664C15.4674 16.3005 15.559 16.4169 15.676 16.5035C15.7877 16.5846 15.9219 16.6292 16.06 16.631C16.1511 16.6361 16.2423 16.6216 16.3274 16.5886C16.4126 16.5556 16.4897 16.5049 16.5536 16.4397C16.678 16.3032 16.7436 16.1232 16.7364 15.9387C16.7397 15.8515 16.7239 15.7646 16.6903 15.684Z" fill="white"/>
<defs>
<linearGradient id="paint0_linear_2_4710" x1="20.954" y1="5.448" x2="3.42552" y2="18.9674" gradientUnits="userSpaceOnUse">
<stop stop-color="#B6509E"/>
<stop offset="1" stop-color="#2EBAC6"/>
</linearGradient>
</defs>
</svg>
