<svg width="24" height="24" viewBox="0 0 24 24" fill="none" xmlns="http://www.w3.org/2000/svg">
<path d="M21.68 18.9655C22.4061 18.5551 23 17.5476 23 16.7266V7.27339C23 6.45245 22.4061 5.44493 21.68 5.03446L13.32 0.307852C12.5939 -0.102617 11.4061 -0.102617 10.68 0.307852L2.31997 5.03446C1.59394 5.44493 1 6.45245 1 7.27339V16.7266C1 17.5476 1.59394 18.5551 2.31997 18.9655L10.68 23.6921C11.4061 24.1026 12.5939 24.1026 13.32 23.6921L21.68 18.9655Z" fill="url(#paint0_linear_2_7941)"/>
<path fill-rule="evenodd" clip-rule="evenodd" d="M6.62215 16.0819C6.23611 15.8457 6 15.4252 6 14.9737V12.4523C6 12.3558 6.02585 12.2628 6.07411 12.1801C6.22404 11.9215 6.55666 11.8337 6.81517 11.9853L12.5059 15.3028C12.8385 15.4976 13.0436 15.8526 13.0436 16.2387V18.8513C13.0436 18.9703 13.0108 19.0892 12.9488 19.1908C12.7609 19.4976 12.3611 19.5941 12.0543 19.4063L6.62215 16.0819ZM15.1047 11.2942C15.4373 11.4889 15.6424 11.844 15.6424 12.23V17.5312C15.6424 17.6881 15.558 17.8328 15.4218 17.9086L14.1758 18.6101C14.1603 18.6187 14.1431 18.6256 14.1259 18.6308V15.6872C14.1259 15.3063 13.9259 14.953 13.5985 14.7565L8.60062 11.7664V8.44371C8.60062 8.34719 8.62647 8.25413 8.67472 8.17141C8.82466 7.9129 9.15728 7.825 9.41579 7.97666L15.1047 11.2942ZM17.5951 7.37864C17.9294 7.57166 18.1345 7.93013 18.1345 8.31618V16.0595C18.1345 16.218 18.0466 16.3644 17.907 16.4403L16.7264 17.078V11.6871C16.7264 11.3063 16.5266 10.9547 16.2009 10.7582L11.0927 7.69403V4.54192C11.0927 4.44541 11.1185 4.35235 11.165 4.26962C11.315 4.01111 11.6476 3.92322 11.9061 4.07315L17.5951 7.37864Z" fill="white"/>
<defs>
<linearGradient id="paint0_linear_2_7941" x1="12" y1="0" x2="12" y2="24" gradientUnits="userSpaceOnUse">
<stop stop-color="#08F8B1"/>
<stop offset="1" stop-color="#00D395"/>
</linearGradient>
</defs>
</svg>
