<svg width="24" height="24" viewBox="0 0 24 24" fill="none" xmlns="http://www.w3.org/2000/svg">
<path d="M21.68 18.9655C22.4061 18.5551 23 17.5476 23 16.7266V7.27339C23 6.45245 22.4061 5.44493 21.68 5.03446L13.32 0.307852C12.5939 -0.102617 11.4061 -0.102617 10.68 0.307852L2.31997 5.03446C1.59394 5.44493 1 6.45245 1 7.27339V16.7266C1 17.5476 1.59394 18.5551 2.31997 18.9655L10.68 23.6921C11.4061 24.1026 12.5939 24.1026 13.32 23.6921L21.68 18.9655Z" fill="url(#paint0_linear_2_1103)"/>
<path fill-rule="evenodd" clip-rule="evenodd" d="M13.0372 4.24L18.2633 6.92C19.0213 7.32 19.5 8.08 19.5 8.96V10.2H17.5851V8.96C17.5851 8.84 17.5053 8.72 17.3856 8.64L12.1596 5.96C12.0798 5.92 11.9601 5.92 11.8404 5.96L6.61436 8.64C6.49468 8.68 6.41489 8.8 6.41489 8.96V10.2H4.5V8.96C4.5 8.12 4.97872 7.32 5.7367 6.92L10.9628 4.24C11.6011 3.92 12.359 3.92 13.0372 4.24ZM13.6356 11.92C13.6356 11 12.8777 10.28 12 10.28C11.0824 10.28 10.3644 11 10.3644 11.92C10.3644 12.84 11.1223 13.56 12 13.56C12.8777 13.56 13.6356 12.84 13.6356 11.92ZM17.3457 15.36C17.4654 15.32 17.5452 15.2 17.5452 15.04V13.8H19.4601V15.04C19.4601 15.88 18.9814 16.68 18.2234 17.08L12.9973 19.76C12.6782 19.92 12.3191 20 11.9601 20C11.6011 20 11.242 19.92 10.9229 19.76L5.7367 17.08C4.97872 16.68 4.5 15.92 4.5 15.04V13.8H6.41489V15.04C6.41489 15.16 6.49468 15.28 6.61436 15.36L11.0426 17.6V15.36C9.5266 14.92 8.44947 13.56 8.44947 11.92C8.44947 9.96 10.0452 8.32 12.0399 8.32C13.9947 8.32 15.6303 9.92 15.6303 11.92C15.6303 13.56 14.5133 14.96 13.0372 15.36V17.6L17.3457 15.36Z" fill="white" fill-opacity="0.9"/>
<defs>
<linearGradient id="paint0_linear_2_1103" x1="12" y1="0" x2="12" y2="24" gradientUnits="userSpaceOnUse">
<stop stop-color="#409AFF"/>
<stop offset="1" stop-color="#3769E5"/>
</linearGradient>
</defs>
</svg>
