<svg width="24" height="24" viewBox="0 0 24 24" fill="none" xmlns="http://www.w3.org/2000/svg">
<path d="M21.68 18.9655C22.4061 18.5551 23 17.5476 23 16.7266V7.27339C23 6.45245 22.4061 5.44493 21.68 5.03446L13.32 0.307852C12.5939 -0.102617 11.4061 -0.102617 10.68 0.307852L2.31997 5.03446C1.59394 5.44493 1 6.45245 1 7.27339V16.7266C1 17.5476 1.59394 18.5551 2.31997 18.9655L10.68 23.6921C11.4061 24.1026 12.5939 24.1026 13.32 23.6921L21.68 18.9655Z" fill="url(#paint0_linear_5_15740)"/>
<path d="M6.69801 7.7775C6.85623 7.50062 7.054 7.26329 7.33089 7.08529L11.7413 4L7.21222 11.4759C7.21222 11.4759 6.81667 10.8035 6.65845 10.4672C6.28268 9.61681 6.28268 8.62794 6.69801 7.7775ZM4.87848 12.9394C4.97736 14.3832 5.70913 15.7281 6.85623 16.5983L11.7413 20C11.7413 20 8.67576 15.5896 6.10468 11.199C5.84757 10.7441 5.66958 10.2299 5.59047 9.69592C5.55091 9.45859 5.55091 9.22126 5.59047 8.98393C5.53113 9.1026 5.39269 9.3597 5.39269 9.3597C5.13558 9.8937 4.95759 10.4672 4.8587 11.0606C4.79937 11.6934 4.79937 12.3263 4.87848 12.9394ZM17.3383 13.5328C17.1801 13.1965 16.7845 12.5241 16.7845 12.5241L12.2555 20L16.6856 16.9345C16.9428 16.7565 17.1603 16.5192 17.3185 16.2423C17.7141 15.3918 17.7339 14.403 17.3383 13.5328ZM19.1183 11.0803C19.0194 9.63659 18.2876 8.29172 17.1405 7.42151L12.2753 4C12.2753 4 15.3408 8.41038 17.9118 12.801C18.169 13.2559 18.347 13.7701 18.4261 14.3041C18.4656 14.5414 18.4656 14.7787 18.4261 15.0161C18.4854 14.8974 18.6238 14.6403 18.6238 14.6403C18.8809 14.1063 19.0589 13.5328 19.1578 12.9592C19.1974 12.3066 19.1974 11.6934 19.1183 11.0803Z" fill="white"/>
<defs>
<linearGradient id="paint0_linear_5_15740" x1="12" y1="0" x2="12" y2="24" gradientUnits="userSpaceOnUse">
<stop stop-color="#906FFF"/>
<stop offset="1" stop-color="#5184FF"/>
</linearGradient>
</defs>
</svg>
