<svg width="24" height="24" viewBox="0 0 24 24" fill="none" xmlns="http://www.w3.org/2000/svg">
<path d="M21.68 18.9655C22.4061 18.5551 23 17.5476 23 16.7266V7.27339C23 6.45245 22.4061 5.44493 21.68 5.03446L13.32 0.307852C12.5939 -0.102617 11.4061 -0.102617 10.68 0.307852L2.31997 5.03446C1.59394 5.44493 1 6.45245 1 7.27339V16.7266C1 17.5476 1.59394 18.5551 2.31997 18.9655L10.68 23.6921C11.4061 24.1026 12.5939 24.1026 13.32 23.6921L21.68 18.9655Z" fill="url(#paint0_linear_2_4636)"/>
<path fill-rule="evenodd" clip-rule="evenodd" d="M13.4243 13.4506C13.3447 13.4562 12.9337 13.479 12.0169 13.479C11.2877 13.479 10.77 13.4586 10.5883 13.4506C7.7703 13.3353 5.66689 12.8788 5.66689 12.3322C5.66689 11.7857 7.7703 11.3298 10.5883 11.2126V12.996C10.7726 13.0083 11.3003 13.0373 12.0295 13.0373C12.9045 13.0373 13.3427 13.0034 13.4216 12.9966V11.2138C16.2337 11.3304 18.3325 11.7869 18.3325 12.3322C18.3325 12.8776 16.2343 13.334 13.4216 13.45L13.4243 13.4506ZM13.4243 11.0294V9.43356H17.3487V7H6.6639V9.43356H10.5877V11.0288C7.39841 11.1651 5 11.753 5 12.4575C5 13.1619 7.39841 13.7492 10.5877 13.8861V19H13.4236V13.8843C16.6056 13.748 19 13.1607 19 12.4568C19 11.753 16.6076 11.1657 13.4236 11.0288L13.4243 11.0294Z" fill="white"/>
<defs>
<linearGradient id="paint0_linear_2_4636" x1="12" y1="0" x2="12" y2="24" gradientUnits="userSpaceOnUse">
<stop stop-color="#55BB9F"/>
<stop offset="1" stop-color="#329B7F"/>
</linearGradient>
</defs>
</svg>
