<svg width="24" height="24" viewBox="0 0 24 24" fill="none" xmlns="http://www.w3.org/2000/svg">
<path d="M21.68 18.9655C22.4061 18.5551 23 17.5476 23 16.7266V7.27339C23 6.45245 22.4061 5.44493 21.68 5.03446L13.32 0.307852C12.5939 -0.102617 11.4061 -0.102617 10.68 0.307852L2.31997 5.03446C1.59394 5.44493 1 6.45245 1 7.27339V16.7266C1 17.5476 1.59394 18.5551 2.31997 18.9655L10.68 23.6921C11.4061 24.1026 12.5939 24.1026 13.32 23.6921L21.68 18.9655Z" fill="url(#paint0_linear_5_350288)"/>
<g clip-path="url(#clip0_5_350288)">
<mask id="mask0_5_350288" style="mask-type:luminance" maskUnits="userSpaceOnUse" x="6" y="6" width="12" height="14">
<path d="M17.4351 12.3398C17.3338 12.2426 17.2397 11.8868 17.2034 11.7508C16.8451 10.4039 15.6575 9.20453 14.4652 8.46042C14.1552 8.27431 13.8203 8.24269 13.4666 8.31779C13.4096 8.32965 13.3523 8.30198 13.3257 8.25026C11.4882 4.72535 10.9845 5.80085 10.9271 9.1235C10.7734 9.2154 10.5437 9.42424 10.3739 9.33629C7.25757 5.00007 7.82421 10.5933 7.5109 12.7245C7.02784 14.3083 5.97158 16.8707 7.51418 18.1991C7.87926 18.5071 8.44918 18.5687 8.8608 18.7285C8.95092 18.7634 9.03449 18.8128 9.1138 18.8681C10.3991 19.7618 12.1662 20.2572 13.3962 19.0687C13.5148 18.9541 13.642 18.8395 13.7963 18.7818C14.5865 18.4854 14.9522 18.1132 15.3337 17.5841C15.6132 17.1964 15.8915 16.7465 16.2303 16.4487C17.2361 15.5636 17.3692 15.6898 17.6923 14.6732C17.9352 13.9103 18.0669 12.9465 17.4351 12.3401V12.3398Z" fill="white"/>
</mask>
<g mask="url(#mask0_5_350288)">
<path d="M17.4062 12.0308C17.4324 12.0407 17.4593 12.0489 17.4865 12.0555C17.6602 12.2604 17.7936 12.4877 17.8702 12.7462C18.0328 12.905 17.9613 13.0885 17.9243 13.268C17.8286 13.5127 17.7303 13.7562 17.6071 13.9894C17.2849 14.4364 16.814 14.5879 16.2988 14.6073C15.7685 14.6278 15.238 14.6502 14.7077 14.5441C14.2954 14.4614 13.8733 14.5912 13.4551 14.55C13.2857 14.4667 13.2601 14.3112 13.2529 14.1462C13.501 13.7134 14.0401 13.712 14.3747 13.3925C14.5311 13.243 14.7293 13.1293 14.8788 12.963C14.9351 12.9165 14.9954 12.8856 15.0702 12.9185C15.2566 13.4637 15.6637 13.7446 16.2054 13.8626C16.3624 13.8856 16.5102 13.8715 16.6334 13.7582C16.7114 13.6923 16.7743 13.6145 16.8189 13.5216C16.8956 13.3494 16.9516 13.1692 17.0244 12.9956C17.1024 12.77 17.0837 12.5786 16.8399 12.4656C16.6993 12.4004 16.5453 12.3687 16.4099 12.291C16.3371 12.2301 16.2837 12.1612 16.3175 12.0581C16.4856 11.9448 16.7039 11.9774 16.874 11.8671C17.0844 11.814 17.2528 11.8967 17.4055 12.0308H17.4062Z" fill="#FCFCFC"/>
<path d="M17.9063 13.9043C17.9322 14.1876 17.7634 14.4166 17.693 14.6732C17.5104 15.0908 17.3272 15.5075 16.7963 15.5823C15.4972 15.7799 14.1912 15.6689 12.8885 15.6801C12.8341 15.6765 12.7801 15.6666 12.7273 15.6531C12.5051 15.5652 12.2708 15.5902 12.0397 15.5853C11.8857 15.583 11.7359 15.5632 11.6022 15.4789C10.9992 15.2032 10.4286 14.8767 10.0252 14.3322C9.87413 14.128 9.60572 13.9429 9.78531 13.6187C10.018 13.5805 10.0662 13.7956 10.1878 13.9103C10.797 14.7394 11.6281 15.1261 12.6441 15.131C13.7583 15.1366 14.8726 15.1346 15.9868 15.1238C16.5741 15.1178 17.1106 14.9874 17.4495 14.4422C17.5819 14.2752 17.6258 14.0545 17.7756 13.8974C17.8201 13.8753 17.8637 13.8777 17.9057 13.9043H17.9063Z" fill="#D4D4D4"/>
<path d="M16.9022 16.0389C16.8767 16.0418 16.8508 16.0435 16.8252 16.0438C16.5929 16.2467 16.2832 16.1294 16.0282 16.2381C14.6554 16.2872 13.276 16.4009 11.9225 16.0702C10.7295 15.7786 9.78012 15.1702 9.3803 13.9248C9.36358 13.7314 9.36162 13.5377 9.38161 13.3444C9.40553 13.238 9.43765 13.1368 9.55661 13.0986C9.61986 13.123 9.68115 13.1708 9.67591 13.233C9.61134 13.9811 10.1265 14.4159 10.5644 14.8929C11.0025 15.3633 11.5787 15.5474 12.1843 15.6712C13.5814 15.8228 14.9778 15.8926 16.3789 15.7305C16.5981 15.7052 16.8334 15.6643 17.0196 15.8501C16.9806 15.913 16.9416 15.9759 16.9029 16.0389H16.9022Z" fill="#9D9D9D"/>
<path d="M17.0187 15.8501C15.928 15.9318 14.8357 15.9831 13.7428 15.9407C13.1696 15.9186 12.5934 15.8945 12.0324 15.7499C12.0032 15.6841 12.0202 15.6337 12.0832 15.5987C12.5518 15.5082 13.0051 15.6897 13.4767 15.6623C14.6856 15.5918 15.9054 15.7694 17.1072 15.5065C17.159 15.4953 17.1963 15.5371 17.2366 15.5628C17.2278 15.7068 17.1324 15.7852 17.019 15.8497L17.0187 15.8501Z" fill="#AFAFAF"/>
<path d="M17.2366 15.5631C15.6212 15.8958 13.9963 15.7749 12.3718 15.6613C12.2591 15.6534 12.1454 15.6557 12.032 15.6531C11.776 15.6099 11.4604 15.6988 11.3447 15.3438C11.4463 15.3052 11.5463 15.2914 11.6413 15.3612C11.7446 15.5019 11.8969 15.4442 12.0316 15.4584C12.245 15.5901 12.5 15.4294 12.714 15.5559C14.1124 15.601 15.5131 15.7324 16.9042 15.4584C17.309 15.3395 17.4601 14.9653 17.6924 14.6731C17.6583 15.0302 17.5141 15.3312 17.2362 15.5635L17.2366 15.5631Z" fill="#C2C1C1"/>
<path d="M6.66699 15.5559C6.86461 14.8092 6.89476 14.0176 7.26411 13.3167C7.45746 13.315 7.43125 13.4629 7.44665 13.5831C7.42928 13.7291 7.38569 13.8714 7.3811 14.0199C7.3752 14.1188 7.36242 14.2166 7.33916 14.3128C7.26181 14.5532 7.29655 14.8016 7.28934 15.0467C7.29 15.1435 7.28934 15.2404 7.28869 15.3372C7.29262 15.5207 7.25853 15.7078 7.3444 15.883C7.42469 16.0461 7.48598 16.2164 7.54628 16.387C7.71145 16.7905 8.01558 17.0557 8.39803 17.2431C8.71625 17.3953 9.05086 17.4869 9.40185 17.5182C9.60602 17.5926 9.82724 17.5564 10.034 17.6137C10.4299 17.7662 10.7098 18.1065 11.0982 18.2715C11.3 18.3766 11.5003 18.4843 11.71 18.5739C11.9879 18.6888 12.2688 18.7933 12.5667 18.8453C12.6401 18.8565 12.7122 18.8723 12.784 18.8911C13.0461 18.9965 13.366 18.8361 13.5997 19.0683C13.5 19.3618 13.1602 19.4102 13.0071 19.6487C12.9636 19.7281 12.8947 19.7475 12.8108 19.7304C12.1623 19.4722 11.4583 19.402 10.8101 19.1296C10.5433 19.0176 10.2697 18.9283 10.0108 18.7883C9.5703 18.5502 9.12263 18.3361 8.64219 18.1674C7.85434 17.8907 7.23723 17.3465 6.78202 16.6373C6.88493 16.8264 6.93212 17.0267 6.78366 17.2243C6.72402 17.2563 6.69157 17.2385 6.686 17.1716C6.67977 16.6327 6.67322 16.0942 6.66699 15.5553L6.66699 15.5559Z" fill="#372B0B"/>
<path d="M11.8248 5.8153C12.0247 6.03435 12.2246 6.2534 12.4246 6.47213L12.4206 6.49452C12.4744 6.55777 12.4842 6.62563 12.4432 6.69941C12.2741 6.82327 12.1149 6.75212 11.9559 6.67537C11.8943 6.64078 11.8399 6.59631 11.7911 6.54591C11.6557 6.37396 11.54 6.18851 11.4453 5.99021C11.5266 5.83342 11.6675 5.80608 11.8251 5.81497L11.8248 5.8153Z" fill="#F6A844"/>
<path d="M11.4444 5.99048C11.719 6.05504 11.722 6.33141 11.8495 6.5106C11.8685 6.55211 11.8662 6.59262 11.8459 6.63314C11.8033 6.68683 11.7515 6.72208 11.6787 6.71351C11.4955 6.60975 11.43 6.42298 11.351 6.24609C11.3464 6.22501 11.3422 6.20393 11.3379 6.18285C11.3733 6.11861 11.4087 6.05471 11.4441 5.99048H11.4444Z" fill="#B46C2B"/>
<path d="M11.1699 6.597C11.1984 6.46689 11.2269 6.33711 11.2555 6.20699C11.2833 6.19942 11.3112 6.19118 11.339 6.18262L11.3515 6.20666C11.458 6.40233 11.5239 6.59733 11.3423 6.78838C11.1617 6.83549 11.2345 6.65432 11.1699 6.59667V6.597Z" fill="#926819"/>
<path d="M6.79643 17.6909C6.78627 17.5348 6.77611 17.3783 6.76562 17.2222C6.76562 16.9959 6.76562 16.7696 6.76562 16.5222C7.4119 17.266 8.05817 17.968 9.06232 18.1593C9.2796 18.2008 9.43691 18.3458 9.61716 18.4479C10.4761 18.9354 11.3967 19.2473 12.3592 19.446C12.548 19.4848 12.7554 19.4848 12.8105 19.7316C12.6152 19.805 12.4199 19.8785 12.2242 19.9519C11.3911 20.0639 10.5823 20.0036 9.86033 19.5303C9.14163 19.0593 8.31052 18.8475 7.54823 18.4785L7.51316 18.465L7.4758 18.4683C7.46106 18.4397 7.44664 18.411 7.43189 18.3823C7.23689 18.2239 7.06615 18.0388 6.87377 17.877L6.87902 17.8803C6.88492 17.8023 6.89213 17.7239 6.79578 17.6909H6.79643Z" fill="#352B0A"/>
<path d="M12.7079 6.8823C12.9055 7.23805 13.1034 7.59381 13.301 7.94956C13.3142 8.07473 13.3722 8.17816 13.4564 8.26908C13.4892 8.29444 13.519 8.32211 13.5475 8.35176C13.6055 8.44201 13.6445 8.53754 13.6284 8.64789C13.6042 8.73188 13.5665 8.80764 13.4915 8.85903C13.4488 8.87056 13.4066 8.86825 13.3653 8.85277C13.2316 8.76647 13.1765 8.62351 13.1057 8.49208C13.0258 8.32474 12.9458 8.15741 12.8537 7.99633C12.8121 7.92617 12.7616 7.86194 12.7095 7.79902C12.5725 7.58886 12.5604 7.31546 12.37 7.13199C12.3287 7.07632 12.2982 7.01637 12.2939 6.94555C12.3149 6.86978 12.3683 6.82894 12.4404 6.8072C12.5414 6.79007 12.6289 6.8207 12.7075 6.8823H12.7079Z" fill="#F5A63C"/>
<path d="M13.4989 8.22719C13.7929 8.12738 14.0846 8.09576 14.3707 8.25387C14.4329 8.41165 14.6791 8.40309 14.6899 8.60764C14.6718 8.64849 14.6417 8.67583 14.5997 8.69065C14.3884 8.68637 14.1747 8.6643 13.9777 8.77169C13.6959 8.76576 13.6421 8.50059 13.4924 8.34445H13.4917C13.4645 8.31645 13.4566 8.28977 13.4678 8.26441C13.4786 8.2397 13.4891 8.22719 13.4989 8.22719Z" fill="#F5A450"/>
<path d="M15.4625 9.1206C15.7454 9.21613 15.9364 9.40454 16.0351 9.68651C16.0583 9.71187 16.0678 9.73822 16.0636 9.76589C16.059 9.79422 16.0534 9.80872 16.0465 9.80872C15.6218 9.78731 15.4006 9.43979 15.1004 9.21909C14.9975 9.07745 14.8422 8.99312 14.7173 8.87454C14.6645 8.80306 14.6062 8.7329 14.6629 8.63638V8.63572C14.695 8.60114 14.7347 8.58401 14.7812 8.58203C14.8989 8.64528 15.0313 8.6736 15.1502 8.73388H15.1496C15.2436 8.87124 15.3459 9.00169 15.4625 9.12027V9.1206Z" fill="#F6AA4C"/>
<path d="M17.4062 12.0307C17.2001 12.0613 17.0156 11.8666 16.8019 11.9721C16.7547 11.9905 16.7167 11.9783 16.6859 11.9391C16.678 11.8917 16.6905 11.8505 16.7229 11.8149C16.8255 11.7019 17.0133 11.8215 17.1005 11.6736C17.0696 11.4878 16.8933 11.3699 16.8779 11.1798C16.9235 11.0909 16.9854 11.0366 17.0926 11.0761C17.2545 11.3755 17.4003 11.6799 17.4059 12.0307H17.4062Z" fill="#F6A55B"/>
<path d="M17.0921 11.0761C17.0312 11.1074 16.9702 11.1387 16.9092 11.1703C16.8709 11.1479 16.8391 11.1183 16.8136 11.082C16.7185 10.8861 16.4924 10.777 16.4534 10.5428C16.4481 10.4974 16.4524 10.4529 16.4642 10.4091C16.4943 10.3435 16.5429 10.3001 16.6153 10.2859C16.8273 10.5171 16.9741 10.7882 17.0921 11.0764V11.0761Z" fill="#F7B155"/>
<path d="M16.0267 9.80601C16.0293 9.76615 16.0319 9.72662 16.0346 9.68677C16.2263 9.71312 16.3354 9.83862 16.4121 10.0027C16.3947 10.0755 16.3515 10.1206 16.2758 10.1324C16.1122 10.0853 15.972 10.0201 16.0267 9.80634V9.80601Z" fill="#F6AE58"/>
<path d="M14.7608 8.63601C14.7284 8.63601 14.6959 8.63601 14.6635 8.63601C14.6219 8.46571 14.3666 8.45912 14.3712 8.25391C14.5458 8.33 14.728 8.39258 14.8641 8.53587C14.8555 8.59582 14.7985 8.60603 14.7608 8.63568V8.63601Z" fill="#F6AE5D"/>
<path d="M12.7085 6.88225C12.6079 6.87961 12.5073 6.87665 12.4067 6.87401C12.3612 6.81209 12.3644 6.75312 12.4182 6.69778C12.4188 6.63026 12.4195 6.5624 12.4201 6.49487C12.5935 6.56668 12.6348 6.73632 12.7082 6.88225H12.7085Z" fill="#F7AE51"/>
<path d="M16.3207 10.0951C16.3515 10.0641 16.382 10.0332 16.4128 10.0022C16.4806 10.0967 16.5481 10.1913 16.616 10.2855C16.5832 10.3204 16.5504 10.355 16.5176 10.3899C16.3744 10.3435 16.2591 10.2782 16.3207 10.0948V10.0951Z" fill="#F7B159"/>
<path d="M15.4624 9.12043C15.2861 9.04994 15.1632 8.93663 15.1494 8.73438C15.3107 8.81672 15.4424 8.92345 15.4624 9.12043Z" fill="#F7AF63"/>
<path d="M13.4987 8.22715C13.4964 8.26602 13.4937 8.30522 13.4915 8.34408C13.3545 8.2479 13.2073 8.15698 13.301 7.94946C13.3669 8.04202 13.4328 8.13459 13.4987 8.22715Z" fill="#F7B050"/>
<path d="M14.7607 8.63594C14.7952 8.60267 14.8296 8.5694 14.864 8.53613C14.9593 8.60201 15.055 8.66822 15.1504 8.7341C15.0085 8.74925 14.882 8.7038 14.7607 8.63594Z" fill="#F7B15F"/>
<path d="M13.2989 14.0942C13.3655 14.2158 13.4117 14.3423 13.3963 14.4839C13.0112 14.9622 12.4764 14.9158 11.9497 14.897C11.7885 14.8914 11.6393 14.8202 11.4784 14.8136C10.7286 14.6611 10.298 14.1173 9.93517 13.5142C9.79556 13.2823 9.84636 13.0105 10.0014 12.7753C10.1141 12.6389 10.2629 12.6172 10.4261 12.6419C11.0835 12.7974 11.7124 13.0151 12.2217 13.4865C12.2686 13.5326 12.3112 13.5833 12.3525 13.6341C12.3807 13.664 12.4082 13.6953 12.4367 13.725C12.5645 13.8442 12.7284 13.8613 12.8906 13.8837C13.0489 13.9114 13.2065 13.9397 13.2989 14.0939V14.0942Z" fill="#FDFDFD"/>
<path d="M10.0839 12.8261C9.88071 13.2296 9.97739 13.5772 10.2976 13.868C10.6463 14.1846 10.9065 14.6309 11.4456 14.6793C11.9362 14.8796 12.4258 14.9093 12.9535 14.7907C13.8714 14.5845 14.8071 14.541 15.7503 14.599C16.4568 14.6424 17.1582 14.6138 17.5858 13.8993C17.5904 13.6569 17.655 13.4447 17.8798 13.313C17.8726 13.51 17.8657 13.7069 17.8585 13.9039C17.7327 14.0452 17.7648 14.2748 17.5872 14.3868C17.2562 14.9214 16.757 15.1273 16.1504 15.1095C15.003 15.0759 13.8583 15.1599 12.7119 15.1741C11.6068 15.1876 10.741 14.7726 10.081 13.8996C9.98395 13.8018 9.88727 13.7043 9.79026 13.6065C9.77224 13.5877 9.75421 13.5689 9.73619 13.5505C9.67097 13.3479 9.68473 13.1414 9.70669 12.9342C9.74831 12.8248 9.825 12.7632 9.94429 12.7603C9.99804 12.7668 10.0446 12.7889 10.0836 12.8261H10.0839Z" fill="#EAEAEA"/>
<path d="M17.5869 13.8992C17.3781 14.3768 17.054 14.6746 16.4942 14.6831C15.1863 14.7032 13.879 14.7075 12.5822 14.9519C12.2082 15.0224 11.7816 14.9519 11.4463 14.6795C12.1194 14.8459 12.7742 14.8274 13.3962 14.4842C14.2077 14.2352 15.0185 14.5039 15.8303 14.4947C16.4949 14.4875 17.1054 14.4078 17.5865 13.8992H17.5869Z" fill="#FCFCFC"/>
<path d="M16.8893 13.6069C16.887 13.7193 16.8021 13.7611 16.7199 13.8052C16.5747 13.9225 16.3715 13.8616 16.2227 13.968C15.8852 13.8543 15.5211 13.7927 15.2635 13.5144C15.1124 13.3513 14.9836 13.1728 15.0635 12.9271C15.0468 12.8315 15.0763 12.7498 15.1379 12.6777C15.2117 12.6197 15.2867 12.571 15.3805 12.6402C15.6053 13.1721 16.1673 13.2163 16.5842 13.4706C16.6796 13.5285 16.8084 13.5147 16.8896 13.6069H16.8893Z" fill="#191918"/>
<path d="M15.1613 12.7328C15.1387 12.8026 15.1725 12.9004 15.064 12.9274L14.9546 13.0207C14.287 13.4271 13.702 14.027 12.8211 13.9354C12.6664 13.8514 12.4806 13.8804 12.3249 13.8C12.3246 13.7694 12.3233 13.7384 12.3213 13.7078C12.3423 13.6828 12.3659 13.6452 12.3917 13.6452C13.2782 13.6472 13.9589 13.1126 14.7101 12.7614C14.8526 12.6949 15.0027 12.6059 15.1617 12.7324L15.1613 12.7328Z" fill="#EEEEED"/>
<path d="M16.8896 13.607C16.3266 13.6551 15.4539 13.1136 15.3447 12.6482C15.3703 12.5437 15.4362 12.4986 15.5427 12.5124C15.6862 12.6179 15.7278 12.8003 15.8517 12.9202C15.8966 12.9621 15.9454 12.9993 15.9985 13.0303C16.0359 13.0477 16.0723 13.0672 16.1087 13.0859C16.2781 13.1795 16.4515 13.218 16.6343 13.1241C16.77 13.0708 16.8791 12.94 17.0473 12.9815C17.0643 12.9947 17.0813 13.0082 17.0984 13.0217C17.0656 13.2299 17.0004 13.4269 16.8896 13.6074V13.607Z" fill="#1D1D1D"/>
<path d="M12.811 13.8984C13.5497 13.8698 14.1164 13.4264 14.7331 13.1033C14.8023 13.067 14.8803 13.0476 14.954 13.0203C14.5237 13.5657 13.903 13.8177 13.298 14.0938C13.1358 14.0612 12.9733 14.0286 12.811 13.9963C12.7861 13.9745 12.7779 13.9528 12.7865 13.9311C12.7947 13.9093 12.8028 13.8984 12.8114 13.8984H12.811Z" fill="#F9F9F9"/>
<path d="M16.4172 12.2419C16.5794 12.2805 16.742 12.3193 16.9042 12.3579C16.9324 12.4096 16.9222 12.4524 16.8741 12.486C16.7603 12.5529 16.6342 12.5568 16.5077 12.5608C16.3579 12.5598 16.2068 12.5661 16.0669 12.4965C16.021 12.4689 15.9974 12.428 15.9961 12.3743C16.0312 12.2689 16.1174 12.2238 16.213 12.1895C16.2884 12.177 16.3576 12.1895 16.4169 12.2416L16.4172 12.2419Z" fill="#1D1A19"/>
<path d="M16.9049 12.4345C16.9049 12.4088 16.9042 12.3831 16.9042 12.3574C17.2054 12.5093 17.2837 12.7267 17.0986 13.0212L17.0838 13.0116C16.9786 12.9563 16.917 12.8693 16.897 12.7524C16.88 12.646 16.8331 12.5386 16.9049 12.4345Z" fill="#1F1C1A"/>
<path d="M16.2236 13.9679C16.3147 13.6856 16.5497 13.8438 16.7208 13.8052C16.614 14.0391 16.4085 13.9726 16.2236 13.9679Z" fill="#0E0E0D"/>
<path d="M16.4169 12.2418C16.3615 12.2474 16.3061 12.2533 16.2504 12.2589C16.0816 12.3123 15.9538 12.2823 15.9043 12.0906C15.9675 11.9388 16.094 11.9562 16.2202 11.9727C16.2694 11.9885 16.3067 12.0188 16.333 12.0633C16.3608 12.1229 16.3887 12.1822 16.4165 12.2418H16.4169Z" fill="#FCFCFC"/>
<path d="M16.7058 11.9391C16.7376 11.95 16.7694 11.9608 16.8012 11.972C16.6894 12.2306 16.4924 12.0508 16.3328 12.0633L16.3201 12.0495C16.2883 11.9015 16.3977 11.8884 16.496 11.8643C16.5754 11.8627 16.6442 11.8907 16.7055 11.9391H16.7058Z" fill="#FCFCFC"/>
<path d="M9.49496 13.9006C10.0098 15.2996 11.1408 15.8283 12.5022 16.0457C13.6744 16.2331 14.8529 16.1014 16.0278 16.1396C16.2766 16.0671 16.5253 16.0674 16.7741 16.1396C16.7809 16.1593 16.7885 16.1788 16.7967 16.1979C16.6761 16.3534 16.5188 16.4364 16.3208 16.4383L16.2746 16.436L16.23 16.4485C16.1278 16.4759 16.0652 16.5681 15.9711 16.6096C15.7951 16.6785 15.6041 16.6475 15.4242 16.6943C14.6527 16.8395 13.878 16.9278 13.0927 16.8349C12.9158 16.7875 12.7378 16.7457 12.552 16.7588C12.5009 16.7608 12.4494 16.7602 12.3983 16.7588C12.064 16.7536 11.7425 16.6913 11.4397 16.5454C10.6708 16.2628 10.0593 15.7828 9.60901 15.096C9.51037 14.9455 9.42221 14.7936 9.38124 14.6174C9.34978 14.4511 9.2862 14.2903 9.29472 14.1167C9.29931 14.0413 9.31996 13.9711 9.36453 13.9092C9.40549 13.8693 9.44875 13.8667 9.49464 13.9013L9.49496 13.9006Z" fill="#6D6D6C"/>
<path d="M9.49704 14.5819C9.8654 15.4969 10.5461 16.08 11.4532 16.4219C11.6387 16.745 12.0025 16.7948 12.2899 16.9572C12.7697 17.2283 13.2865 17.4045 13.8328 17.5004C14.3418 17.59 14.7908 17.4944 15.1844 17.1519C15.3295 17.0254 15.4757 16.8831 15.6986 16.9763C15.7146 16.9937 15.7304 17.0115 15.7461 17.0293C15.6445 17.1871 15.5432 17.3449 15.4416 17.5027C15.2892 17.5853 15.2129 17.7603 15.0477 17.8278C13.9892 18.3446 13.0604 17.8867 12.1477 17.4157C11.8019 17.2372 11.449 17.0843 11.0947 16.9279C10.259 16.5589 9.49933 16.0991 9.3299 15.0888C9.29876 14.9024 9.18013 14.6639 9.49638 14.5815L9.49704 14.5819Z" fill="#DD8614"/>
<path d="M15.0664 18.0025C15.0254 18.2812 14.7944 18.3711 14.5873 18.4851C14.5397 18.5164 14.4876 18.5299 14.4309 18.5256C14.1439 18.5108 13.8555 18.5279 13.5694 18.5039C13.3635 18.4867 13.1459 18.467 13.083 18.2067C13.2207 18.0381 13.3943 18.1 13.5687 18.1221C13.9341 18.1682 14.3018 18.2084 14.6413 18.0052C14.757 17.9383 14.8757 17.8885 15.011 17.9478C15.0297 17.966 15.048 17.9844 15.0667 18.0025H15.0664Z" fill="#C87913"/>
<path d="M13.6001 19.0686C13.3006 19.0255 12.9843 19.1483 12.6982 18.9757C12.7785 18.8555 12.909 18.8229 13.0345 18.7807C13.1928 18.7396 13.3543 18.7392 13.5166 18.7402C13.6559 18.7468 13.7955 18.7524 13.8954 18.872L13.6001 19.0686Z" fill="#82644F"/>
<path d="M14.4659 18.4765C14.5062 18.4791 14.5462 18.4821 14.5865 18.4847C14.4691 18.6577 14.2997 18.743 14.0985 18.7753C14.027 18.8244 13.9497 18.8204 13.8704 18.8016C13.6967 18.6798 13.3604 18.9396 13.2979 18.5575C13.5977 18.3948 13.93 18.5368 14.2387 18.4564C14.3171 18.4317 14.3941 18.4225 14.4655 18.4762L14.4659 18.4765Z" fill="#AA691D"/>
<path d="M15.4404 16.5527C15.6377 16.5382 15.835 16.5237 16.0323 16.5095C16.09 16.6482 15.9658 16.7338 15.9343 16.8468C15.8714 16.9078 15.8081 16.9684 15.7452 17.0293L15.7318 17.0165C15.6253 16.9097 15.5486 16.778 15.4404 16.6726C15.4162 16.6327 15.4152 16.5929 15.4404 16.553V16.5527Z" fill="#DD871C"/>
<path d="M15.0529 17.7C15.1875 17.6443 15.2734 17.4925 15.4415 17.5027C15.3737 17.7122 15.2606 17.8884 15.0656 18.0024L15.046 17.9918C14.9703 17.8927 14.9817 17.7959 15.0529 17.7Z" fill="#D98421"/>
<path d="M16.7736 16.1394C16.5248 16.1394 16.2761 16.1394 16.0273 16.1394C16.2748 15.9556 16.5596 16.0847 16.824 16.0439C16.8073 16.0758 16.7903 16.1074 16.7736 16.1394Z" fill="#6E7082"/>
<path d="M13.8787 18.7651C13.9521 18.7687 14.0255 18.772 14.0986 18.7757C14.057 18.8633 13.9757 18.8672 13.8951 18.8722C13.7607 18.8709 13.6264 18.8692 13.4923 18.8679C13.4582 18.8191 13.4645 18.7763 13.511 18.7394C13.6352 18.7269 13.7604 18.6979 13.8787 18.7654V18.7651Z" fill="#885A34"/>
<path d="M15.9346 16.8466C15.967 16.7343 15.9998 16.6219 16.0326 16.5096C16.084 16.4428 16.1558 16.4408 16.2302 16.4484C16.145 16.591 16.0837 16.7514 15.9346 16.8466Z" fill="#D39454"/>
<path d="M10.0814 13.8995C10.2495 14.0507 10.4189 14.1999 10.5851 14.3534C11.0803 14.8109 11.6587 15.0531 12.3378 15.0708C13.7313 15.1074 15.1185 14.9005 16.5126 14.9707C16.9885 14.9948 17.2585 14.6357 17.5873 14.3867C17.3356 15.0794 16.7398 15.2372 16.1161 15.253C14.856 15.285 13.5913 15.3179 12.3345 15.2448C11.392 15.1898 10.5608 14.8017 10.0811 13.8992L10.0814 13.8995Z" fill="#E9E9E9"/>
<path d="M11.6413 15.3612C11.5436 15.3612 11.4457 15.3616 11.348 15.3619C10.9741 15.414 10.7446 15.1452 10.4739 14.9683C10.2832 14.7311 10.0928 14.4939 9.90141 14.2571C9.63301 13.9247 9.54911 13.542 9.59106 13.1246C9.53469 13.0554 9.53928 12.985 9.58549 12.9131C9.63759 12.8907 9.6838 12.8996 9.72379 12.9398C9.78081 13.1586 9.68053 13.3931 9.79064 13.6065C9.93976 14.2979 10.472 14.6702 11.0013 15.0358C11.1966 15.1705 11.4266 15.2545 11.641 15.3616L11.6413 15.3612Z" fill="#C6C6C6"/>
<path d="M16.9042 15.4586C16.7367 15.6022 16.5342 15.6506 16.3228 15.6513C15.2065 15.6549 14.0906 15.6529 12.9744 15.6529C12.8751 15.6529 12.7801 15.6434 12.7139 15.5558C14.111 15.5327 15.5103 15.6243 16.9042 15.4583V15.4586Z" fill="#C6C6C6"/>
<path d="M12.7145 15.5556C12.4878 15.5184 12.2377 15.6452 12.0322 15.4581C12.259 15.495 12.5087 15.3701 12.7145 15.5556Z" fill="#C6C6C6"/>
<path d="M9.60753 12.9467C9.60196 13.006 9.59671 13.0653 9.59114 13.1246C9.55313 13.1901 9.51511 13.2554 9.47742 13.3209C9.43678 13.3818 9.45776 13.4589 9.42597 13.5225C9.39778 13.5442 9.36665 13.5597 9.33355 13.5719C9.25522 13.6101 9.24539 13.7537 9.11561 13.7135C9.0776 13.6842 9.04974 13.6487 9.02942 13.6055C8.94225 13.1572 9.09628 12.7431 9.22311 12.3304C9.32208 12.0076 9.41384 11.6812 9.53969 11.3659C9.61179 11.274 9.69634 11.2131 9.8212 11.2549C9.99031 11.3695 10.0237 11.5441 9.98965 11.722C9.90871 12.1436 9.85627 12.5765 9.60786 12.9467H9.60753Z" fill="#C97A14"/>
<path d="M10.4736 14.9681C10.7915 15.0406 11.0104 15.3324 11.3477 15.3617C11.5178 15.5946 11.8212 15.5146 12.0316 15.6529C12.0316 15.6852 12.0316 15.7178 12.0316 15.7501C11.4375 15.6381 10.8866 15.4401 10.4736 14.9678V14.9681Z" fill="#A9A9A9"/>
<path d="M9.3912 13.5066C9.42004 13.4447 9.44888 13.3824 9.47739 13.3208C9.48329 13.5142 9.48919 13.7075 9.49509 13.9009C9.46461 13.8996 9.43446 13.8982 9.40398 13.8976C9.27879 13.7711 9.30533 13.64 9.3912 13.5066Z" fill="#747A82"/>
<path d="M7.56161 12.5361C7.55702 11.6582 7.55243 10.7804 7.54784 9.90286C7.49672 9.84159 7.48852 9.78296 7.55899 9.72959C7.62519 9.39953 7.69171 9.0698 7.75791 8.73975C8.03615 8.80563 7.93423 9.07639 8.02993 9.24109C8.07056 9.47991 8.07384 9.7263 8.15151 9.95688C8.45203 10.8502 8.21673 11.6724 7.83001 12.4771C7.80085 12.5232 7.76054 12.5558 7.70974 12.5753C7.65501 12.5832 7.60552 12.57 7.56161 12.5361Z" fill="#41300C"/>
<path d="M7.93638 8.33594C7.93113 8.0912 8.02716 7.89718 8.22674 7.75488C8.2664 7.78321 8.29622 7.81945 8.3185 7.86227C8.37946 8.13139 8.54201 8.37975 8.49121 8.67259C8.47417 8.71278 8.44697 8.74539 8.41158 8.76976C8.2333 8.91536 8.48761 9.2945 8.10942 9.33337C7.92032 9.19831 7.96096 8.97234 7.89213 8.78953C7.84527 8.6324 7.8669 8.48187 7.93638 8.33627V8.33594Z" fill="#9C6532"/>
<path d="M7.56128 12.536C7.58422 12.5301 7.60782 12.5281 7.63141 12.5294C7.74612 12.6217 7.75202 12.7452 7.73104 12.8763C7.68811 13.0179 7.65927 13.1688 7.50262 13.2386C7.36694 13.2258 7.4079 13.0924 7.35547 13.0222C7.38922 12.8453 7.40233 12.6599 7.56128 12.536Z" fill="#533F0E"/>
<path d="M7.93642 8.33578C7.94002 8.50114 7.94363 8.66683 7.94723 8.83218C7.99934 8.96493 8.02097 9.09669 7.93248 9.22384C7.7637 9.10196 7.92724 8.86117 7.75879 8.73929C7.77255 8.58481 7.7837 8.429 7.93674 8.33545L7.93642 8.33578Z" fill="#5C4510"/>
<path d="M8.23148 7.86716C8.22984 7.82961 8.2282 7.79239 8.22656 7.75484C8.22722 7.72387 8.22984 7.69324 8.2341 7.6626C8.26654 7.66129 8.29932 7.6603 8.33176 7.65898C8.42516 7.58256 8.50185 7.62868 8.57657 7.69192C8.63458 7.76801 8.6703 7.85069 8.64834 7.94918C8.59591 8.03021 8.51758 8.07007 8.42615 8.08918C8.26786 8.09774 8.31046 7.92942 8.23148 7.86716Z" fill="#E89536"/>
<path d="M7.35543 13.0225C7.44064 13.0653 7.45146 13.147 7.46195 13.2283C7.55699 13.3927 7.59795 13.5423 7.3574 13.616C7.34855 13.5093 7.37346 13.3917 7.26367 13.3166C7.29415 13.2185 7.32496 13.1203 7.35543 13.0225Z" fill="#40300C"/>
<path d="M7.45803 16.4347C7.39085 16.2717 7.32366 16.1086 7.25648 15.9456C7.13883 15.7608 7.27942 15.5358 7.16472 15.3504C7.16472 15.2598 7.16439 15.1689 7.16406 15.0783C7.28598 14.826 7.1349 14.5427 7.2532 14.29L7.2804 14.0081C7.55405 14.1023 7.47835 14.3424 7.48097 14.5321C7.48753 14.9831 7.52751 15.4261 7.66778 15.8563C7.75757 16.0783 7.83328 16.3073 7.96732 16.5095C7.80018 16.8353 7.77068 16.831 7.4577 16.4347H7.45803Z" fill="#8D5B30"/>
<path d="M7.45801 16.4349C7.62777 16.4187 7.69626 16.9118 7.93878 16.5307C7.82571 16.3341 7.68348 16.1443 7.78344 15.8956C8.01219 15.7375 8.05447 15.979 8.16556 16.0735C8.21603 16.1503 8.257 16.2329 8.29698 16.3159C8.34385 16.4177 8.38285 16.5218 8.37924 16.6364C8.33041 16.8315 8.42643 17.0222 8.39923 17.2168C8.38547 17.2603 8.35991 17.2952 8.32451 17.3232C7.91584 17.1441 7.60811 16.8664 7.45801 16.4349Z" fill="#895B35"/>
<path d="M7.64702 15.9456C7.29275 15.6524 7.43826 15.2242 7.3596 14.8579C7.29996 14.5803 7.43531 14.2802 7.28062 14.0078C7.23212 13.8625 7.29013 13.738 7.35829 13.6158C7.48021 13.51 7.44612 13.3621 7.46284 13.2281C7.52248 13.1233 7.58213 13.0186 7.64177 12.9138C7.80728 13.0779 7.73518 13.2745 7.71682 13.4636C7.66537 13.9916 7.51003 14.5144 7.64472 15.0506C7.64833 15.3487 7.82727 15.6468 7.64702 15.9456Z" fill="#905E30"/>
<path d="M11.0613 18.3715C10.6893 18.2147 10.3825 17.9627 10.083 17.7005C10.2328 17.5407 10.4412 17.5931 10.6234 17.5506C10.7217 17.5417 10.8125 17.5668 10.8997 17.6096C11.0033 17.6705 11.0898 17.744 11.0832 17.8797C11.1507 17.9522 10.8561 17.8833 11.0347 18.0131C11.1661 18.1086 11.2822 18.2358 11.0613 18.3715Z" fill="#835B3E"/>
<path d="M8.32422 17.3232C8.32553 17.2864 8.32717 17.2495 8.32848 17.2126C8.4517 16.8268 8.66735 17.0795 8.85513 17.1348C9.07569 17.1918 9.26807 17.3223 9.49092 17.375C9.61349 17.3997 9.74556 17.4046 9.81045 17.54C9.69673 17.7301 9.53942 17.65 9.38834 17.6082C8.99868 17.6441 8.65358 17.5127 8.32422 17.3232Z" fill="#886043"/>
<path d="M12.5243 18.9579C12.2146 18.9089 11.922 18.8077 11.6418 18.6691C11.592 18.5719 11.4694 18.4971 11.5461 18.3604C11.6611 18.2919 11.7703 18.3341 11.8797 18.3769C12.0777 18.4806 12.2864 18.5558 12.5063 18.5999C12.6132 18.6358 12.7226 18.6671 12.8118 18.7412C12.8383 18.7801 12.8455 18.8226 12.836 18.8684C12.7498 18.9586 12.6135 18.8763 12.5247 18.9579H12.5243Z" fill="#856147"/>
<path d="M11.546 18.3781C11.5781 18.4752 11.6102 18.5724 11.6423 18.6696C11.4486 18.5704 11.2549 18.471 11.0613 18.3718C11.1501 18.2371 11.0727 18.1498 10.9806 18.0572C10.8781 17.9538 10.9289 17.9041 11.0544 17.8965C11.2756 17.9986 11.5332 18.0635 11.546 18.3784V18.3781Z" fill="#856045"/>
<path d="M9.38867 17.6082C9.52501 17.5845 9.68362 17.6501 9.78981 17.5068C10.1028 17.3582 10.3902 17.4386 10.6675 17.6059C10.4951 17.7772 10.2778 17.6692 10.0828 17.7005C9.85207 17.6646 9.60366 17.7641 9.389 17.6082H9.38867Z" fill="#815C41"/>
<path d="M7.25332 14.29C7.22743 14.5532 7.32673 14.8303 7.16418 15.078C7.19498 14.8154 7.06652 14.5348 7.25332 14.29Z" fill="#40300C"/>
<path d="M7.16433 15.3503C7.31312 15.5305 7.23578 15.7456 7.2561 15.9456C7.08044 15.7697 7.18596 15.5503 7.16433 15.3503Z" fill="#40300C"/>
<path d="M12.5244 18.9579C12.5962 18.8489 12.7109 18.8746 12.8144 18.8663C12.8797 18.8107 12.9426 18.8186 13.0045 18.8723C12.9301 18.9889 12.8059 18.9579 12.6981 18.9757C12.6401 18.9698 12.5824 18.9638 12.5244 18.9579Z" fill="#906D57"/>
<path d="M10.948 8.63887C10.9516 8.5081 10.9552 8.37733 10.9588 8.24623C10.9621 8.09405 10.9657 7.94186 10.969 7.78935C11.0614 7.59402 10.9624 7.37628 11.0397 7.17897C11.083 6.98496 11.1259 6.79094 11.1692 6.59692C11.2023 6.65852 11.2351 6.72012 11.2682 6.78172C11.392 6.91249 11.377 7.07851 11.3865 7.23859C11.3796 7.42009 11.3809 7.60061 11.4415 7.77552C11.4927 8.00741 11.4625 8.25117 11.5474 8.47846C11.6218 9.14055 11.5222 9.2341 10.9411 9.04898C10.8362 8.9103 10.8756 8.77426 10.948 8.63854V8.63887Z" fill="#693E13"/>
<path d="M8.62141 7.95205C8.5893 7.88716 8.55751 7.82226 8.52539 7.75737C8.65582 7.61112 8.78691 7.75869 8.91768 7.75638C8.94848 7.76001 8.97929 7.76429 9.00977 7.76989C9.06122 7.81271 9.06941 7.87563 9.08777 7.93393C9.11562 8.18428 9.50955 8.26399 9.39157 8.58318C9.27981 8.68002 9.15724 8.73108 9.00911 8.67212C8.82198 8.46361 8.69286 8.22347 8.62109 7.95238L8.62141 7.95205Z" fill="#F4A238"/>
<path d="M9.01075 7.95411C9.01075 7.89251 9.01009 7.83091 9.00977 7.76931C9.04057 7.76338 9.07203 7.76042 9.10349 7.76108C9.17461 7.94521 9.42761 7.95015 9.48464 8.14845C9.22836 8.32303 9.13037 8.11222 9.01075 7.95411Z" fill="#F7B04D"/>
<path d="M8.91703 7.75601C8.78659 7.86175 8.65517 7.71253 8.52474 7.757C8.48279 7.67992 8.41069 7.66181 8.33105 7.65884C8.56308 7.47009 8.73907 7.61964 8.91735 7.75601H8.91703Z" fill="#F5A654"/>
<path d="M11.8121 6.60512C11.8245 6.5735 11.837 6.54188 11.8498 6.51025C11.8789 6.5343 11.9081 6.55835 11.9373 6.58206C12.0343 6.68286 12.0805 6.80408 12.0838 6.94309C12.071 7.07221 12.0766 7.19969 12.1182 7.32453C12.1631 7.85882 12.2909 8.34765 12.8198 8.62039C12.8562 8.78443 12.7314 8.83153 12.6239 8.89214C12.5226 8.92673 12.422 8.92541 12.3217 8.88687C12.1254 8.78476 12.0297 8.59799 11.9261 8.41748C11.7184 8.08413 11.6915 7.71355 11.7036 7.33474C11.6987 7.08539 11.6948 6.83603 11.8124 6.60512H11.8121Z" fill="#D8A58C"/>
<path d="M12.0259 6.98011C11.962 6.85526 11.9099 6.72778 11.9371 6.58252C12.0973 6.62073 12.2576 6.65927 12.4178 6.69781C12.4139 6.75677 12.4103 6.81541 12.4064 6.87437C12.3815 6.90863 12.3569 6.94255 12.332 6.97681C12.3002 7.01272 12.2618 7.03709 12.215 7.04862C12.1412 7.05521 12.076 7.03808 12.0256 6.98043L12.0259 6.98011Z" fill="#FAD0B5"/>
<path d="M11.2692 7.27495C11.2692 7.11058 11.2686 6.9462 11.2686 6.78183C11.4154 6.60725 11.3239 6.39841 11.3515 6.20703C11.5828 6.28543 11.5589 6.56871 11.7382 6.68861C11.7608 6.71233 11.7716 6.73802 11.771 6.76635C11.7703 6.79567 11.7674 6.81016 11.7618 6.81016C11.7267 7.03284 11.7238 7.25518 11.7693 7.4772C11.7516 7.61587 11.7326 7.75455 11.7365 7.89488C11.7103 8.07967 11.6848 8.26611 11.4337 8.07802C11.3633 7.95351 11.4488 7.78881 11.3312 7.67615C11.2676 7.54901 11.3413 7.40078 11.2692 7.27495Z" fill="#B05E2A"/>
<path d="M11.7388 6.7845C11.7388 6.75255 11.7388 6.7206 11.7385 6.68832C11.7634 6.66032 11.7883 6.63265 11.8129 6.60498C11.8201 6.85994 11.8277 7.11489 11.8352 7.36985C11.7808 7.40575 11.7366 7.39587 11.7031 7.33987C11.7041 7.15409 11.6494 6.96436 11.7392 6.7845H11.7388Z" fill="#846556"/>
<path d="M16.3201 10.0951C16.3857 10.1936 16.4515 10.2918 16.5171 10.3903C16.5164 10.4229 16.5154 10.4555 16.5148 10.4881C16.2936 10.5596 16.1798 10.2717 15.9642 10.3241C15.9223 10.3096 15.8892 10.2835 15.8662 10.2457C15.801 9.95085 15.5863 9.7878 15.3396 9.65341C14.982 9.39022 14.5907 9.23046 14.1385 9.23803C13.9772 9.24067 13.8235 9.18829 13.6741 9.1267C13.5626 9.0618 13.4529 8.99559 13.4912 8.83649C13.4955 8.75579 13.5105 8.68069 13.5898 8.63721C13.6973 8.64808 13.7648 8.7268 13.8448 8.78478C13.9123 8.83616 13.9956 8.84605 14.0732 8.87042C14.4665 8.81113 14.8263 8.88986 15.1498 9.12406C15.4421 9.35135 15.7348 9.57863 16.0271 9.80625C16.0914 9.93636 16.1877 10.0345 16.3204 10.0955L16.3201 10.0951Z" fill="#F4A030"/>
<path d="M13.4914 8.83621L13.6808 9.03023C13.7926 9.09248 13.889 9.1834 14.0187 9.21304C14.1967 9.22391 14.371 9.25191 14.5359 9.32109C14.6293 9.36029 14.7083 9.4232 14.6922 9.53586C14.6765 9.64653 14.5814 9.70649 14.4861 9.70649C14.0548 9.70649 13.6176 9.69858 13.2099 9.55101C13.009 9.47821 12.9717 9.26443 13.011 9.05691C13.0464 8.96995 13.1077 8.84939 13.2017 8.9436C13.4567 9.19855 13.2846 8.77988 13.397 8.82929C13.4285 8.83028 13.46 8.83259 13.4914 8.83588V8.83621Z" fill="#FAC27E"/>
<path d="M12.8147 8.63815C12.231 8.59434 12.1671 8.1154 12.0446 7.69837C12.0056 7.56629 12.0331 7.41509 12.0301 7.27246C12.3159 7.29255 12.2533 7.56727 12.3579 7.71979C12.4775 7.89437 12.4411 8.20269 12.7659 8.19972C12.8147 8.11704 12.8236 8.01196 12.9098 7.95234C13.053 8.08871 13.1093 8.27252 13.1818 8.44776C13.1565 8.53604 13.1657 8.64738 13.0366 8.66582C12.9714 8.59072 12.8845 8.68526 12.815 8.63848L12.8147 8.63815Z" fill="#EBB498"/>
<path d="M13.0169 8.6379C13.0716 8.57433 13.1267 8.51108 13.1814 8.44751C13.2532 8.57499 13.325 8.70246 13.3968 8.82961C13.343 9.00452 13.6891 9.16659 13.4983 9.27068C13.2158 9.42484 13.2558 9.02956 13.1054 8.92712C13.0294 8.88594 12.9917 8.8171 12.9684 8.73738C12.9642 8.69423 12.9812 8.66162 13.0169 8.63757V8.6379Z" fill="#F9D49E"/>
<path d="M12.4252 7.06812C12.7218 7.21272 12.6494 7.5576 12.8093 7.776C12.8506 7.96837 13.002 8.23057 12.5839 8.13307C12.4633 8.05566 12.4259 7.9407 12.4357 7.80465C12.5616 7.5576 12.2522 7.31615 12.4249 7.06812H12.4252Z" fill="#F8CBAE"/>
<path d="M12.4254 7.06789C12.3743 7.30934 12.7633 7.4915 12.5188 7.7593C12.2137 7.57846 12.0774 7.33339 12.2219 6.98093C12.2589 6.97928 12.2957 6.97797 12.3327 6.97632C12.3635 7.00695 12.3943 7.03726 12.4254 7.06789Z" fill="#FBD5BA"/>
<path d="M13.7852 8.83232C13.72 8.7671 13.6551 8.70221 13.5898 8.63699C13.5574 8.53949 13.5246 8.44198 13.4922 8.34448C13.6551 8.47427 13.8176 8.60405 13.9805 8.7335C13.9871 8.90841 13.8979 8.89359 13.7852 8.83199V8.83232Z" fill="#F6AA54"/>
<path d="M12.6158 8.05225C12.9507 8.14942 12.7557 7.87569 12.8092 7.77588C12.8927 7.80618 12.9029 7.87832 12.9094 7.95211C12.9094 8.08288 12.9091 8.21332 12.9088 8.34409C12.6446 8.41393 12.5476 8.31577 12.6158 8.05225Z" fill="#F7C4A6"/>
<path d="M13.7852 8.83238C13.8651 8.82908 13.9385 8.81261 13.9805 8.73389C14.1624 8.38341 14.4272 8.613 14.6625 8.63671C14.6949 8.70161 14.7277 8.76617 14.7601 8.83106C14.5009 8.8696 14.2515 8.98753 13.9802 8.92922C13.9002 8.92692 13.8274 8.91012 13.7852 8.83238Z" fill="#F5A349"/>
<path d="M13.9798 8.92912C14.2341 8.85039 14.4927 8.8079 14.7598 8.83096C14.9017 8.91265 15.079 8.94724 15.1491 9.12413C14.7818 8.92352 14.36 9.051 13.9795 8.92912H13.9798Z" fill="#F5A63C"/>
<path d="M16.7063 11.9393C16.6427 11.9439 16.5791 11.9485 16.5156 11.9531C16.3802 11.876 16.2347 11.8329 16.1056 11.7255C15.1607 10.9389 14.1186 10.5614 12.8906 11.0057C12.6373 11.0973 12.3741 11.2001 12.0906 11.1158C11.9628 11.0538 11.892 10.9583 11.9114 10.8101C12.554 10.454 13.1495 9.98361 13.9341 9.9701C14.1792 9.96582 14.424 9.96945 14.6039 10.177C14.8429 10.507 15.202 10.4438 15.537 10.4603C15.7405 10.7577 16.0335 10.9563 16.314 11.1708C16.4805 11.2982 16.6312 11.4445 16.6991 11.6537C16.7194 11.7195 16.7201 11.7871 16.7138 11.8549C16.7119 11.8829 16.7092 11.9109 16.7063 11.9389V11.9393Z" fill="#F29525"/>
<path d="M16.6116 11.7547C16.5139 11.3064 16.082 11.1789 15.7903 10.922C15.6491 10.7974 15.5186 10.7045 15.5357 10.5006C15.5649 10.4213 15.6333 10.3801 15.6969 10.334C15.7648 10.2928 15.8326 10.2493 15.9181 10.2819L15.9339 10.2981C16.157 10.6802 16.6581 10.7151 16.9016 11.0718C16.9043 11.1044 16.9066 11.1374 16.9092 11.17C17.073 11.3311 17.2212 11.5 17.1986 11.7537C17.0029 11.8298 16.8073 11.8285 16.6113 11.7543L16.6116 11.7547Z" fill="#F3992C"/>
<path d="M16.6113 11.7548C16.807 11.7548 17.0026 11.7542 17.1986 11.7542C17.077 11.9811 16.8676 11.7851 16.7132 11.8553C16.6792 11.8217 16.6454 11.7884 16.6113 11.7548Z" fill="#F49622"/>
<path d="M16.9023 11.0722C16.6761 10.9588 16.4529 10.8386 16.2229 10.7342C16.0302 10.6466 15.8991 10.531 15.9345 10.2981C16.2635 9.9466 16.2973 10.499 16.5152 10.4878C16.5562 10.7408 16.898 10.7945 16.9023 11.0718V11.0722Z" fill="#F49D2F"/>
<path d="M9.60775 12.9468C9.60414 12.5759 9.75391 12.2366 9.83519 11.8838C9.88369 11.6723 9.91352 11.4809 9.79783 11.2886C9.83224 11.138 9.9299 11.0985 10.0695 11.1334C10.2183 11.4954 10.5126 11.6279 10.8803 11.6433C10.9898 11.7603 10.9613 11.9286 11.037 12.0577C11.1071 12.2004 11.2569 12.2287 11.3801 12.2949C11.6292 12.4784 11.8415 12.7488 12.2122 12.6358C12.2774 12.6358 12.339 12.6487 12.396 12.6793C12.4285 12.7033 12.4498 12.736 12.4596 12.7738C12.7123 12.8651 12.9499 12.8104 13.1829 12.7014C13.2298 12.6905 13.2743 12.6961 13.3179 12.7159C13.4559 12.904 13.4723 13.1092 13.4057 13.3269C13.0803 13.6998 12.6589 13.683 12.2256 13.6178C11.7081 13.1731 11.0897 12.9339 10.4474 12.7432C10.296 12.6355 10.1895 12.6513 9.9866 12.8124C9.91974 12.845 9.81946 12.816 9.79062 12.9188C9.77128 12.9553 9.74113 12.9702 9.70017 12.9629C9.671 12.9474 9.64019 12.9418 9.60742 12.9464L9.60775 12.9468Z" fill="#E98E1B"/>
<path d="M12.2256 13.6182C12.6788 13.6515 13.0813 13.5263 13.4293 13.2315C13.4509 13.0411 13.6083 12.9805 13.7472 12.9097C14.1854 12.686 14.6347 12.488 15.103 12.3352C15.199 12.3223 15.2947 12.3227 15.3904 12.3398C15.4373 12.351 15.4809 12.3698 15.5209 12.3965C15.5461 12.4215 15.5569 12.4485 15.5526 12.4775C15.5487 12.5071 15.5428 12.522 15.5356 12.522C15.472 12.5641 15.4084 12.6059 15.3449 12.6481C15.2836 12.6764 15.2226 12.7044 15.1613 12.7328C14.7556 12.8141 14.3938 13.0187 14.0651 13.24C13.5257 13.6034 12.9581 13.7588 12.321 13.7081C12.2892 13.6781 12.2574 13.6482 12.2256 13.6182Z" fill="#E1E1E0"/>
<path d="M9.98666 12.8127C10.0997 12.4994 10.3553 12.6592 10.5533 12.6589C10.5785 12.6589 10.4904 12.7191 10.4471 12.7435C10.3291 12.7844 10.1846 12.7089 10.084 12.8262C10.0515 12.8216 10.0188 12.8173 9.98633 12.8127H9.98666Z" fill="#E7860C"/>
<path d="M12.8112 13.8983C12.8112 13.9309 12.8112 13.9636 12.8112 13.9962C12.6395 13.9537 12.4586 13.9349 12.3242 13.7998C12.4881 13.8249 12.6746 13.7382 12.8112 13.8983Z" fill="#FCFCFC"/>
<path d="M9.70028 12.9633C9.73043 12.9485 9.76058 12.934 9.79073 12.9192C9.79073 13.1481 9.79073 13.3774 9.79073 13.6066C9.60491 13.4139 9.72486 13.1784 9.70028 12.9633Z" fill="#D4D4D4"/>
<path d="M16.0271 13.1197C15.9953 13.1187 15.9635 13.118 15.9317 13.1177C15.7426 12.7593 15.9094 12.5867 16.2506 12.5057C16.302 12.5043 16.3384 12.5284 16.3613 12.5739C16.305 12.8212 16.4387 12.9237 16.6592 12.9599C16.7055 12.9843 16.7333 13.0222 16.7438 13.0736C16.7284 13.1276 16.6937 13.1595 16.6389 13.1704C16.4272 13.2442 16.225 13.2089 16.0274 13.1197H16.0271Z" fill="#32302F"/>
<path d="M15.5352 12.5218C15.5391 12.4941 15.5424 12.4664 15.5453 12.4388C15.6866 12.3021 15.836 12.2098 16.0274 12.3521C16.0274 12.3805 16.0267 12.4088 16.0267 12.4371C16.0087 12.6479 15.8252 12.8034 15.8317 13.0221C15.6312 12.9157 15.5715 12.7257 15.5352 12.5218Z" fill="#242220"/>
<path d="M15.8323 13.0223C15.7064 12.7637 15.9132 12.6158 16.0273 12.4373C16.1898 12.4376 16.3527 12.4379 16.5152 12.4382C16.5146 12.6013 16.4326 12.5997 16.3196 12.5351C16.0407 12.63 15.8749 12.7996 15.9316 13.1178C15.8985 13.0858 15.8654 13.0539 15.8319 13.0219L15.8323 13.0223Z" fill="#272523"/>
<path d="M16.0267 13.1197C16.2541 13.1194 16.4812 13.1191 16.7087 13.1184C16.7369 13.1401 16.7464 13.1619 16.7369 13.1836C16.7277 13.2054 16.7182 13.2162 16.7087 13.2162C16.4557 13.3641 16.2273 13.3384 16.0264 13.1194L16.0267 13.1197Z" fill="#272523"/>
<path d="M16.709 13.2165C16.709 13.1839 16.709 13.1513 16.709 13.1187C16.7096 13.0867 16.71 13.0544 16.7106 13.0225C16.7532 12.871 16.7808 12.7046 17.001 12.7287C17.0285 12.8229 17.056 12.9174 17.0836 13.0116C16.9587 13.0798 16.8338 13.1483 16.7093 13.2165H16.709Z" fill="#252321"/>
<path d="M16.0281 12.3522C15.8675 12.3812 15.7066 12.4102 15.546 12.4389C15.505 12.4352 15.4637 12.432 15.4228 12.4283C15.3805 12.3681 15.3772 12.3032 15.3988 12.235C15.4287 12.1704 15.4726 12.1174 15.5267 12.0716C15.6037 12.0113 15.6882 11.9711 15.7885 11.9724C15.8613 11.9836 15.9317 11.9981 15.9399 12.0914C16.0173 12.1958 16.1326 12.2297 16.2509 12.259C16.1765 12.29 16.1025 12.3213 16.0281 12.3522Z" fill="#DBD9D6"/>
<path d="M17.001 12.7287C16.9043 12.8266 16.8073 12.9247 16.7106 13.0225C16.6772 13.0222 16.6438 13.0216 16.6104 13.0212C16.5615 12.9771 16.5507 12.9204 16.556 12.8592C16.5645 12.7574 16.4848 12.7383 16.4147 12.7099C16.3777 12.6899 16.3465 12.6632 16.3193 12.6312C16.3193 12.5993 16.3193 12.5673 16.3197 12.535C16.3993 12.5317 16.4721 12.5149 16.5153 12.4382C16.6451 12.4369 16.7749 12.4359 16.9047 12.4346C16.9368 12.5327 16.9689 12.6306 17.001 12.7287Z" fill="#353332"/>
<path d="M15.9391 12.0915C15.87 12.0704 15.8005 12.049 15.7314 12.0279C15.5901 11.938 15.4561 11.8411 15.3791 11.6856C15.3011 11.5255 15.1221 11.5769 15.0009 11.5078C14.2907 11.1257 13.5612 10.9913 12.7841 11.3032C12.5626 11.3921 12.323 11.4699 12.1048 11.2739C12.071 11.2027 12.0687 11.1352 12.128 11.0753C12.6445 10.9458 13.1558 10.7393 13.6788 10.703C14.6833 10.6335 15.5593 10.9942 16.2662 11.7308C16.3432 11.8108 16.4317 11.8796 16.515 11.9538C16.4501 11.986 16.3852 12.018 16.3203 12.0503C16.1931 12.0641 16.0663 12.0783 15.9395 12.0921L15.9391 12.0915Z" fill="#F09320"/>
<path d="M15.0531 17.6999C15.0508 17.7971 15.0486 17.8943 15.0463 17.9918C14.9407 17.9957 14.8277 17.9773 14.7592 18.0896C13.9756 18.3367 13.2428 18.1674 12.5156 17.8475C11.8516 17.5553 11.2273 17.19 10.5476 16.9199C9.32681 16.4347 8.95681 15.6606 9.11281 14.2821C9.13673 14.2057 9.17868 14.1414 9.24488 14.0943C9.29437 14.0643 9.3409 14.0683 9.38482 14.1062C9.42218 14.265 9.45954 14.4234 9.4969 14.5822C9.22751 15.0802 9.74761 16.0039 10.2382 16.3178C10.6331 16.5704 11.0431 16.7822 11.4852 16.945C12.0591 17.1558 12.5677 17.5053 13.1379 17.7372C13.8012 18.0069 14.42 17.9638 15.0535 17.7006L15.0531 17.6999Z" fill="#D68213"/>
<path d="M15.4406 16.5527C15.4409 16.5781 15.4416 16.6035 15.4422 16.6288C15.552 16.7728 15.4999 16.8877 15.3947 17.0132C14.8323 17.6832 12.8952 17.5584 12.4078 16.8159C12.3692 16.7573 12.3826 16.6944 12.4223 16.6374C12.4563 16.6384 12.4901 16.6394 12.5242 16.6404C12.6841 16.7286 12.8719 16.6295 13.0318 16.7161C13.8384 16.7148 14.6465 16.7356 15.4409 16.5527H15.4406Z" fill="#E48A15"/>
<path d="M12.4218 16.6373C12.9573 17.4549 14.5943 17.4503 15.1773 17.1004C15.3569 16.9927 15.4651 16.8484 15.4421 16.6287C15.6931 16.6426 15.7449 16.8053 15.7321 17.0164C15.5994 17.0131 15.4726 17.0273 15.3766 17.1347C14.8611 17.7108 14.2004 17.7592 13.52 17.5827C12.8475 17.4081 12.218 17.1064 11.6235 16.7434C11.5189 16.6795 11.3262 16.6248 11.4527 16.4219C11.7634 16.5494 12.0826 16.6383 12.4221 16.6373H12.4218Z" fill="#E18814"/>
<path d="M9.38433 14.1059C9.35844 14.0986 9.3319 14.0937 9.30502 14.0904C9.13035 13.8973 9.23587 13.7066 9.30994 13.5156C9.33714 13.5139 9.36434 13.511 9.39089 13.5063C9.39515 13.6368 9.39941 13.7669 9.40367 13.8973C9.39711 13.9668 9.39089 14.0364 9.38433 14.1059Z" fill="#A0763F"/>
<path d="M13.0321 16.7161C12.8603 16.7066 12.6755 16.787 12.5244 16.6404C12.6981 16.6364 12.8754 16.6078 13.0321 16.7161Z" fill="#E18814"/>
<path d="M9.59748 11.3838C9.58666 11.9688 9.23272 12.4649 9.17176 13.0433C9.14882 13.2624 9.11408 13.4821 9.10819 13.7041C9.11212 13.7278 9.11638 13.7515 9.12064 13.7749C9.09639 14.4584 8.95383 15.1479 9.23075 15.8146C9.25402 15.8541 9.27467 15.8953 9.29335 15.9368C9.53488 16.4803 9.93471 16.8255 10.5312 16.926C11.473 17.1747 12.2674 17.7238 13.1038 18.1872C13.3113 18.4363 13.599 18.3645 13.8667 18.3852C14.068 18.4007 14.2885 18.3052 14.4662 18.4765C14.4013 18.4781 14.3367 18.4797 14.2718 18.4817C13.3732 18.6995 12.5926 18.3898 11.8437 17.9392C11.8008 17.9191 11.7598 17.8944 11.7205 17.8681C11.5779 17.7557 11.4255 17.6592 11.2558 17.5904C11.2125 17.5729 11.1712 17.5525 11.1299 17.5317C10.675 17.3147 10.1592 17.2758 9.70825 17.0462C9.00561 16.6223 8.73196 15.9631 8.68542 15.1798C8.63135 14.2677 8.79095 13.3813 9.00299 12.5011C9.12719 12.146 9.23108 11.7827 9.41231 11.449C9.46049 11.3894 9.50965 11.3318 9.59748 11.3838Z" fill="#C17412"/>
<path d="M13.1038 18.1875C12.5122 18.116 12.0823 17.701 11.5795 17.4467C11.2194 17.2645 10.8539 17.1298 10.4728 17.0178C9.90977 16.8267 9.48045 16.4779 9.20582 15.9459C8.91873 15.2097 9.01049 14.457 9.10815 13.7043C9.1406 13.7043 9.17272 13.7043 9.20516 13.7043C9.27923 13.8667 9.27857 14.0291 9.20582 14.1919C9.2104 14.5143 9.19697 14.8385 9.22351 15.1593C9.2943 16.0138 9.83341 16.5415 10.576 16.804C11.1876 17.0201 11.7483 17.3172 12.3113 17.6173C13.0835 18.0284 13.8854 18.2316 14.7591 18.0903C14.2275 18.4662 13.6593 18.2201 13.1034 18.1881L13.1038 18.1875Z" fill="#CF7D12"/>
<path d="M13.0042 18.8725C12.941 18.8705 12.8774 18.8685 12.8142 18.8665C12.8119 18.8356 12.8099 18.8046 12.8086 18.7736C12.9128 18.657 13.0462 18.6488 13.1881 18.6702C13.2858 18.715 13.4024 18.7058 13.4926 18.7733C13.4926 18.8046 13.4926 18.8362 13.4919 18.8675C13.3293 18.8692 13.1668 18.8705 13.0042 18.8721V18.8725Z" fill="#7D532E"/>
<path d="M13.4928 18.7735C13.3964 18.7729 13.2998 18.7719 13.2034 18.7712C13.0356 18.6994 12.855 18.6938 12.6781 18.6681C12.4464 18.57 12.1717 18.5785 11.9774 18.3875C11.6946 18.0884 11.2561 17.9804 11.025 17.6167C11.0175 17.5683 11.0267 17.5235 11.0522 17.4816C11.123 17.4546 11.1912 17.4513 11.2521 17.5057C11.3989 17.6295 11.589 17.6806 11.7395 17.7982C12.2242 18.1279 12.7593 18.3569 13.2984 18.5779C13.4466 18.7808 13.7281 18.571 13.8792 18.7653C13.7504 18.7679 13.6219 18.7709 13.4931 18.7735H13.4928Z" fill="#9B5E16"/>
<path d="M13.2982 18.5775C12.6956 18.4837 12.1715 18.2327 11.7393 17.7979C11.9034 17.8637 12.0811 17.9079 12.2299 17.9991C12.8597 18.3845 13.5349 18.5594 14.2719 18.482C13.9632 18.6767 13.6217 18.5341 13.2982 18.5779V18.5775Z" fill="#AF6A15"/>
<path d="M9.59798 11.3839C9.56292 11.4066 9.52818 11.4293 9.49311 11.4524C9.42527 11.5367 9.33318 11.5654 9.22929 11.5674C9.1785 11.5683 9.12868 11.5614 9.07952 11.5489C9.03036 11.5354 8.98547 11.5133 8.94352 11.4847C8.55582 11.0426 8.57942 10.4774 8.48438 9.94704C8.51453 9.6687 8.45488 9.38377 8.54533 9.10971C8.56794 9.05964 8.60531 9.02538 8.65643 9.00562C8.81177 9.05568 8.81964 9.1914 8.84028 9.31986C8.85864 9.53924 8.82128 9.76422 8.90157 9.978C8.98186 10.2254 9.02545 10.482 9.08477 10.734C9.17161 11.1721 9.42298 11.1773 9.74874 10.986C9.91227 10.9089 10.0588 10.7653 10.2646 10.8509C10.3504 11.0459 10.2354 11.1082 10.0735 11.1391C9.98142 11.1889 9.88966 11.2389 9.79757 11.2887C9.73104 11.3206 9.66418 11.3523 9.59766 11.3839H9.59798Z" fill="#725748"/>
<path d="M9.2054 14.1912C9.2054 14.0288 9.20507 13.8661 9.20474 13.7037C9.25226 13.648 9.10249 13.4823 9.30962 13.5153C9.30798 13.707 9.30634 13.8987 9.3047 14.0904C9.2716 14.124 9.2385 14.1576 9.2054 14.1912Z" fill="#D9810C"/>
<path d="M7.54886 15.0689C7.28602 14.4858 7.56787 13.9153 7.59081 13.3388C7.59638 13.1969 7.62358 13.0559 7.64095 12.9142C7.638 12.7861 7.63505 12.658 7.63177 12.5298C7.66553 12.5308 7.69929 12.5315 7.73304 12.5325C7.93721 12.2851 7.9028 11.8256 8.3721 11.8137C8.6995 12.1326 8.40717 12.4748 8.39898 12.8042C8.39472 12.9739 8.27149 13.1307 8.24724 13.3072C8.23741 13.356 8.22299 13.4034 8.20726 13.4502C8.13286 13.685 8.08108 13.9262 8.01193 14.1627C7.95098 14.3903 7.89756 14.6189 7.85397 14.8508C7.82611 14.9984 7.78482 15.1861 7.54886 15.0692V15.0689Z" fill="#966233"/>
<path d="M8.32855 11.8521C8.02966 11.9908 7.9828 12.3499 7.7334 12.532C7.74585 12.4526 7.737 12.3617 7.77371 12.2962C8.2535 11.444 8.22105 10.5609 7.95691 9.65668C7.91758 9.52162 7.93855 9.36878 7.93134 9.22418C7.93626 9.09373 7.94118 8.96296 7.94609 8.83252C8.00869 8.99458 8.07095 9.15665 8.13322 9.31871C8.44391 9.90406 8.53403 10.5589 8.7051 11.1864C8.78539 11.4816 8.56779 11.6937 8.32789 11.8525L8.32855 11.8521Z" fill="#905D2F"/>
<path d="M8.32879 11.8522C8.69879 11.4111 8.58966 10.9714 8.39302 10.4839C8.24686 10.1209 8.13314 9.72593 8.13379 9.31846C8.32092 9.15376 8.17771 8.92417 8.24882 8.73707C8.25308 8.7262 8.27275 8.71533 8.28553 8.71533C8.29995 8.71533 8.31437 8.72686 8.32879 8.73345C8.5736 9.12181 8.47954 9.58758 8.61948 9.99999C8.70338 10.4997 8.70862 11.0205 9.01177 11.4612C8.86003 12.0877 8.62964 12.6853 8.35632 13.2676C8.30388 13.349 8.26095 13.4458 8.13379 13.4113C8.21441 13.0232 8.28979 12.6342 8.3786 12.2481C8.4117 12.1045 8.47004 11.9688 8.32846 11.8519L8.32879 11.8522Z" fill="#905E30"/>
<path d="M8.2308 7.86719C8.297 7.92681 8.36287 7.9861 8.42907 8.04572C8.67388 8.18473 8.78072 8.42256 8.87641 8.66862C8.88297 8.71243 8.88067 8.75558 8.87183 8.79906C8.83315 8.91171 8.74893 8.97364 8.63881 9.00724L8.61981 9.02964C8.39826 9.03359 8.41268 8.88207 8.42448 8.73285C8.35992 8.4443 8.29536 8.15574 8.23047 7.86719H8.2308Z" fill="#B16D1C"/>
<path d="M8.42506 8.73291C8.49028 8.83173 8.55517 8.93088 8.62039 9.0297C8.62039 9.35317 8.61973 9.67697 8.6194 10.0004C8.44866 9.59528 8.29168 9.18682 8.32871 8.7339C8.36083 8.7339 8.39295 8.73357 8.42506 8.73291Z" fill="#8A582A"/>
<path d="M8.8328 8.74181C8.6981 8.50991 8.56341 8.27801 8.42871 8.04578C8.47066 7.96936 8.54309 7.95553 8.62076 7.9519C8.86983 8.11595 8.93832 8.38309 9.01763 8.64463C9.0314 8.68515 9.02386 8.72105 8.99502 8.75268C8.93865 8.78496 8.88392 8.79089 8.83312 8.74181H8.8328Z" fill="#EB9123"/>
<path d="M7.54892 15.0687C7.84322 15.0189 7.69082 14.7686 7.75702 14.6158C7.83076 14.4455 7.79045 14.2366 7.93858 14.094C8.01134 14.1539 8.04214 14.235 8.05656 14.3246C7.96677 14.8299 8.07623 15.3635 7.84125 15.8484C7.87369 16.0757 7.90614 16.3033 7.93858 16.5306C7.68558 16.4133 7.61971 16.2028 7.64625 15.9459C7.6243 15.6524 7.5014 15.3701 7.54892 15.0687Z" fill="#915F34"/>
<path d="M9.4023 17.4978C9.20633 17.4029 9.01067 17.308 8.81469 17.2132C8.65018 17.0198 8.30508 16.9776 8.32671 16.6288C8.29492 16.531 8.26281 16.4332 8.23102 16.3356C8.16121 16.0909 8.03274 15.8557 8.04585 15.5968C8.05765 15.361 8.15761 15.2473 8.3608 15.4835C8.66656 16.2092 8.96447 16.9411 9.8018 17.2313C9.87882 17.258 9.9247 17.3304 9.8975 17.4243C9.74052 17.5034 9.55634 17.3993 9.40198 17.4978H9.4023Z" fill="#7A4B1D"/>
<path d="M7.84159 15.8485C7.79505 15.3238 7.90222 14.8086 7.93893 14.2892C8.02839 14.0022 8.05101 13.7005 8.13359 13.412C8.21225 13.3701 8.22896 13.2973 8.23093 13.2173C8.51965 13.269 8.4256 13.5068 8.4587 13.6834C8.46656 13.9087 8.40921 14.1212 8.32892 14.329C8.16506 14.9223 8.05297 15.5211 8.1313 16.141C8.03462 16.0435 7.93794 15.9464 7.84126 15.8489L7.84159 15.8485Z" fill="#8D5B30"/>
<path d="M8.13198 16.1408C7.97566 15.5133 7.97697 14.894 8.23226 14.2886C8.51837 14.5379 8.55868 15.066 8.32862 15.5558C8.26569 15.5696 8.13198 15.2988 8.15099 15.5719C8.16836 15.8246 8.25226 16.0749 8.23161 16.3355C8.15296 16.2936 8.13657 16.2202 8.13231 16.1405L8.13198 16.1408Z" fill="#7E4E1E"/>
<path d="M8.32684 16.6289C8.48939 16.8236 8.65227 17.0186 8.81482 17.2133C8.65259 17.2291 8.49103 16.9609 8.3288 17.2126C8.33273 17.0179 8.10693 16.8242 8.32684 16.6289Z" fill="#855B39"/>
<path d="M11.0577 17.602C11.3818 17.8299 11.7059 18.0576 12.0304 18.2855C11.9773 18.3596 11.917 18.4262 11.8377 18.4736C11.7403 18.4416 11.643 18.41 11.5457 18.3781C11.4385 18.1597 11.1396 18.1366 11.0541 17.8962C11.021 17.801 10.9531 17.739 10.8627 17.6995C10.8365 17.6728 10.8276 17.6461 10.8361 17.6191C10.8447 17.5921 10.8529 17.5786 10.8614 17.5786C10.9318 17.5437 10.9977 17.5457 11.0574 17.602H11.0577Z" fill="#7A4D20"/>
<path d="M10.8633 17.5986C10.8633 17.6322 10.8627 17.6658 10.8627 17.6994C10.7975 17.6682 10.7326 17.6369 10.6674 17.6059C10.3665 17.6454 10.0837 17.5285 9.78971 17.5067C9.66059 17.5038 9.53147 17.5008 9.40234 17.4979C9.54195 17.3453 9.72581 17.431 9.88967 17.4069C10.316 17.2235 10.5979 17.2791 10.8637 17.599L10.8633 17.5986Z" fill="#794E26"/>
<path d="M11.8379 18.4735C11.8415 18.349 11.908 18.2884 12.0306 18.2854C12.2154 18.4824 12.475 18.5058 12.7129 18.5802C12.7218 18.7611 12.6271 18.7324 12.5186 18.6767C12.2626 18.7064 12.0489 18.5954 11.8382 18.4738L11.8379 18.4735Z" fill="#734821"/>
<path d="M12.5176 18.6763C12.5966 18.6724 12.6696 18.6576 12.7119 18.5798C12.8859 18.6171 13.0646 18.6424 13.2029 18.7709C13.0714 18.7719 12.9397 18.7725 12.8083 18.7735C12.7018 18.7692 12.588 18.787 12.5176 18.6763Z" fill="#7D5129"/>
<path d="M9.87928 8.63623C9.91238 8.66983 9.94515 8.70343 9.97825 8.73703C10.2057 8.84145 10.3424 9.06445 10.5593 9.18238C10.6222 9.40307 10.7953 9.53582 10.9578 9.67713C11.3773 10.081 11.3793 10.1449 10.9781 10.3004C10.9041 10.3 10.8326 10.2852 10.7645 10.2559C10.5183 10.0942 10.3165 9.89026 10.1739 9.63003C10.0549 9.36849 9.83864 9.17085 9.70329 8.92182C9.59612 8.72451 9.6207 8.69684 9.87961 8.63623H9.87928Z" fill="#F49F25"/>
<path d="M9.87961 8.63629C9.66462 8.67153 9.71313 8.76541 9.80653 8.89882C9.96974 9.13204 10.2126 9.31386 10.2762 9.61263C10.1821 9.66632 10.0985 9.62383 10.0143 9.58496C9.75704 9.33198 9.45226 9.11721 9.33067 8.75224C9.32379 8.67944 9.34182 8.61455 9.39098 8.55921C9.34837 8.30458 8.98787 8.2499 9.01081 7.9541C9.16222 8.03546 9.28348 8.18929 9.4847 8.14845C9.61612 8.31117 9.74787 8.47357 9.87961 8.63629Z" fill="#F5A636"/>
<path d="M10.9385 9.11878C10.9411 9.08683 10.9503 9.05686 10.966 9.02886C11.5231 9.16062 11.49 8.80783 11.4445 8.44516C11.3783 8.3134 11.3757 8.18164 11.4471 8.05087C11.6886 8.16089 11.6329 7.97511 11.6424 7.85422C11.8849 7.84631 11.7866 8.05976 11.8269 8.16616C11.957 8.50906 12.0744 8.85032 12.446 9.01338C12.5096 9.15172 12.4611 9.25845 12.3516 9.34772C12.2051 9.42743 12.056 9.35562 11.9079 9.35628C11.7624 9.34541 11.6156 9.3464 11.4707 9.32334C11.3285 9.29304 11.1872 9.25878 11.0496 9.21069C11.0034 9.19092 10.9667 9.15996 10.9385 9.11845V9.11878Z" fill="#B85823"/>
<path d="M11.4469 8.0509C11.4459 8.18233 11.4452 8.31376 11.4442 8.44519C11.2755 8.23635 11.3803 7.98732 11.3436 7.75905C11.3184 7.73467 11.3115 7.71195 11.3223 7.69119C11.3328 7.6711 11.343 7.66089 11.3525 7.66089C11.4904 7.76531 11.4334 7.91683 11.4469 8.05123V8.0509Z" fill="#B15A28"/>
<path d="M11.353 7.66096C11.3501 7.69357 11.3471 7.72651 11.3442 7.75912C11.2029 7.61583 11.2698 7.43993 11.2691 7.2749C11.3884 7.3836 11.3354 7.52986 11.3534 7.66063L11.353 7.66096Z" fill="#926819"/>
<path d="M9.391 8.55908C9.39199 8.61804 9.39264 8.67668 9.39362 8.73564C9.30809 8.83084 9.20256 8.8338 9.08917 8.80317C9.04722 8.78505 9.01641 8.7554 8.99609 8.71456C9.00232 8.69084 9.00986 8.66745 9.01838 8.6444C9.14259 8.61607 9.26712 8.58741 9.39133 8.55908H9.391Z" fill="#F6C193"/>
<path d="M12.4292 9.04402C11.9278 9.04237 11.9039 8.61843 11.7679 8.2943C11.7085 8.15299 11.8023 7.96754 11.6427 7.85455C11.6246 7.7139 11.6695 7.58873 11.7367 7.46882C11.7105 7.44445 11.7026 7.42106 11.7128 7.39866C11.723 7.37659 11.7325 7.36572 11.742 7.36572C11.7728 7.36737 11.8039 7.36902 11.8347 7.37033C11.8134 7.74321 11.898 8.09633 12.035 8.43957C12.0917 8.59933 12.1434 8.76271 12.3299 8.822C12.424 8.82266 12.5184 8.82365 12.6124 8.82431C12.676 8.77819 12.7432 8.77951 12.8123 8.81047C12.8513 8.88854 12.8156 8.94585 12.7609 8.99823C12.6583 9.07037 12.5521 9.12044 12.4289 9.04402H12.4292Z" fill="#7B5947"/>
<path d="M12.6159 8.05218C12.6257 8.23796 12.723 8.33513 12.9089 8.34403C12.6467 8.57032 12.53 8.32887 12.4399 8.16681C12.2806 7.88122 12.1643 7.57191 12.0299 7.27249C11.9113 7.1763 11.906 7.07913 12.0263 6.97998C12.0915 6.98031 12.1567 6.98064 12.2219 6.98097C12.1826 7.29324 12.3566 7.52415 12.5189 7.75934C12.5221 7.86673 12.5028 7.98136 12.6162 8.05185L12.6159 8.05218Z" fill="#F2BC9F"/>
<path d="M12.3299 8.82164C12.0605 8.82625 12.0284 8.64772 12.0349 8.43921C12.1332 8.56669 12.2316 8.69416 12.3299 8.82164Z" fill="#A97D65"/>
<path d="M12.8152 8.83051C12.748 8.82853 12.6805 8.82623 12.6133 8.82425C12.6805 8.76232 12.7476 8.7004 12.8152 8.63814C12.8827 8.62496 12.9502 8.53273 13.0177 8.63781C13.0125 8.66647 13.0088 8.69545 13.0069 8.72477C13.0026 8.76397 12.9889 8.79922 12.9636 8.83018C12.9476 8.84138 12.9315 8.85225 12.9154 8.86345C12.8751 8.87399 12.8414 8.86411 12.8152 8.83084V8.83051Z" fill="#A97D65"/>
<path d="M11.7415 7.3654C11.7399 7.39999 11.7379 7.43424 11.7363 7.46883C11.5917 7.24023 11.5862 7.01228 11.7379 6.78467C11.7392 6.97836 11.7402 7.17204 11.7415 7.36573V7.3654Z" fill="#8C6143"/>
<path d="M15.9185 10.2821C15.8631 10.3298 15.808 10.3776 15.7527 10.4254C15.5141 10.4158 15.2725 10.5528 15.0389 10.4346C14.8105 10.319 14.6512 10.1444 14.6879 9.85846C14.7305 9.71286 14.8285 9.61569 14.9605 9.54882C15.129 9.48854 15.2847 9.54882 15.441 9.60251C15.713 9.74975 15.9942 9.89041 15.9185 10.2821Z" fill="#F0EFED"/>
<path d="M15.4409 9.60277C15.2796 9.61166 15.1184 9.62023 14.9572 9.62912C14.6868 9.26349 14.2555 9.32113 13.8842 9.22067C13.8163 9.15709 13.7485 9.09352 13.6807 9.03027C14.2837 9.17027 14.9624 9.07837 15.4409 9.60277Z" fill="#F5A63C"/>
<path d="M13.8848 9.22067C14.2036 9.20519 14.5166 9.22496 14.8178 9.34815C14.9548 9.40415 15.0361 9.47299 14.9577 9.62913C14.8892 9.68743 14.8208 9.74574 14.7523 9.80371C14.7162 9.83863 14.6756 9.86729 14.6307 9.88969C13.7625 9.79119 13.0058 10.0475 12.3215 10.5814C12.1816 10.6908 11.9886 10.7801 11.7818 10.7339C11.7336 10.7105 11.708 10.672 11.7051 10.6186C11.7572 10.4299 11.9243 10.3759 12.0744 10.3021C12.1849 10.2484 12.313 10.2306 12.4107 10.1433C12.4729 10.1381 12.3989 10.1186 12.3926 10.1239C12.2914 10.2082 12.1944 10.1799 12.1082 10.0903C12.1013 9.95392 12.1999 9.88376 12.2992 9.84456C12.7695 9.65943 12.9186 9.29018 12.9098 8.82309C12.9419 8.79048 12.974 8.7582 13.0065 8.72559C13.0396 8.79311 13.0727 8.86031 13.1058 8.92784C13.0347 9.39888 13.2477 9.58005 13.7035 9.51483C14.0028 9.47201 14.3029 9.72268 14.6487 9.5313C14.4009 9.32147 14.087 9.40843 13.8844 9.22133L13.8848 9.22067Z" fill="#F4A453"/>
<path d="M11.7359 10.6788C12.0148 10.6989 12.2649 10.5761 12.4399 10.4015C13.0793 9.76409 13.8533 9.71962 14.674 9.82042C14.65 9.98314 14.7284 10.1749 14.5406 10.2915C14.2197 9.93834 13.8127 10.0589 13.4696 10.1749C12.9419 10.3534 12.4464 10.6268 11.9371 10.86C11.8673 10.9776 11.7457 10.9796 11.6317 10.9997C11.4383 10.9937 11.3145 11.1446 11.1542 11.2138C11.1083 11.2243 11.0624 11.2276 11.0156 11.2237C10.757 11.1515 10.4168 11.2286 10.3241 10.8498C10.3162 10.7444 10.3647 10.6624 10.4326 10.5886C10.4725 10.5596 10.5174 10.5435 10.5663 10.5388C10.9468 10.6591 11.3518 10.5803 11.7353 10.6788H11.7359Z" fill="#F39C40"/>
<path d="M11.5508 10.8764C11.6796 10.8708 11.8087 10.8652 11.9375 10.8596C12.0014 10.9311 12.065 11.0029 12.1289 11.0744C12.1345 11.138 12.14 11.2015 12.1453 11.2651C12.1961 11.3297 12.2135 11.4038 12.2059 11.4848C12.1728 11.6515 12.0866 11.7806 11.9369 11.8649C11.7006 11.9713 11.5187 11.885 11.4109 11.6752C11.2614 11.3837 11.3375 11.1136 11.5508 10.8761V10.8764Z" fill="#FBFAF8"/>
<path d="M14.54 10.2912C14.5453 10.1229 14.5617 9.95787 14.6734 9.82018C14.7003 9.81788 14.7262 9.81228 14.7517 9.80371C14.8003 10.4694 15.3171 10.3818 15.7523 10.4253C15.6802 10.4507 15.6081 10.4757 15.536 10.5011C15.1562 10.6588 14.816 10.6279 14.5404 10.2916L14.54 10.2912Z" fill="#7A7A79"/>
<path d="M11.948 11.7564C12.0087 11.6586 12.0693 11.5604 12.1299 11.4626C12.3649 11.5864 12.6025 11.565 12.8558 11.5107C13.4487 11.3832 14.0304 11.4115 14.5734 11.7218C14.6314 11.7874 14.6655 11.8677 14.7094 11.9419C14.7556 12.0067 14.8159 12.0578 14.8785 12.1062C14.9097 12.1309 14.9392 12.1576 14.9687 12.184C15.0342 12.2531 15.1542 12.2808 15.1447 12.4086C14.5774 12.6916 13.9698 12.8909 13.4297 13.2311C13.3087 13.0796 13.3097 12.8958 13.294 12.7166C13.1632 12.3882 12.9541 12.3002 12.65 12.5074C12.5438 12.5522 12.4157 12.5312 12.3239 12.6171C12.3059 12.6478 12.2879 12.6781 12.2705 12.709C11.8579 12.8517 11.5636 12.6982 11.3506 12.3411C11.3811 12.2054 11.5056 12.1576 11.5951 12.0772C11.717 11.9748 11.8589 11.8944 11.9487 11.7564H11.948Z" fill="#EC8F1B"/>
<path d="M10.381 10.7845C10.4416 11.2009 10.903 10.9469 11.0649 11.1937C11.1488 11.2856 11.0951 11.3765 11.0643 11.4677C11.0492 11.504 11.0295 11.5382 11.0073 11.5705C10.9686 11.6173 10.9217 11.6509 10.8591 11.6571C10.3276 11.8123 10.1208 11.6759 10.0732 11.139C10.1381 11.051 10.203 10.9634 10.2676 10.8755C10.2587 10.7869 10.2938 10.7529 10.381 10.7845Z" fill="#E98E1F"/>
<path d="M12.2702 12.7094C12.2509 12.6824 12.2312 12.6554 12.2119 12.6284C12.246 12.3553 12.518 12.5803 12.6137 12.4363C12.7566 12.2048 12.9611 12.2094 13.1803 12.296C13.4019 12.3833 13.3324 12.5559 13.2941 12.717C13.2629 12.7278 13.2318 12.739 13.2007 12.7499C13.1541 12.7802 13.104 12.802 13.0502 12.8155C12.833 12.8191 12.6098 12.8715 12.4072 12.743L12.2706 12.7094H12.2702Z" fill="#191B1B"/>
<path d="M10.9537 11.5524C10.9521 11.5234 10.9576 11.4957 10.9707 11.4697C11.1575 11.4516 11.1441 11.6103 11.1729 11.7151C11.2119 11.8557 11.2591 11.977 11.4168 12.0162C11.5026 12.0465 11.5914 12.0722 11.64 12.1598C11.5433 12.2204 11.4466 12.281 11.3496 12.3416C11.1936 12.3281 11.0382 12.3136 10.954 12.1512C10.8888 11.9516 10.8895 11.7523 10.9534 11.5527L10.9537 11.5524Z" fill="#5F6974"/>
<path d="M13.1131 12.7385C13.1429 12.7352 13.1718 12.7385 13.1996 12.7497C12.9974 13.093 12.6874 12.8752 12.4236 12.897C12.421 12.897 12.4111 12.8709 12.4134 12.8591C12.4164 12.8449 12.4288 12.8327 12.4374 12.8196C12.6533 12.7148 12.8975 12.8456 13.1131 12.7385Z" fill="#F29319"/>
<path d="M13.1132 12.7385C12.9037 12.8989 12.6648 12.812 12.4374 12.8196C12.4272 12.7939 12.4167 12.7685 12.4062 12.7431C12.6419 12.7418 12.8775 12.7402 13.1132 12.7389V12.7385Z" fill="#63441A"/>
<path d="M10.9534 11.5525C10.9534 11.7521 10.9538 11.9514 10.9541 12.151C10.7984 12.0104 10.8931 11.8216 10.8594 11.6576C10.8908 11.6227 10.922 11.5874 10.9534 11.5525Z" fill="#7F7A73"/>
<path d="M15.1438 12.4086C15.0721 12.3131 14.9089 12.3671 14.8594 12.235C15.0599 12.0934 15.2579 12.0713 15.4519 12.2476C15.4421 12.3078 15.4322 12.3681 15.4224 12.4284C15.3297 12.4218 15.2366 12.4152 15.1438 12.4086Z" fill="#F9981D"/>
<path d="M16.3194 12.6313C16.3531 12.6327 16.3872 12.6343 16.4209 12.6356C16.4871 12.7035 16.61 12.716 16.6195 12.8392C16.6166 12.8998 16.6133 12.9607 16.6104 13.0214C16.4567 13.0131 16.2774 13.0658 16.1804 12.8965C16.0998 12.7562 16.2836 12.7262 16.3194 12.6313Z" fill="#4C4A49"/>
<path d="M14.8484 12.1598L14.6551 12.052C14.6059 11.8504 14.8081 11.8646 14.8904 11.775C14.9861 11.7114 15.0716 11.6311 15.1827 11.5919C15.2813 11.5698 15.3718 11.577 15.4393 11.6647C15.5153 11.8027 15.7988 11.774 15.7316 12.0273C15.6717 12.0695 15.6114 12.1117 15.5514 12.1542C15.3174 12.2164 15.0831 12.2069 14.8484 12.1598Z" fill="#181A1B"/>
<path d="M14.8486 12.1599C15.083 12.1579 15.3173 12.1563 15.5516 12.1543C15.5185 12.1853 15.4854 12.2166 15.4523 12.2475C15.2547 12.2432 15.0574 12.2393 14.8598 12.235C14.8578 12.2096 14.8539 12.1846 14.8486 12.1599Z" fill="#935E19"/>
<path d="M16.6195 12.839C16.5261 12.7978 16.454 12.7359 16.4209 12.6355C16.5346 12.6447 16.6791 12.5653 16.749 12.7023C16.7984 12.7995 16.6857 12.8133 16.6192 12.8387L16.6195 12.839Z" fill="#61605F"/>
<path d="M15.1607 11.6628C15.0942 11.7293 15.0276 11.7959 14.9611 11.8624C14.832 11.9164 14.7022 11.9194 14.5718 11.8677C13.9406 11.4553 13.2543 11.5139 12.5851 11.6984C12.2924 11.7791 12.2043 11.6911 12.1299 11.4622C12.1348 11.3963 12.14 11.3308 12.145 11.2652C12.591 11.3107 12.9859 11.0929 13.4087 11.0188C14.0261 10.9108 14.5619 11.1022 15.0525 11.4622C15.1112 11.5169 15.164 11.5745 15.1604 11.6625L15.1607 11.6628Z" fill="#EE901D"/>
<path d="M15.1606 11.6629C15.0776 11.6214 15.0554 11.5473 15.0527 11.4626C15.1645 11.5624 15.4906 11.2531 15.4391 11.6649C15.3464 11.6642 15.2533 11.6636 15.1606 11.6629Z" fill="#F8961D"/>
<path d="M9.21243 11.4758C9.30584 11.4679 9.39957 11.4603 9.49297 11.4524C9.39432 11.792 9.28552 12.128 9.1092 12.4376C8.79262 13.4018 8.73002 14.3953 8.76476 15.4006C8.77459 15.6845 8.89553 15.9289 9.00105 16.1819C9.06037 16.3242 9.20522 16.4471 9.12362 16.6292C8.82867 16.6724 8.79917 16.4145 8.70741 16.2458C8.35052 15.5893 8.40656 14.8732 8.44294 14.166C8.47178 13.603 8.57403 13.048 8.69561 12.4979C8.70708 12.2634 8.78344 12.0489 8.9011 11.8483C9.02563 11.7419 9.08233 11.5782 9.21276 11.4761L9.21243 11.4758Z" fill="#AC6815"/>
<path d="M9.10731 16.6295C8.51085 15.42 8.66193 14.1712 8.91493 12.9182C8.94934 12.7485 8.97425 12.5693 9.10829 12.4373C9.04373 13.1899 8.82186 13.9163 8.80089 14.6818C8.77499 15.6338 9.00965 16.4293 9.79061 17.0172C9.77324 17.0311 9.75587 17.0449 9.73851 17.0591C9.59758 17.0996 9.47469 17.0344 9.3472 16.9932C9.21218 16.9082 9.05225 16.839 9.10731 16.6292V16.6295Z" fill="#AF6A15"/>
<path d="M9.10843 13.7041C9.13334 14.4515 9.03666 15.2045 9.2061 15.9457C8.89902 15.6785 8.99897 15.2852 8.93507 14.9558C8.85445 14.5414 8.97603 14.1119 9.10876 13.7041H9.10843Z" fill="#C97A14"/>
<path d="M11.2521 17.5054C11.1872 17.5054 11.1223 17.5054 11.0571 17.5054C10.6242 17.3855 10.1424 17.4507 9.75438 17.1612C9.74095 17.1072 9.75274 17.0597 9.79011 17.0182L9.79076 17.0176C10.2889 17.1467 10.8162 17.1889 11.2518 17.5054H11.2521Z" fill="#AF6A15"/>
<path d="M9.20605 15.9456C9.55606 16.3883 9.96769 16.7582 10.473 17.0174C9.83463 16.9156 9.40302 16.5691 9.20605 15.9456Z" fill="#C97A14"/>
<path d="M11.7393 17.7979C11.5387 17.764 11.3555 17.701 11.252 17.5054C11.4532 17.5383 11.6364 17.6009 11.7393 17.7979Z" fill="#AF6A15"/>
<path d="M9.7901 17.1167C10.1683 17.3911 10.6609 17.2916 11.0574 17.5054C11.0574 17.5377 11.0574 17.5696 11.0577 17.6019C10.9932 17.6009 10.9283 17.5999 10.8637 17.5989C10.5616 17.4204 10.2286 17.3993 9.88972 17.4069C9.03109 17.0755 8.49853 16.4684 8.32877 15.556C8.27798 15.135 8.44315 14.6976 8.23242 14.2888C8.26388 14.0938 8.36351 13.91 8.32943 13.7041C8.4012 13.3605 8.42545 13.0048 8.5785 12.6816C8.62799 12.5769 8.62274 12.4076 8.81544 12.4382C8.69976 13.3072 8.48444 14.1686 8.53196 15.0513C8.56277 15.6258 8.66043 16.1973 9.10843 16.6295C9.17234 16.7603 9.26901 16.8578 9.40043 16.921C9.5076 17.032 9.66425 17.0442 9.79042 17.1167H9.7901Z" fill="#945A18"/>
<path d="M10.3818 10.7845C10.3441 10.8148 10.3061 10.8451 10.2684 10.8754C10.1118 10.9426 9.95546 11.0095 9.79881 11.0767C9.44978 11.2029 9.14795 11.1979 8.99261 10.7862C8.86086 10.5404 8.8838 10.2595 8.81334 9.99957C8.69831 9.77854 8.8389 9.52589 8.7265 9.30453C8.73272 9.19517 8.74026 9.08548 8.63965 9.00709C8.69897 8.94681 8.75828 8.88686 8.81728 8.8269C9.10502 9.12369 9.04865 9.52457 9.11747 9.88131C9.27969 10.7216 9.39702 10.8079 10.2052 10.5615C10.3009 10.5322 10.3936 10.5098 10.4808 10.5819C10.4477 10.6495 10.4149 10.717 10.3818 10.7845Z" fill="#C69780"/>
<path d="M8.81512 12.4378C8.4756 12.7915 8.57719 13.3146 8.32911 13.7037C8.30518 13.5396 8.394 13.3528 8.23145 13.2168C8.59325 12.6769 8.61521 11.9858 9.01176 11.4614C9.0442 11.4631 9.07665 11.4647 9.10909 11.4667C9.22117 11.6317 9.06518 11.7286 9.01143 11.8514C8.86821 12.0207 8.82463 12.2237 8.81512 12.4378Z" fill="#905D2F"/>
<path d="M8.99219 10.7864C9.19275 11.0723 9.48509 11.1039 9.79839 11.0769C9.237 11.3513 9.14261 11.3174 8.99219 10.7864Z" fill="#BA8E78"/>
<path d="M8.72617 9.30493C8.87037 9.52234 8.79696 9.76675 8.81302 9.99997C8.63376 9.78717 8.74748 9.53749 8.72617 9.30493Z" fill="#7F604F"/>
<path d="M9.01172 11.8515C9.04416 11.7234 9.07694 11.5949 9.10938 11.4668C9.14379 11.4698 9.17788 11.4727 9.21229 11.4757C9.21229 11.6368 9.1841 11.7827 9.01172 11.8515Z" fill="#945A18"/>
<path d="M8.13412 13.4119C8.14068 13.7202 8.10495 14.0189 7.93945 14.2891C7.93945 14.2242 7.93945 14.1589 7.93945 14.0941C7.95944 13.8539 8.00303 13.6204 8.13445 13.4119H8.13412Z" fill="#905E30"/>
<path d="M10.4799 10.582C10.3574 10.5791 10.2758 10.6647 10.1765 10.7158C9.55051 11.0386 9.1438 10.8436 9.0232 10.1591C8.94553 9.71671 8.8849 9.27136 8.81641 8.82733C8.81772 8.79801 8.82329 8.76968 8.83279 8.74201C8.88719 8.73312 8.94127 8.72423 8.99534 8.71533L9.01927 8.74103C9.1828 9.0556 9.23589 9.41893 9.4499 9.7121C9.53576 9.82969 9.6036 9.96178 9.71011 10.0629C9.82711 10.1742 9.95394 10.3221 10.1214 10.2836C10.3079 10.2405 10.1529 10.0148 10.2558 9.90611C10.4065 9.83266 10.4563 9.96145 10.5301 10.0425C10.5956 10.1667 10.6504 10.2932 10.6261 10.4391C10.6048 10.5109 10.5514 10.5514 10.4865 10.5807L10.4796 10.5824L10.4799 10.582Z" fill="#EAB599"/>
<path d="M12.9103 8.82251C13.0823 9.30574 12.9879 9.58639 12.576 9.82553C12.4249 9.91315 12.2761 10.0051 12.1263 10.0947C12.1126 10.1793 12.0651 10.2409 11.9962 10.2887C11.6675 10.4521 11.3313 10.4715 10.9875 10.3397C10.9396 10.3018 10.9282 10.2551 10.9524 10.1991C11.1677 10.205 11.2785 10.1497 11.096 9.9395C11.0245 9.85715 10.9406 9.786 10.8623 9.70958C10.9393 9.59989 11.0514 9.53764 11.1684 9.48098C11.3296 9.47242 11.4571 9.58046 11.6085 9.60747C12.2027 9.8532 12.5783 9.68817 12.79 9.08768C12.8214 8.99808 12.848 8.90618 12.9089 8.83009L12.9106 8.82251H12.9103Z" fill="#F39930"/>
<path d="M11.155 9.51421C11.1455 9.71185 11.0026 9.70955 10.8614 9.70988C10.7224 9.57878 10.4494 9.53101 10.57 9.23916C10.6031 9.23488 10.6362 9.2306 10.6693 9.22632C10.7968 9.281 10.943 9.18448 11.0665 9.27507C11.1416 9.33798 11.2025 9.40617 11.1547 9.51454L11.155 9.51421Z" fill="#EE8E40"/>
<path d="M10.4732 10.0883C10.4086 10.0261 10.3437 9.96347 10.2791 9.90121C10.0959 9.83665 9.976 9.7375 10.072 9.52075C10.1402 9.55139 10.208 9.58202 10.2762 9.61265C10.441 9.80338 10.6062 9.9941 10.7711 10.1852C10.6206 10.31 10.5469 10.1983 10.4728 10.0883H10.4732Z" fill="#F7B158"/>
<path d="M10.4736 10.0882C10.5729 10.1205 10.6726 10.1528 10.7719 10.1851C10.8322 10.1897 10.8925 10.1946 10.9524 10.1992C10.9583 10.2272 10.9629 10.2556 10.9669 10.2839C10.9891 10.3083 10.999 10.3343 10.9967 10.362C10.9941 10.3906 10.9898 10.4048 10.9839 10.4051C10.9233 10.4776 10.844 10.5184 10.7545 10.5425C10.684 10.551 10.6195 10.5438 10.5801 10.4733C10.5447 10.3448 10.5094 10.2164 10.474 10.0879L10.4736 10.0882Z" fill="#FCD8A1"/>
<path d="M10.0719 9.5208C10.0768 9.68254 10.2214 9.76818 10.2791 9.90126C10.2699 10.0841 10.4999 10.2896 10.2948 10.4392C10.0746 10.5999 9.87628 10.3838 9.74716 10.255C9.33258 9.84196 8.98552 9.37751 9.01994 8.74078C9.14447 8.73913 9.26901 8.73749 9.39354 8.73584C9.61967 8.99738 9.8458 9.25893 10.0723 9.5208H10.0719Z" fill="#F8C9AB"/>
<path d="M11.0566 9.31851C10.9236 9.30468 10.7735 9.36298 10.6699 9.22595C10.7597 9.19038 10.8495 9.15447 10.939 9.1189C10.9777 9.12483 11.0163 9.13076 11.055 9.13668C11.1163 9.19664 11.1068 9.25757 11.0566 9.31851Z" fill="#E68C41"/>
<path d="M12.9084 8.83008C12.8923 9.70529 12.2726 10.1039 11.5444 9.70727C11.4044 9.57287 11.3474 9.42201 11.4529 9.23952C11.6142 9.23755 11.7754 9.2359 11.9367 9.23392C12.0632 9.28959 12.1408 9.45396 12.3148 9.4029C12.5351 9.3222 12.5996 9.10677 12.7173 8.93779C12.7497 8.90222 12.7822 8.86631 12.8146 8.83074C12.8458 8.83074 12.8772 8.83074 12.9084 8.83008Z" fill="#ED8F1D"/>
<path d="M11.4529 9.23947C11.4834 9.39527 11.5138 9.55141 11.5443 9.70721C11.3749 9.72302 11.29 9.56821 11.155 9.51386C11.1222 9.44863 11.0894 9.38341 11.0563 9.31852C11.0557 9.25791 11.0553 9.1973 11.0547 9.13669C11.2048 9.10309 11.3313 9.16107 11.4525 9.23947H11.4529Z" fill="#E78827"/>
<path d="M12.7173 8.93774C12.7651 9.25034 12.6013 9.41867 12.3266 9.51189C12.2667 9.44798 12.2663 9.38342 12.3244 9.3182C12.3594 9.22663 12.3942 9.13538 12.4292 9.04414C12.5252 9.00889 12.6213 8.97332 12.7176 8.93807L12.7173 8.93774Z" fill="#D17A15"/>
<path d="M12.3242 9.31788C12.3249 9.38245 12.3259 9.44701 12.3265 9.5119C12.102 9.55176 12.0116 9.40353 11.9365 9.23389C12.0656 9.26189 12.1951 9.29021 12.3242 9.31821V9.31788Z" fill="#E78827"/>
<path d="M10.9622 10.3883C10.9636 10.3533 10.9649 10.3187 10.9662 10.2838C11.325 10.3085 11.6826 10.3158 12.0287 10.1932C12.0994 10.1372 12.1847 10.1353 12.224 10.2091C12.2653 10.2865 12.1971 10.3474 12.1276 10.3879C11.9985 10.4541 11.8697 10.5203 11.7406 10.5865C11.6891 10.6406 11.6256 10.6313 11.5623 10.6208C11.465 10.4274 11.2772 10.5243 11.13 10.4884C11.0625 10.4742 11.0029 10.4466 10.9619 10.3883H10.9622Z" fill="#F9C284"/>
<path d="M11.539 10.5794C11.6062 10.5817 11.6733 10.5843 11.7409 10.5866C11.7399 10.6173 11.7382 10.6482 11.7359 10.6788C11.3076 10.7971 10.8891 10.7961 10.4873 10.5804C10.5181 10.5448 10.5489 10.5092 10.5797 10.4736C10.6423 10.4773 10.7052 10.4812 10.7678 10.4852C10.8393 10.4875 10.9104 10.4881 10.9822 10.4885C11.1696 10.5099 11.3728 10.4321 11.5396 10.5794H11.539Z" fill="#F8B36C"/>
<path d="M12.1283 10.3881C12.1866 10.2767 12.1928 10.1917 12.0293 10.1934C12.0617 10.1604 12.0942 10.1278 12.1263 10.0949C12.283 10.0695 12.4396 10.0442 12.5963 10.0188C12.4465 10.1499 12.3816 10.3887 12.1279 10.3881H12.1283Z" fill="#F7B26E"/>
<path d="M11.64 12.1595C11.5466 12.1526 11.4532 12.146 11.3602 12.1391C11.0747 11.8525 11.0475 11.5152 11.1648 11.1492C11.272 11.028 11.3592 10.8788 11.5506 10.8765C11.5175 11.0448 11.4555 11.2138 11.4568 11.3818C11.4598 11.6944 11.5656 11.9193 11.9478 11.7563C11.914 11.9431 11.7606 12.0389 11.64 12.1595Z" fill="#D2D2D1"/>
<path d="M11.1647 11.1493C11.151 11.4948 11.2076 11.8265 11.36 12.1391C10.9373 12.0864 11.1621 11.6569 10.9707 11.4694C11.0022 11.3775 11.034 11.2853 11.0654 11.1934C11.0985 11.1786 11.1316 11.1637 11.1647 11.1489V11.1493Z" fill="#7F7A73"/>
<path d="M12.6127 12.4358C12.5321 12.6114 12.2765 12.4206 12.211 12.6278C12.2092 12.5013 12.3431 12.4373 12.6127 12.4358Z" fill="#E98E1B"/>
<path d="M14.5715 11.8681C14.7013 11.8664 14.8311 11.8644 14.9609 11.8628C14.8963 11.9863 14.7049 11.9053 14.6551 12.0525C14.5666 12.0186 14.5709 11.9425 14.5715 11.8684V11.8681Z" fill="#7C521B"/>
<path d="M9.78941 17.1166C9.62292 17.1241 9.47414 17.0961 9.39941 16.9209C9.52952 16.9532 9.65963 16.9858 9.79006 17.0181C9.79006 17.051 9.79006 17.0836 9.78973 17.1166H9.78941Z" fill="#AC6815"/>
<path d="M10.8711 10.5568C10.8367 10.533 10.802 10.5093 10.7676 10.4853C10.8095 10.4069 10.8839 10.393 10.9626 10.3884C11.0245 10.3924 11.0861 10.3963 11.1481 10.4006C11.1687 10.6529 10.9426 10.4678 10.8711 10.5571V10.5568Z" fill="#FDE7B8"/>
<path d="M9.29463 9.22371C9.21336 9.13445 9.07669 8.98029 9.20484 8.92758C9.39983 8.84721 9.47095 9.04584 9.49979 9.2191C9.43293 9.2886 9.36313 9.21581 9.29463 9.22404V9.22371Z" fill="#FBD6B9"/>
<path d="M9.79175 9.90126L9.59675 9.60546C9.56365 9.5096 9.60199 9.48655 9.68983 9.51389C9.78552 9.54847 9.8491 9.616 9.8881 9.70823C9.95626 9.82253 9.95659 9.90324 9.79175 9.90093V9.90126Z" fill="#FCE2C9"/>
<path d="M9.68918 9.51423C9.65805 9.54486 9.62724 9.57517 9.59611 9.6058C9.4955 9.47865 9.39488 9.35118 9.29395 9.22403C9.35949 9.10874 9.43028 9.20954 9.49877 9.21909C9.56235 9.31758 9.6256 9.41574 9.68918 9.51423Z" fill="#FCF3DD"/>
<path d="M9.79199 9.90119C9.87097 9.86035 9.88605 9.78755 9.88834 9.7085C9.98699 9.79381 10.1119 9.92359 10.0263 10.0234C9.91292 10.1558 9.85033 9.98849 9.79199 9.90152V9.90119Z" fill="#FBD5B9"/>
<path d="M10.8711 10.5567C10.9635 10.5047 11.0559 10.4523 11.148 10.4003C11.2621 10.4955 11.5626 10.1835 11.5393 10.5795C11.3165 10.5719 11.0939 10.5643 10.8711 10.5567Z" fill="#FDE0AD"/>
</g>
<path d="M14.793 4.32022L14.659 5.5502C14.6488 5.52648 14.6321 5.53703 14.6092 5.58182C14.6016 5.59599 14.5967 5.61312 14.5947 5.63387C14.5787 5.79231 14.5322 5.92605 14.4548 6.03508C14.4132 6.0196 14.3752 5.99687 14.3398 5.96689C14.3165 5.94713 14.3014 5.9188 14.2975 5.88784C14.2349 5.37957 14.171 4.85714 14.1061 4.32022C14.0799 4.10479 14.0353 3.92692 13.9721 3.78692C13.9426 3.72137 13.9229 3.65549 13.9128 3.58863C13.9013 3.51484 13.8806 3.44501 13.8505 3.3788C13.8377 3.34981 13.8321 3.31983 13.8331 3.28821L13.8416 3.12549C14.1058 2.96771 14.3378 2.95848 14.5377 3.09749C14.9218 3.36397 14.8048 3.93087 14.7924 4.31989L14.793 4.32022Z" fill="#E21D2E"/>
<path d="M13.8425 3.12573L13.834 3.28846C13.8327 3.31975 13.8386 3.35005 13.8514 3.37904C13.8815 3.44525 13.9022 3.51508 13.9136 3.58887C13.9238 3.65574 13.9438 3.72162 13.973 3.78717C14.0362 3.92716 14.0808 4.10471 14.107 4.32047C14.1722 4.85739 14.2358 5.38015 14.2984 5.88808C14.302 5.91904 14.3171 5.94704 14.3407 5.96714C14.3757 5.99744 14.4141 6.02017 14.4557 6.03532C14.4118 6.09955 14.3734 6.13184 14.3407 6.13249C14.2712 6.13546 14.2066 6.09593 14.1768 6.03236C14.0287 5.71218 13.9395 5.37949 13.9097 5.03428C13.8773 4.66205 13.8609 4.47528 13.8609 4.47331C13.8078 4.06386 13.7655 3.65014 13.7334 3.2318L13.8425 3.12606V3.12573Z" fill="#A41416"/>
<path d="M13.733 3.23145C13.7648 3.64978 13.8074 4.06351 13.8605 4.47295C13.8605 4.47493 13.8769 4.66203 13.9093 5.03392C13.9395 5.37913 14.0283 5.71183 14.1764 6.032C14.2062 6.09558 14.2708 6.13511 14.3403 6.13214C14.3727 6.13148 14.411 6.0992 14.4553 6.03497C14.5326 5.92594 14.5792 5.7922 14.5952 5.63376C14.5972 5.61334 14.6018 5.59588 14.6096 5.58171C14.6326 5.53692 14.6493 5.52637 14.6595 5.55009L14.6509 5.62025C14.647 5.88443 14.5664 6.08207 14.4088 6.21317C14.315 6.2919 14.1754 6.27905 14.0971 6.18452C14.0886 6.1743 14.081 6.1631 14.0745 6.15158C13.964 5.95262 13.8887 5.7283 13.8483 5.47894L13.769 4.9911C13.7743 4.93411 13.7644 4.87054 13.7402 4.80071C13.749 4.74537 13.7409 4.69168 13.7153 4.63897C13.7287 4.54904 13.7222 4.45879 13.6963 4.36755L13.6763 4.08459C13.6252 3.75816 13.6445 3.47388 13.7336 3.23177L13.733 3.23145Z" fill="#15020B"/>
<path d="M17.0394 3.61963C16.9876 3.86009 16.9964 4.08606 17.0653 4.2972C17.097 4.39701 17.2039 4.45136 17.3035 4.41908C17.3248 4.41217 17.3445 4.40162 17.3622 4.38779L17.549 4.24055C17.5673 4.22638 17.5886 4.21881 17.6122 4.21749C17.6673 4.21551 17.6981 4.15984 17.705 4.05015C17.7479 4.49583 17.4608 4.95963 17.2521 5.33119C17.1819 5.32493 17.1308 5.35655 17.099 5.42639C16.9227 5.80553 16.7415 6.10825 16.5553 6.33487C16.4806 6.36682 16.4173 6.37835 16.3659 6.36946C16.3315 6.3632 16.3118 6.34212 16.3076 6.30687C16.263 5.93663 16.3141 5.58779 16.4616 5.25971C16.5573 5.04593 16.6317 4.81008 16.6848 4.5515C16.709 4.43292 16.7215 4.30511 16.7221 4.16841C16.7228 4.03237 16.7375 3.89929 16.766 3.76918C16.8434 3.67925 16.9345 3.62951 17.04 3.61996L17.0394 3.61963Z" fill="#D31321"/>
<path d="M17.0391 3.61958C17.4048 3.60213 17.6267 3.74574 17.7047 4.04978C17.6978 4.15947 17.6667 4.21547 17.6119 4.21711C17.5883 4.21843 17.5674 4.22601 17.5487 4.24017L17.3619 4.38741C17.2793 4.45231 17.1603 4.43814 17.0961 4.35579C17.0823 4.33833 17.0719 4.31824 17.065 4.29716C16.9961 4.08601 16.9873 3.86037 17.0391 3.61958Z" fill="#E21D2E"/>
<path d="M16.7656 3.7688C16.7368 3.89891 16.7224 4.03232 16.7217 4.16803C16.721 4.30473 16.7086 4.43221 16.6843 4.55112C16.6312 4.8097 16.5569 5.04588 16.4612 5.25933C16.3137 5.58709 16.2622 5.93625 16.3071 6.3065C16.3117 6.34174 16.3311 6.36249 16.3655 6.36908C16.4172 6.37798 16.4805 6.36645 16.5549 6.33449C16.507 6.41586 16.4353 6.48338 16.3396 6.53675C16.2835 6.56804 16.2131 6.54762 16.1819 6.49129C16.1744 6.47778 16.1698 6.46263 16.1682 6.44715C16.1279 6.07361 16.1777 5.73993 16.2878 5.38187C16.3383 5.2175 16.3779 5.05708 16.4064 4.90062C16.4333 4.7537 16.473 4.60284 16.5251 4.44835C16.585 4.27113 16.6329 4.08832 16.6686 3.8999C16.6853 3.85115 16.7174 3.80767 16.7653 3.76913L16.7656 3.7688Z" fill="#A41416"/>
<path d="M16.6692 3.89966C16.6335 4.0884 16.5856 4.27122 16.5257 4.44811C16.4732 4.6026 16.4339 4.75346 16.407 4.90038C16.3782 5.05684 16.3389 5.21726 16.2884 5.38163C16.1783 5.73969 16.1285 6.0737 16.1688 6.44691C16.1756 6.51081 16.2327 6.55726 16.2963 6.55034C16.3117 6.54869 16.3267 6.54408 16.3402 6.5365C16.4359 6.48314 16.5076 6.41594 16.5555 6.33425C16.742 6.10763 16.9232 5.80491 17.0992 5.42577C17.131 5.35594 17.1821 5.32398 17.2522 5.33057C17.2286 5.37471 17.2247 5.40469 17.2408 5.42017C17.2126 5.41819 17.1922 5.43005 17.1795 5.45574C17.032 5.74496 16.8789 6.02165 16.72 6.28517C16.604 6.48347 16.2959 6.83461 16.0872 6.63368C15.9934 6.54309 16.0085 6.3942 16.002 6.26804L16.2825 4.88226L16.6692 3.89966Z" fill="#15020B"/>
<path d="M20.1256 6.29307C20.0705 6.32502 20.0145 6.33754 19.9572 6.33062C19.9336 6.32765 19.9096 6.3349 19.8919 6.35071C19.8805 6.36027 19.8687 6.36949 19.8565 6.37871C19.8385 6.3909 19.8179 6.39881 19.7943 6.40276C19.6294 6.43109 19.4485 6.44789 19.2512 6.45381C19.1523 6.45711 19.109 6.40902 19.1211 6.30954C19.1346 6.19524 19.1729 6.09411 19.2362 6.0055C19.2545 5.97981 19.2647 5.95115 19.266 5.91986C19.2673 5.86979 19.2794 5.81511 19.3024 5.75516C19.4403 5.68137 19.5701 5.66457 19.692 5.70509C19.967 5.79567 20.1118 5.99167 20.1259 6.29307H20.1256Z" fill="#E21D2E"/>
<path d="M19.302 5.75514C19.2791 5.81476 19.267 5.86977 19.2656 5.91984C19.2643 5.95113 19.2545 5.97979 19.2358 6.00548C19.1726 6.09409 19.1342 6.19555 19.1208 6.30952C19.1087 6.409 19.1519 6.45709 19.2509 6.4538C19.4482 6.44787 19.6291 6.43107 19.7939 6.40274C19.8175 6.39879 19.8382 6.39088 19.8562 6.37869C19.8683 6.3698 19.8801 6.36025 19.8916 6.35069C19.9093 6.33488 19.9329 6.32731 19.9568 6.3306C20.0142 6.33752 20.0705 6.325 20.1253 6.29305L20.0784 6.46434C20.0745 6.44688 20.0673 6.43766 20.0564 6.43634C20.0469 6.43502 20.0381 6.43798 20.0306 6.4449C19.9821 6.48904 19.9257 6.51243 19.8611 6.51408C19.8342 6.51473 19.81 6.52231 19.7884 6.53713C19.7015 6.59412 19.6114 6.65111 19.5183 6.70743C19.439 6.75619 19.3545 6.79604 19.2647 6.82668C19.0998 6.88366 18.9389 6.94888 18.7813 7.02201C18.7603 7.03222 18.7426 7.04705 18.7285 7.06615L18.6882 7.1182C18.6692 7.14389 18.644 7.16036 18.6125 7.16728C18.5728 7.17551 18.5355 7.19495 18.5004 7.22492C18.3703 7.33955 18.1527 7.39819 17.9777 7.42882C17.9466 7.43475 17.9194 7.42651 17.8964 7.40477C17.8122 7.32704 17.8069 7.22723 17.881 7.10535C18.0629 6.89816 18.2599 6.70183 18.4719 6.51638C18.5279 6.46763 18.5656 6.40735 18.585 6.33554L19.302 5.75415V5.75514Z" fill="#D31321"/>
<path d="M18.5841 6.33643C18.5651 6.40823 18.5274 6.46852 18.4711 6.51727C18.259 6.70272 18.0621 6.89904 17.8802 7.10623C17.6842 7.25578 17.5476 7.43629 17.4705 7.6481C17.4505 7.70409 17.4787 7.76569 17.5341 7.78578C17.5397 7.78776 17.5453 7.78941 17.5512 7.7904C17.7452 7.8263 17.9323 7.79567 18.1122 7.69816C18.498 7.4913 18.8686 7.28642 19.2209 7.04266C19.3746 6.93626 19.5496 6.87071 19.7456 6.84634L19.2239 7.19649L18.8925 7.39676L18.6579 7.53643L18.5314 7.61351L18.1905 7.80225L17.9913 7.9014C17.8828 7.93599 17.7766 7.96004 17.6724 7.97354C17.4502 8.00253 17.2818 7.81675 17.3984 7.60297C17.465 7.48109 17.541 7.36778 17.6272 7.26336L18.5032 6.41449C18.5222 6.36904 18.5491 6.34301 18.5835 6.33643H18.5841Z" fill="#15020B"/>
<path d="M20.0785 6.46433C19.995 6.62409 19.8842 6.75156 19.7462 6.84643C19.5503 6.87081 19.3752 6.93636 19.2215 7.04275C18.8692 7.28618 18.4986 7.49107 18.1129 7.69826C17.9329 7.79576 17.7458 7.82673 17.5518 7.79049C17.4941 7.77995 17.4561 7.72395 17.4666 7.66532C17.4676 7.65939 17.4692 7.65379 17.4712 7.64819C17.5485 7.43639 17.6852 7.25588 17.8808 7.10633C17.8068 7.22821 17.812 7.32801 17.8962 7.40575C17.9192 7.42749 17.9464 7.43573 17.9775 7.4298C18.1528 7.39916 18.3701 7.3402 18.5002 7.2259C18.5353 7.1956 18.5727 7.17649 18.6123 7.16826C18.6434 7.16134 18.6687 7.14487 18.688 7.11917L18.7283 7.06713C18.7424 7.04802 18.7598 7.0332 18.7811 7.02299C18.9387 6.94986 19.1 6.88464 19.2645 6.82766C19.3546 6.79702 19.4392 6.75716 19.5181 6.70841C19.6112 6.65209 19.7013 6.5951 19.7882 6.53811C19.8098 6.52329 19.8341 6.51571 19.8609 6.51506C19.9255 6.51308 19.9819 6.49002 20.0304 6.44588C20.0379 6.43896 20.0468 6.436 20.0563 6.43732C20.0671 6.43863 20.0746 6.44786 20.0782 6.46532L20.0785 6.46433Z" fill="#A41416"/>
<path d="M14.773 7.01561C14.7029 7.06897 14.6354 7.11575 14.5711 7.15627C14.4957 7.2037 14.4197 7.22379 14.3433 7.21687C14.0451 7.18921 13.9655 6.96423 14.1041 6.54128C14.3122 6.4105 14.5862 6.47441 14.7163 6.68358C14.7779 6.78273 14.7982 6.90197 14.7733 7.01594L14.773 7.01561Z" fill="#E21D2E"/>
<path d="M14.1037 6.54135C13.9651 6.96429 14.045 7.18927 14.3429 7.21694C14.4196 7.22386 14.4957 7.20377 14.5707 7.15633C14.6353 7.11582 14.7025 7.06904 14.7726 7.01568C14.7267 7.22716 14.5356 7.37473 14.3197 7.36583C14.0745 7.35529 13.8845 7.14678 13.8949 6.90039C13.9012 6.75348 13.9792 6.61908 14.1034 6.54102L14.1037 6.54135Z" fill="#16191B"/>
<path d="M16.2954 7.61722C16.275 7.57374 16.241 7.56583 16.1938 7.59416L16.2387 7.54014C16.2629 7.51115 16.256 7.496 16.2177 7.49403C16.0351 7.48513 15.8837 7.40673 15.7638 7.25916C15.7032 7.18406 15.7012 7.10764 15.7579 7.03023C15.7828 6.99564 15.7926 6.9548 15.7877 6.90802C15.9365 6.84346 16.1086 6.8652 16.2367 6.96468C16.431 7.11554 16.4668 7.39586 16.3167 7.5912C16.3098 7.60009 16.3026 7.60899 16.295 7.61722H16.2954Z" fill="#E21D2E"/>
<path d="M15.7873 6.90804C15.7926 6.95482 15.7824 6.99566 15.7575 7.03025C15.7008 7.10799 15.7025 7.18408 15.7634 7.25918C15.8834 7.40676 16.0348 7.48515 16.2173 7.49405C16.2557 7.49602 16.2625 7.5115 16.2383 7.54016L16.1934 7.59418C16.0108 7.66797 15.8608 7.65479 15.7434 7.55466C15.6789 7.49932 15.6431 7.41631 15.6363 7.3053C15.6304 7.21603 15.6304 7.12018 15.6363 7.01741C15.6785 6.9703 15.73 6.93308 15.7877 6.90771L15.7873 6.90804Z" fill="#A41416"/>
<path d="M15.6366 7.01758C15.6307 7.12035 15.6307 7.21621 15.6366 7.30547C15.6435 7.41648 15.6796 7.49949 15.7438 7.55483C15.8611 7.65497 16.0112 7.66814 16.1938 7.59436C16.241 7.56603 16.2747 7.57393 16.2954 7.61742C16.1908 7.73369 16.0335 7.7864 15.8808 7.75609C15.6756 7.71624 15.5259 7.53803 15.5206 7.32787C15.518 7.21357 15.5596 7.10256 15.6366 7.01791V7.01758Z" fill="#15020B"/>
<path d="M17.3749 8.43994C16.8757 8.62803 16.6424 8.46761 16.6748 7.95869C16.8036 7.85559 16.9734 7.82792 17.1209 7.88556C17.3362 7.96923 17.4463 8.21002 17.3745 8.43994H17.3749Z" fill="#D31321"/>
<path d="M16.6748 7.95874C16.6424 8.46766 16.8757 8.62808 17.3749 8.43999C17.3391 8.55364 17.2625 8.65114 17.1605 8.71241C16.9482 8.83956 16.6817 8.77631 16.5572 8.56912C16.4382 8.37115 16.4893 8.10763 16.6748 7.95907V7.95874Z" fill="#591210"/>
</g>
<defs>
<linearGradient id="paint0_linear_5_350288" x1="12" y1="0" x2="12" y2="24" gradientUnits="userSpaceOnUse">
<stop stop-color="#FFE00F"/>
<stop offset="1" stop-color="#FAAF0D"/>
</linearGradient>
<clipPath id="clip0_5_350288">
<rect width="13.4583" height="17" fill="white" transform="translate(6.66699 3)"/>
</clipPath>
</defs>
</svg>
