<svg width="24" height="24" viewBox="0 0 24 24" fill="none" xmlns="http://www.w3.org/2000/svg">
<path d="M21.68 18.9655C22.4061 18.5551 23 17.5476 23 16.7266V7.27339C23 6.45245 22.4061 5.44493 21.68 5.03446L13.32 0.307852C12.5939 -0.102617 11.4061 -0.102617 10.68 0.307852L2.31997 5.03446C1.59394 5.44493 1 6.45245 1 7.27339V16.7266C1 17.5476 1.59394 18.5551 2.31997 18.9655L10.68 23.6921C11.4061 24.1026 12.5939 24.1026 13.32 23.6921L21.68 18.9655Z" fill="url(#paint0_linear_5_13550)"/>
<path d="M8.625 5.54815L7.5 6.84815V12L8.625 13.3H13.0833V15.9H10.875V14.6H7.5V17.2L8.625 18.5H15.3333L16.4583 17.2V12L15.3333 10.7H10.875V8.1H13.125V9.4H16.5V6.8L15.375 5.5H8.625V5.54815Z" fill="white"/>
<defs>
<linearGradient id="paint0_linear_5_13550" x1="12" y1="0" x2="14.0603" y2="23.8218" gradientUnits="userSpaceOnUse">
<stop stop-color="#00ADEF"/>
<stop offset="1" stop-color="#0084FF"/>
</linearGradient>
</defs>
</svg>
