<svg width="24" height="24" viewBox="0 0 24 24" fill="none" xmlns="http://www.w3.org/2000/svg">
<path d="M21.68 18.9655C22.4061 18.5551 23 17.5476 23 16.7266V7.27339C23 6.45245 22.4061 5.44493 21.68 5.03446L13.32 0.307852C12.5939 -0.102617 11.4061 -0.102617 10.68 0.307852L2.31997 5.03446C1.59394 5.44493 1 6.45245 1 7.27339V16.7266C1 17.5476 1.59394 18.5551 2.31997 18.9655L10.68 23.6921C11.4061 24.1026 12.5939 24.1026 13.32 23.6921L21.68 18.9655Z" fill="black"/>
<path d="M18.7399 13.1907H14.9439C14.6991 13.1917 14.4645 13.2892 14.2915 13.4623C14.1185 13.6353 14.0209 13.8695 14.0199 14.1141V17.8885L12.5292 19.6806L12.5108 13.3509C12.5074 12.9325 12.662 12.5277 12.9437 12.2183C13.2255 11.9089 13.6137 11.7173 14.0307 11.6816H21.0052L18.7399 13.1907Z" fill="#E4F2FF"/>
<path d="M9.82182 11.6778C10.2527 11.6842 10.6661 11.8484 10.9838 12.1395C11.1381 12.2709 11.2632 12.4335 11.3504 12.6165C11.4378 12.7994 11.4855 12.9989 11.4906 13.2015V19.68L9.98207 17.8841V14.1141C9.98207 13.8689 9.88461 13.6334 9.71154 13.4596C9.53842 13.2858 9.30334 13.1874 9.05804 13.1863H5.25764L3 11.6778H9.82182Z" fill="#E4F2FF"/>
<path d="M13.2539 10.8434C12.9067 11.159 12.4531 11.3317 11.9838 11.3274C11.5952 11.3367 11.218 11.194 10.9333 10.9292L5.89973 6L8.63813 6.53671L11.3803 9.22621C11.5559 9.39842 11.7917 9.49509 12.0376 9.49511C12.2836 9.49511 12.5199 9.39846 12.6955 9.22621L15.4447 6.53997L18.1755 6L13.2539 10.8434Z" fill="#E4F2FF"/>
</svg>
