<svg width="24" height="24" viewBox="0 0 24 24" fill="none" xmlns="http://www.w3.org/2000/svg">
<path d="M21.68 18.9655C22.4061 18.5551 23 17.5476 23 16.7266V7.27339C23 6.45245 22.4061 5.44493 21.68 5.03446L13.32 0.307852C12.5939 -0.102617 11.4061 -0.102617 10.68 0.307852L2.31997 5.03446C1.59394 5.44493 1 6.45245 1 7.27339V16.7266C1 17.5476 1.59394 18.5551 2.31997 18.9655L10.68 23.6921C11.4061 24.1026 12.5939 24.1026 13.32 23.6921L21.68 18.9655Z" fill="url(#paint0_linear_1372_34828)"/>
<g clip-path="url(#clip0_1372_34828)">
<path d="M10.2218 5.09443C10.4109 5.17042 10.6343 5.34797 10.755 5.51138C11.137 6.02928 11.2624 6.81142 11.4073 7.43248C11.6055 8.28175 11.8577 9.20935 11.7828 10.111C11.7468 10.5436 11.5457 10.9839 11.0939 11.1407C9.76584 11.6014 9.1527 10.42 8.37053 9.65692C8.27576 9.56446 8.0278 9.33378 7.912 9.2921C7.73934 9.23001 7.81541 9.43584 7.84449 9.51589C7.96601 9.84984 8.20111 10.1213 8.34222 10.4242C8.5315 10.8304 8.41635 11.2891 7.96769 11.4655C7.34598 11.7099 6.49825 11.257 6.09814 10.801C5.59417 10.2268 5.21185 9.14812 5.06944 8.40643C4.90353 7.54265 4.9722 6.43135 5.98247 6.06801C6.98365 5.70775 7.84865 7.0518 8.4505 7.59884C8.54877 7.68823 8.75804 7.92591 8.84437 7.69672C8.91941 7.49765 8.86099 7.0684 8.85087 6.84117C8.81971 6.1397 8.72312 4.9245 9.81725 5.00369C9.93214 5.01205 10.1153 5.05164 10.2216 5.09443H10.2218Z" fill="#FBFBFB"/>
<path d="M17.0244 5.90632C17.6428 6.23794 18.0297 6.8365 18.2103 7.46961C18.3568 7.9837 18.4061 8.58976 18.3307 9.13152C18.138 10.5182 17.1386 11.6399 15.5827 11.7053C14.564 11.7481 13.4755 11.4005 12.9737 10.5106C12.2163 9.16755 13.3451 7.84992 14.2386 6.88753C14.9767 6.09236 15.8177 5.25919 17.0244 5.90632ZM15.6356 7.73791C15.2963 7.51904 14.9615 7.86898 14.853 8.14933C14.6637 8.63821 14.7637 9.46781 15.4779 9.41752C15.9263 9.38592 16.0032 8.84035 15.9785 8.50111C15.9623 8.27941 15.8378 7.86825 15.6356 7.73779V7.73791Z" fill="#FBFBFB"/>
<path d="M10.4566 12.6299C10.7435 12.7413 11.1239 13.1912 11.2773 13.4349C11.8739 14.3824 12.035 15.4917 11.9937 16.6033C11.9672 17.3151 11.8581 18.2756 11.211 18.7277C10.2724 19.3833 9.19965 18.6129 9.43917 17.5777C9.46838 17.4512 9.53173 17.3278 9.5799 17.2092C9.66441 17.0008 9.65935 16.6741 9.60418 16.4452C9.60314 16.4409 9.58561 16.3965 9.57769 16.3701C9.52537 16.1935 9.3997 15.9532 9.16707 16.0599C9.08801 16.0961 8.99285 16.2132 8.88263 16.2637C8.48655 16.4453 7.94831 16.1761 7.7515 15.8249C7.69529 15.7244 7.60519 15.441 7.50601 15.3934C7.38593 15.3359 7.34191 15.448 7.30998 15.5367C7.21884 15.7897 7.22573 16.2317 7.31036 16.5008C7.36256 16.6665 7.47485 16.8249 7.54223 16.9825C7.79668 17.5778 8.07151 18.5915 7.17925 18.8309C6.66113 18.97 6.27375 18.7258 5.95556 18.377C4.76743 17.0743 4.73303 15.1614 5.59907 13.6578C5.91051 13.1171 6.29607 12.7583 7.00204 12.7722C7.4498 12.781 7.71866 13.0111 7.92559 13.3601C8.0645 13.5942 8.196 13.8548 8.39035 14.064C8.52978 14.214 8.72737 14.365 8.92846 14.2023C9.16798 14.0086 9.2965 13.4487 9.45774 13.1692C9.65766 12.8227 9.9852 12.4471 10.4565 12.6299H10.4566Z" fill="#FBFBFB"/>
<path d="M18.2194 13.1833C18.6406 13.5165 18.8937 14.0807 18.966 14.5849C19.1588 15.9297 18.3333 18.0653 16.9806 18.6975C16.299 19.0161 15.3822 18.8948 14.6773 18.6961C13.5463 18.3773 12.8827 17.4306 12.8114 16.3319C12.7491 15.3713 13.304 14.1489 13.9039 13.3948C14.3382 12.849 15.262 13.0707 15.5425 13.6346C15.7165 13.9843 15.556 14.1836 15.4001 14.48C15.0435 15.158 14.5708 16.0143 15.258 16.6706C15.7541 17.1442 16.1899 16.8099 16.5292 16.3923C16.8701 15.9728 16.9754 15.6917 16.8992 15.1407C16.8122 14.5104 16.2931 13.2039 17.2608 12.96C17.6128 12.8714 17.9474 12.9681 18.2194 13.1833Z" fill="#FBFBFB"/>
</g>
<defs>
<linearGradient id="paint0_linear_1372_34828" x1="1.5" y1="-1.45675e-07" x2="22.4731" y2="22.675" gradientUnits="userSpaceOnUse">
<stop stop-color="#FF7448"/>
<stop offset="1" stop-color="#F13F07"/>
</linearGradient>
<clipPath id="clip0_1372_34828">
<rect width="14" height="14" fill="white" transform="translate(5 5)"/>
</clipPath>
</defs>
</svg>
