<svg width="24" height="24" viewBox="0 0 24 24" fill="none" xmlns="http://www.w3.org/2000/svg">
<path d="M21.68 18.9655C22.4061 18.5551 23 17.5476 23 16.7266V7.27339C23 6.45245 22.4061 5.44493 21.68 5.03446L13.32 0.307852C12.5939 -0.102617 11.4061 -0.102617 10.68 0.307852L2.31997 5.03446C1.59394 5.44493 1 6.45245 1 7.27339V16.7266C1 17.5476 1.59394 18.5551 2.31997 18.9655L10.68 23.6921C11.4061 24.1026 12.5939 24.1026 13.32 23.6921L21.68 18.9655Z" fill="url(#paint0_linear_5_16217)"/>
<path d="M12.002 4.5C10.2774 4.49916 8.59997 5.06562 7.22611 6.1128C5.85225 7.15998 4.85754 8.63027 4.39401 10.2989C3.93049 11.9676 4.02366 13.7428 4.65928 15.3533C5.2949 16.9637 6.43799 18.3208 7.91385 19.217C8.21421 19.4002 8.55881 19.4969 8.91014 19.4969H8.93588C9.19258 19.4983 9.447 19.4486 9.68442 19.3506C9.92186 19.2526 10.1376 19.1082 10.3191 18.9259C10.5006 18.7435 10.6443 18.5268 10.7419 18.2883C10.8395 18.0498 10.889 17.7942 10.8876 17.5364V13.924C10.8872 13.9039 10.8791 13.8848 10.865 13.8707C10.8509 13.8565 10.8318 13.8484 10.8119 13.848H9.62481C9.47551 13.8535 9.32663 13.8288 9.18708 13.7752C9.04752 13.7216 8.92015 13.6403 8.81257 13.5362C8.705 13.432 8.61944 13.3072 8.561 13.1691C8.50255 13.031 8.47243 12.8824 8.47243 12.7324C8.47243 12.5822 8.50255 12.4338 8.561 12.2956C8.61944 12.1575 8.705 12.0326 8.81257 11.9285C8.92015 11.8243 9.04752 11.7431 9.18708 11.6895C9.32663 11.6359 9.47551 11.6112 9.62481 11.6167H14.3716C14.5209 11.6112 14.6698 11.6359 14.8093 11.6895C14.9489 11.7431 15.0763 11.8243 15.1838 11.9285C15.2914 12.0326 15.377 12.1575 15.4354 12.2956C15.4938 12.4338 15.5239 12.5822 15.5239 12.7324C15.5239 12.8824 15.4938 13.031 15.4354 13.1691C15.377 13.3072 15.2914 13.432 15.1838 13.5362C15.0763 13.6403 14.9489 13.7216 14.8093 13.7752C14.6698 13.8288 14.5209 13.8535 14.3716 13.848H13.1875C13.1675 13.8484 13.1485 13.8565 13.1345 13.8707C13.1203 13.8848 13.1122 13.9039 13.1118 13.924V17.5364C13.1154 18.0566 13.323 18.5544 13.6894 18.9219C14.0558 19.2895 14.5518 19.4972 15.0696 19.5H15.0954C15.4472 19.4998 15.7922 19.4013 16.0916 19.2155C17.5653 18.3183 18.7063 16.9614 19.3404 15.3519C19.9746 13.7424 20.0671 11.9686 19.6038 10.3014C19.1405 8.63408 18.1469 7.16488 16.7746 6.11794C15.4023 5.07101 13.7267 4.50385 12.0035 4.50305L12.002 4.5ZM6.39973 14.0001C6.14985 14.0004 5.90549 13.9262 5.6976 13.787C5.4897 13.6476 5.32761 13.4495 5.23185 13.2177C5.13609 12.9859 5.11095 12.7307 5.15962 12.4844C5.2083 12.2383 5.32861 12.0121 5.5053 11.8346C5.68199 11.6571 5.90713 11.5363 6.15223 11.4874C6.39733 11.4385 6.65135 11.4637 6.88215 11.5599C7.11296 11.6561 7.31017 11.8189 7.44881 12.0278C7.58744 12.2366 7.66129 12.4821 7.66099 12.7331C7.6602 13.0678 7.5279 13.3887 7.29284 13.6259C7.05779 13.8632 6.73899 13.9976 6.40578 14.0001H6.39973ZM12.002 10.225C11.6144 10.2253 11.2355 10.1101 10.9131 9.89405C10.5907 9.67796 10.3393 9.37067 10.1908 9.01107C10.0422 8.65146 10.0032 8.25568 10.0787 7.87379C10.1541 7.49191 10.3406 7.14108 10.6145 6.86568C10.8885 6.59028 11.2376 6.40268 11.6177 6.32662C11.9978 6.25055 12.3918 6.28942 12.7499 6.43834C13.108 6.58727 13.414 6.83954 13.6294 7.16323C13.8448 7.48692 13.9598 7.8675 13.9598 8.25683C13.9565 8.77729 13.7493 9.27551 13.3827 9.64339C13.0162 10.0113 12.5201 10.2192 12.002 10.2219V10.225ZM17.5815 14.0001C17.3317 14.0001 17.0875 13.9256 16.8798 13.7862C16.6721 13.6467 16.5103 13.4485 16.4147 13.2167C16.3192 12.9848 16.2942 12.7297 16.3431 12.4836C16.392 12.2374 16.5124 12.0114 16.6891 11.8341C16.8659 11.6567 17.091 11.536 17.3361 11.4873C17.5811 11.4385 17.8351 11.4638 18.0658 11.5601C18.2966 11.6563 18.4937 11.8191 18.6322 12.0279C18.7708 12.2367 18.8446 12.4822 18.8443 12.7331C18.8435 13.0692 18.7102 13.3912 18.4734 13.6286C18.2367 13.8661 17.916 13.9997 17.5815 14.0001Z" fill="white"/>
<defs>
<linearGradient id="paint0_linear_5_16217" x1="16.8945" y1="-8.74821e-07" x2="4.59735" y2="22.8486" gradientUnits="userSpaceOnUse">
<stop stop-color="#EE8835"/>
<stop offset="0.5" stop-color="#C32BC9"/>
<stop offset="0.953125" stop-color="#274CF3"/>
</linearGradient>
</defs>
</svg>
