<svg width="24" height="24" viewBox="0 0 24 24" fill="none" xmlns="http://www.w3.org/2000/svg">
<path d="M21.68 18.9655C22.4061 18.5551 23 17.5476 23 16.7266V7.27339C23 6.45245 22.4061 5.44493 21.68 5.03446L13.32 0.307852C12.5939 -0.102617 11.4061 -0.102617 10.68 0.307852L2.31997 5.03446C1.59394 5.44493 1 6.45245 1 7.27339V16.7266C1 17.5476 1.59394 18.5551 2.31997 18.9655L10.68 23.6921C11.4061 24.1026 12.5939 24.1026 13.32 23.6921L21.68 18.9655Z" fill="url(#paint0_linear_10_31880)"/>
<path fill-rule="evenodd" clip-rule="evenodd" d="M13.9074 4L12.5952 4.74482V11.072L13.3116 11.479V6.66057L15.7721 8.05741L15.7744 8.05616L16.2521 8.32686L16.6511 8.10185V7.72159L13.3116 5.82867V5.17004L13.9074 4.83207L17.366 6.79547V8.54295L15.7055 9.47977L15.6498 9.45229C15.5485 9.40251 15.4438 9.37699 15.3388 9.37699C14.9434 9.37699 14.6221 9.70265 14.6221 10.1029C14.6221 10.503 14.9434 10.8286 15.3388 10.8286C15.7053 10.8286 16.0098 10.5483 16.0475 10.1769L16.0537 10.1143L17.7293 9.16839L19.2833 10.051V13.954L17.7276 14.8362L11.4048 11.2462V4.745L10.0924 4L5.91773 6.37024V8.53296L4 9.62021V14.3744L5.91773 15.4633V17.6298L10.0924 20L11.4048 19.255V12.9141L10.6882 12.5072V17.3394L7.74771 15.673L7.34894 15.898V16.2782L10.6882 18.1713V18.8298L10.0924 19.1679L6.63421 17.2045V15.4569L8.2945 14.5204L8.35018 14.5477C8.45168 14.5977 8.55617 14.6228 8.6612 14.6228C9.05644 14.6228 9.37786 14.2974 9.37786 13.8971C9.37786 13.4969 9.05644 13.1714 8.6612 13.1714C8.29485 13.1714 7.99035 13.4515 7.95282 13.8232L7.9463 13.8859L6.27069 14.8314L4.71666 13.9492V10.046L6.27245 9.16375L12.5952 12.7538V19.255L13.9074 20L18.0824 17.6298V15.4669L20 14.3796V9.62574L18.0824 8.53724V6.37024L13.9074 4ZM6.63421 6.79547L10.0924 4.83207L10.6882 5.1704V5.8285L6.63421 8.12665V6.79547ZM7.00602 8.74816L10.6882 6.66021V10.839L7.00602 8.74816ZM13.3116 13.1607L16.9942 15.252L13.3116 17.3398V13.1607ZM13.3116 18.8298V18.1717L17.366 15.8734V17.2045L13.9074 19.1679L13.3116 18.8298Z" fill="white"/>
<defs>
<linearGradient id="paint0_linear_10_31880" x1="1" y1="0" x2="1" y2="24" gradientUnits="userSpaceOnUse">
<stop stop-color="#13E5BF"/>
<stop offset="1" stop-color="#01C38D"/>
</linearGradient>
</defs>
</svg>
