<svg width="24" height="24" viewBox="0 0 24 24" fill="none" xmlns="http://www.w3.org/2000/svg">
<path d="M21.68 18.9655C22.4061 18.5551 23 17.5476 23 16.7266V7.27339C23 6.45245 22.4061 5.44493 21.68 5.03446L13.32 0.307852C12.5939 -0.102617 11.4061 -0.102617 10.68 0.307852L2.31997 5.03446C1.59394 5.44493 1 6.45245 1 7.27339V16.7266C1 17.5476 1.59394 18.5551 2.31997 18.9655L10.68 23.6921C11.4061 24.1026 12.5939 24.1026 13.32 23.6921L21.68 18.9655Z" fill="url(#paint0_linear_2_4777)"/>
<path d="M12 4L10.5185 4.84404L6.48148 7.15596L5 8V16L6.48148 16.844L10.5556 19.156L12.037 20L13.5185 19.156L17.5185 16.844L19 16V8L17.5185 7.15596L13.4815 4.84404L12 4ZM7.96296 14.3119V9.68807L12 7.37615L16.037 9.68807V14.3119L12 16.6239L7.96296 14.3119Z" fill="white"/>
<defs>
<linearGradient id="paint0_linear_2_4777" x1="12" y1="0" x2="12" y2="24" gradientUnits="userSpaceOnUse">
<stop stop-color="#3B70FF"/>
<stop offset="1" stop-color="#2555D3"/>
</linearGradient>
</defs>
</svg>
