<svg width="24" height="24" viewBox="0 0 24 24" fill="none" xmlns="http://www.w3.org/2000/svg">
<path d="M21.68 18.9655C22.4061 18.5551 23 17.5476 23 16.7266V7.27339C23 6.45245 22.4061 5.44493 21.68 5.03446L13.32 0.307852C12.5939 -0.102617 11.4061 -0.102617 10.68 0.307852L2.31997 5.03446C1.59394 5.44493 1 6.45245 1 7.27339V16.7266C1 17.5476 1.59394 18.5551 2.31997 18.9655L10.68 23.6921C11.4061 24.1026 12.5939 24.1026 13.32 23.6921L21.68 18.9655Z" fill="url(#paint0_linear_5_13303)"/>
<path fill-rule="evenodd" clip-rule="evenodd" d="M11.7857 13.2222C10.2078 13.2222 8.92857 11.9289 8.92857 10.3333C8.92857 8.73778 10.2078 7.44444 11.7857 7.44444C13.3637 7.44444 14.6429 8.73778 14.6429 10.3333C14.6429 11.9289 13.3637 13.2222 11.7857 13.2222ZM11.7857 6C14.1526 6 16.0714 7.9401 16.0714 10.3333C16.0714 12.7265 14.1526 14.6666 11.7857 14.6666C9.41879 14.6666 7.5 12.7265 7.5 10.3333C7.5 7.9401 9.41879 6 11.7857 6ZM15.8623 14.8781C16.1412 15.1602 16.1412 15.6174 15.8623 15.8995L13.005 18.7885C12.7261 19.0705 12.2739 19.0705 11.9949 18.7885C11.7159 18.5064 11.7159 18.0492 11.9949 17.7671L14.8521 14.8781C15.1311 14.5961 15.5833 14.5961 15.8623 14.8781ZM17.5 6.72222C17.5 7.12115 17.1803 7.44444 16.7858 7.44444C16.3913 7.44444 16.0715 7.12115 16.0715 6.72222C16.0715 6.32329 16.3913 6 16.7858 6C17.1803 6 17.5 6.32329 17.5 6.72222Z" fill="white"/>
<defs>
<linearGradient id="paint0_linear_5_13303" x1="12" y1="0" x2="12" y2="24" gradientUnits="userSpaceOnUse">
<stop stop-color="#476BBF"/>
<stop offset="1" stop-color="#4432A1"/>
</linearGradient>
</defs>
</svg>
