<svg width="24" height="24" viewBox="0 0 24 24" fill="none" xmlns="http://www.w3.org/2000/svg">
<path d="M21.68 18.9655C22.4061 18.5551 23 17.5476 23 16.7266V7.27339C23 6.45245 22.4061 5.44493 21.68 5.03446L13.32 0.307852C12.5939 -0.102617 11.4061 -0.102617 10.68 0.307852L2.31997 5.03446C1.59394 5.44493 1 6.45245 1 7.27339V16.7266C1 17.5476 1.59394 18.5551 2.31997 18.9655L10.68 23.6921C11.4061 24.1026 12.5939 24.1026 13.32 23.6921L21.68 18.9655Z" fill="url(#paint0_linear_5_13590)"/>
<path d="M4.55517 7.13323C4.52992 7.11698 4.50694 7.1022 4.47457 7.09526C4.48124 7.07189 4.48221 7.06484 4.48623 7.06094C4.49044 7.05686 4.49799 7.05625 4.51894 7.04402L5.04795 6.75028C5.0625 6.743 5.07516 6.73698 5.08698 6.73137C5.11395 6.71855 5.13655 6.7078 5.1674 6.6888C5.21309 6.65763 5.26131 6.63404 5.30975 6.61034C5.34091 6.5951 5.37217 6.57981 5.4029 6.56243C5.41219 6.55685 5.41642 6.55532 5.42166 6.55343C5.42604 6.55185 5.43112 6.55002 5.44044 6.54535L5.98993 6.24478C6.01336 6.23396 6.03108 6.22314 6.04962 6.21181C6.06619 6.20169 6.08342 6.19117 6.10597 6.17989L6.46774 5.9852C6.48942 5.97074 6.5111 5.96106 6.53227 5.9516C6.5511 5.9432 6.56953 5.93497 6.5872 5.92372C6.60009 5.91727 6.60689 5.91234 6.61408 5.90714C6.62211 5.90132 6.63061 5.89516 6.64863 5.88615L6.81928 5.79393C6.85032 5.77943 6.87007 5.76745 6.8907 5.75493C6.90409 5.7468 6.91785 5.73844 6.93532 5.72903L8.8261 4.70778C8.86706 4.68387 8.90119 4.66679 8.94556 4.6463L11.6452 3.18444C11.6644 3.17543 11.7058 3.15228 11.7541 3.12532C11.8521 3.07055 11.9784 3 12.0036 3C12.0479 3 12.4131 3.20493 12.4916 3.25275L13.7374 3.92903C13.7445 3.93258 13.7503 3.93532 13.756 3.93794C13.7666 3.94288 13.7764 3.94743 13.792 3.95636C13.8142 3.96831 13.8321 3.97856 13.85 3.9888C13.8679 3.99905 13.8858 4.0093 13.908 4.02125L14.8568 4.53359C14.8978 4.56091 14.9251 4.57457 14.9729 4.59848L17.3312 5.87249C17.4498 5.948 17.5747 6.01073 17.701 6.07414C17.7347 6.09104 17.7685 6.10799 17.8022 6.12524L18.2698 6.3814C18.4006 6.44402 18.5314 6.51718 18.6623 6.59034C18.7669 6.64887 18.8716 6.7074 18.9763 6.76053L19.4438 7.0167C19.4495 7.02 19.4552 7.02317 19.4607 7.0263C19.4956 7.04585 19.5276 7.06382 19.5394 7.10209C19.4894 7.11401 19.323 7.21413 19.1991 7.28861C19.1456 7.32083 19.1 7.34826 19.0752 7.36167L18.6145 7.62467C18.5444 7.6631 18.4938 7.69695 18.4537 7.72368C18.3515 7.79198 18.3187 7.8139 18.2084 7.74763C18.1756 7.7285 18.1603 7.7203 18.1328 7.70554C18.1259 7.70186 18.1182 7.69776 18.1094 7.69298L16.8193 6.99279C16.7032 6.93473 16.5898 6.87068 16.4763 6.80664C16.3628 6.7426 16.2493 6.67856 16.1333 6.62049C15.9285 6.51803 15.3483 6.21404 15.1572 6.0945L12.9865 4.92296C12.9528 4.90849 12.9378 4.89913 12.9174 4.88647C12.909 4.88119 12.8996 4.87534 12.8875 4.86831C12.8623 4.85315 12.8426 4.8436 12.8203 4.83273C12.8125 4.82892 12.8043 4.82494 12.7954 4.82049C12.7474 4.79592 12.645 4.73847 12.5293 4.67355C12.3072 4.549 12.0362 4.39696 12.007 4.39696L11.2084 4.82391C11.1953 4.83176 11.1857 4.83811 11.177 4.84391C11.1629 4.85326 11.1509 4.86119 11.1299 4.87173L9.1674 5.93055C9.15375 5.93738 9.1401 5.944 9.12644 5.95062C9.08549 5.97047 9.04453 5.99032 9.00358 6.01594C8.97946 6.03203 8.96376 6.0397 8.9416 6.05052C8.93554 6.05348 8.929 6.05667 8.92167 6.06034C8.90057 6.0709 8.89252 6.07623 8.88138 6.08361C8.8745 6.08816 8.86644 6.0935 8.85341 6.10133L7.28003 6.9518C7.25811 6.96414 7.23729 6.97428 7.2169 6.98421C7.18651 6.99901 7.15709 7.01333 7.12645 7.03378C7.10656 7.04593 7.08847 7.05452 7.07182 7.06242C7.03701 7.07892 7.00849 7.09245 6.9831 7.12941C7.01839 7.13698 7.02948 7.14455 7.04661 7.15624C7.05268 7.16038 7.0595 7.16504 7.06842 7.1704L8.8773 8.21556C8.88886 8.22199 8.89898 8.22697 8.90873 8.23177C8.92489 8.23972 8.94006 8.24718 8.95921 8.25996C8.97286 8.2685 8.98566 8.27619 8.99846 8.28387C9.01126 8.29155 9.02406 8.29924 9.03771 8.30778L10.4507 9.12068C10.472 9.13288 10.4947 9.14643 10.5181 9.16043C10.5472 9.17781 10.5774 9.19588 10.6077 9.2129C10.7246 9.27386 10.8367 9.34277 10.9486 9.41158C11.0688 9.48541 11.1887 9.55912 11.3142 9.62277L12.0104 10.0258C12.0855 9.98482 12.1503 9.94725 12.222 9.90285C12.2561 9.87894 12.2869 9.85844 12.3244 9.83795C12.5331 9.72416 12.7375 9.60327 12.9419 9.4824C13.1854 9.33841 13.4289 9.19445 13.6793 9.06262L14.8363 9.72865C14.8421 9.73213 14.8471 9.73492 14.8515 9.73736C14.8729 9.74927 14.879 9.75269 14.8875 9.78672C14.8369 9.79938 14.7882 9.83082 14.7427 9.86016C14.7269 9.87038 14.7114 9.88035 14.6964 9.88918L14.3346 10.0975C14.328 10.1012 14.3219 10.1045 14.3161 10.1076C14.2895 10.122 14.2712 10.1319 14.2459 10.1488C14.2336 10.1556 14.2224 10.1624 14.2112 10.1693C14.1944 10.1795 14.1776 10.1898 14.1572 10.2L13.6145 10.5074C13.5817 10.5287 13.5499 10.5466 13.5174 10.565C13.4925 10.5792 13.4671 10.5936 13.4404 10.6099L13.0821 10.8216C13.0496 10.8404 13.0215 10.8567 12.9933 10.8729C12.9652 10.8891 12.937 10.9053 12.9046 10.9241C12.8739 10.9429 12.8449 10.9583 12.8159 10.9736C12.7869 10.989 12.7578 11.0044 12.7271 11.0231L12.5428 11.1324C12.5292 11.1407 12.51 11.1526 12.4868 11.167C12.3468 11.2536 12.0626 11.4296 12.007 11.4296C11.9626 11.4296 11.5223 11.1632 11.3995 11.088C11.379 11.0761 11.3611 11.065 11.3432 11.0539C11.3252 11.0428 11.3073 11.0317 11.2869 11.0197L10.2357 10.4152C10.0558 10.3008 9.86978 10.1978 9.68379 10.0947C9.53096 10.0101 9.37816 9.92543 9.22883 9.83454C9.21822 9.82846 9.21299 9.82509 9.20777 9.82172C9.20123 9.8175 9.1947 9.81328 9.17764 9.80379L8.47115 9.39393C8.4479 9.38229 8.42795 9.37066 8.40693 9.3584C8.39092 9.34906 8.37429 9.33937 8.35511 9.32903L8.23907 9.26414C7.93407 9.07966 7.62414 8.90506 7.31452 8.73064C6.99357 8.54984 6.67295 8.36922 6.35853 8.17799L5.0616 7.42657C4.97224 7.38185 4.88898 7.33104 4.80571 7.28023C4.73632 7.23789 4.66694 7.19555 4.59402 7.15674C4.57972 7.14903 4.56719 7.14096 4.55517 7.13323Z" fill="white"/>
<path d="M4 16.3173C4.21843 16.4334 4.50512 16.611 4.7099 16.7476C4.75434 16.778 4.80237 16.8059 4.85116 16.8343C4.88478 16.8538 4.9188 16.8736 4.95222 16.8945C4.96971 16.9053 4.98454 16.9139 4.99861 16.9221C5.02022 16.9347 5.04005 16.9463 5.06485 16.9628C5.07082 16.9668 5.07651 16.9708 5.08207 16.9747C5.09557 16.9842 5.10836 16.9931 5.12287 17.0004C5.13481 17.0072 5.1442 17.0123 5.15358 17.0175C5.16297 17.0226 5.17235 17.0277 5.1843 17.0345L7.81229 18.6535C7.83347 18.6651 7.85357 18.6777 7.87442 18.6908C7.89052 18.701 7.90707 18.7114 7.92491 18.7218L10.3106 20.1939C10.3216 20.2008 10.3298 20.2055 10.3373 20.2097C10.3483 20.216 10.3577 20.2213 10.372 20.2315L11.5119 20.9317C11.529 20.9408 11.5427 20.9507 11.5555 20.96C11.581 20.9784 11.603 20.9943 11.6416 20.9966V12.082L11.2799 11.8736C11.2537 11.8605 11.2356 11.8495 11.2132 11.8358C11.2064 11.8316 11.1991 11.8272 11.1911 11.8224L10.9078 11.6584C10.7097 11.5542 10.5181 11.4384 10.3262 11.3225C10.1282 11.2028 9.92982 11.0829 9.72355 10.9753C9.70504 10.9661 9.69211 10.9582 9.67939 10.9505C9.66398 10.9411 9.64889 10.9319 9.62457 10.9207L9.2628 10.7123C9.17406 10.6577 8.77133 10.4152 8.69966 10.3981V11.8053L10.1809 12.6626C10.1941 12.6703 10.2059 12.6773 10.217 12.6839L10.2172 12.684C10.2406 12.6979 10.2613 12.7102 10.2867 12.7241C10.3002 12.7309 10.3115 12.738 10.3225 12.7449C10.3446 12.7589 10.3651 12.7719 10.3993 12.7787V18.814C10.2071 18.6849 10.0054 18.5652 9.80552 18.4465C9.73577 18.4051 9.66612 18.3637 9.59727 18.3222L8.95222 17.9226C8.81538 17.8301 8.67299 17.746 8.53083 17.6619C8.39999 17.5846 8.26929 17.5074 8.14334 17.4239C8.12799 17.4137 8.11604 17.4068 8.10409 17.4C8.09215 17.3932 8.0802 17.3863 8.06485 17.3761L7.49488 17.0243C7.43345 16.9901 7.38908 16.9628 7.33106 16.9218C7.21539 16.844 7.09446 16.7715 6.97354 16.699C6.87682 16.641 6.78002 16.5829 6.68601 16.5222C6.657 16.5034 6.63055 16.488 6.60409 16.4727C6.57764 16.4573 6.55119 16.4419 6.52218 16.4231C6.29644 16.2709 6.05835 16.1292 5.82313 15.9893C5.73117 15.9346 5.63966 15.8801 5.54949 15.8254C5.52218 15.8083 5.49829 15.7913 5.4744 15.7742L5.22526 15.6205V8.37609C5.17747 8.34535 5.12969 8.31803 5.07509 8.28729C5.02048 8.25655 4.97952 8.23264 4.92491 8.19848L4.157 7.76129C4.12945 7.7467 4.10498 7.73133 4.08104 7.7163C4.05454 7.69966 4.02868 7.68342 4 7.66907V16.3173Z" fill="white"/>
<path d="M12.3788 12.0683V15.4941L12.8328 15.238C12.9369 15.1833 13.0367 15.1227 13.1365 15.062C13.2363 15.0014 13.3362 14.9408 13.4403 14.8861L13.4504 14.8806C13.4806 14.8642 13.4941 14.8569 13.5188 14.8383C13.537 14.8269 13.5552 14.8186 13.5734 14.8103C13.5825 14.8061 13.5916 14.8019 13.6007 14.7973V12.7787C13.6416 12.7685 13.6553 12.7617 13.686 12.7412C13.7052 12.7284 13.7203 12.7209 13.7365 12.713C13.7462 12.7082 13.7564 12.7032 13.7679 12.6968C13.8286 12.6619 13.8887 12.6246 13.949 12.5872C14.048 12.5258 14.1473 12.4643 14.2491 12.4133C14.4191 12.3296 14.583 12.2298 14.7456 12.1309C14.7952 12.1007 14.8447 12.0705 14.8942 12.041C14.9309 12.0203 14.9631 12.0012 14.9978 11.9804C15.0147 11.9704 15.0322 11.9599 15.0512 11.9488L15.372 11.7677C15.3891 11.7575 15.4002 11.7507 15.4113 11.7438C15.4223 11.737 15.4334 11.7302 15.4505 11.7199C15.522 11.6833 15.5908 11.6404 15.6601 11.5972C15.7265 11.5558 15.7934 11.5142 15.8635 11.4774L16.0205 11.3852C16.0387 11.3738 16.0569 11.3655 16.0751 11.3571C16.0842 11.3529 16.0933 11.3488 16.1024 11.3442L17.1502 10.7362C17.2645 10.6764 17.3743 10.6102 17.4838 10.5442C17.5867 10.4821 17.6894 10.4202 17.7952 10.3639L18.1195 10.1727C18.1599 10.1487 18.1998 10.1256 18.2396 10.1026C18.3074 10.0634 18.3749 10.0244 18.4437 9.9814C18.464 9.96945 18.483 9.95876 18.5014 9.94844C18.5355 9.92929 18.5674 9.91136 18.6007 9.88918L18.7713 9.79355V15.6376C18.7367 15.645 18.72 15.656 18.6979 15.6706C18.6895 15.6761 18.6802 15.6822 18.6689 15.6888L18.3686 15.8732C18.3584 15.8801 18.3489 15.8865 18.3394 15.893C18.3204 15.9059 18.3015 15.9188 18.2765 15.9347C18.2538 15.948 18.2353 15.9601 18.2175 15.9719C18.2032 15.9813 18.1893 15.9905 18.1741 15.9996C18.1553 16.0099 18.1408 16.0193 18.1263 16.0286C18.1118 16.038 18.0973 16.0474 18.0785 16.0577L17.7747 16.2387C17.6382 16.3173 17.506 16.4009 17.3737 16.4846C17.2415 16.5683 17.1092 16.652 16.9727 16.7305L16.1741 17.2258C16.1553 17.2378 16.1408 17.2463 16.1263 17.2548C16.1118 17.2634 16.0973 17.2719 16.0785 17.2839C15.8837 17.4157 15.6818 17.5354 15.48 17.6551C15.3106 17.7556 15.1412 17.856 14.9761 17.9636C14.936 17.9911 14.8945 18.0159 14.8534 18.0406C14.828 18.0558 14.8029 18.0709 14.7782 18.0865L13.7782 18.7013C13.7474 18.7184 13.7133 18.7389 13.6826 18.7594C13.5341 18.8567 13.3823 18.9472 13.2304 19.0378C13.0785 19.1283 12.9266 19.2188 12.7782 19.3161L12.372 19.5655V21C12.4231 20.9872 12.4971 20.9381 12.5568 20.8985C12.5769 20.8851 12.5955 20.8728 12.6109 20.8634C12.6448 20.8422 12.6782 20.8227 12.7114 20.8033C12.7584 20.7759 12.8053 20.7485 12.8532 20.7165C12.9676 20.6397 13.087 20.5696 13.2065 20.4996C13.3259 20.4296 13.4454 20.3596 13.5597 20.2827C13.5784 20.2712 13.5952 20.2604 13.6115 20.2498C13.634 20.2353 13.6554 20.2214 13.6792 20.2076L14.2833 19.8353C14.3038 19.8233 14.3217 19.8122 14.3396 19.8011C14.3575 19.79 14.3754 19.7789 14.3959 19.767L17.6109 17.786C17.6553 17.7586 17.6928 17.7347 17.7304 17.7108L19.8771 16.389C19.9181 16.3617 19.959 16.3378 20 16.3173V7.68273C19.9578 7.69212 19.9397 7.70473 19.9171 7.72057C19.9068 7.72778 19.8955 7.73566 19.8805 7.74421C19.8362 7.76812 19.8055 7.7852 19.7645 7.80911L19.0512 8.22239C18.9419 8.28095 18.836 8.34576 18.7302 8.41055C18.6015 8.48938 18.4728 8.56819 18.3379 8.63567L16.43 9.73548C16.3799 9.76357 16.3357 9.79049 16.2911 9.81761C16.2598 9.83664 16.2283 9.8558 16.1945 9.87552L15.843 10.0805C15.5939 10.2068 15.2321 10.422 15.0034 10.5655C14.9829 10.5791 14.9642 10.5885 14.9454 10.5979C14.9266 10.6073 14.9079 10.6167 14.8874 10.6304L14.1126 11.0812C14.0926 11.0912 14.0867 11.0954 14.0783 11.1012C14.0724 11.1053 14.0653 11.1103 14.0512 11.1188L13.8089 11.252C13.7372 11.2896 13.6698 11.3314 13.6024 11.3732C13.535 11.4151 13.4676 11.4569 13.3959 11.4945C13.3779 11.5035 13.3694 11.5097 13.3614 11.5155C13.3542 11.5207 13.3474 11.5256 13.3345 11.5321L13.0922 11.6653C13.0301 11.6957 12.9286 11.7588 12.8201 11.8264C12.6481 11.9334 12.4583 12.0516 12.3788 12.0683Z" fill="white"/>
<defs>
<linearGradient id="paint0_linear_5_13590" x1="12" y1="0" x2="12" y2="24" gradientUnits="userSpaceOnUse">
<stop stop-color="#2B79E7"/>
<stop offset="1" stop-color="#005EB4"/>
</linearGradient>
</defs>
</svg>
