<svg width="24" height="24" viewBox="0 0 24 24" fill="none" xmlns="http://www.w3.org/2000/svg">
<path d="M21.68 18.9655C22.4061 18.5551 23 17.5476 23 16.7266V7.27339C23 6.45245 22.4061 5.44493 21.68 5.03446L13.32 0.307852C12.5939 -0.102617 11.4061 -0.102617 10.68 0.307852L2.31997 5.03446C1.59394 5.44493 1 6.45245 1 7.27339V16.7266C1 17.5476 1.59394 18.5551 2.31997 18.9655L10.68 23.6921C11.4061 24.1026 12.5939 24.1026 13.32 23.6921L21.68 18.9655Z" fill="url(#paint0_linear_5_433145)"/>
<path fill-rule="evenodd" clip-rule="evenodd" d="M9.10835 17.4549C9.10638 17.4549 9.10434 17.4549 9.10229 17.4549C6.69213 17.4549 4.73828 15.5011 4.73828 13.0909C4.73828 11.0015 6.20663 9.25507 8.1677 8.82714C9.15735 7.44535 10.7763 6.54492 12.6056 6.54492C15.4253 6.54492 17.7453 8.68422 18.0311 11.4283C18.7824 12.0531 19.2608 12.995 19.2608 14.0486C19.2608 15.9299 17.7357 17.4549 15.8544 17.4549C15.8482 17.4549 15.8418 17.4549 15.8356 17.4549H12.6287C12.621 17.4549 12.6133 17.4549 12.6056 17.4549C12.5979 17.4549 12.5902 17.4549 12.5825 17.4549H9.10835ZM11.46 10.9637C11.9773 10.9637 12.3966 10.5444 12.3966 10.0271C12.3966 9.50986 11.9773 9.09058 11.46 9.09058C10.9428 9.09058 10.5234 9.50986 10.5234 10.0271C10.5234 10.5444 10.9428 10.9637 11.46 10.9637ZM15.206 10.9637C15.7232 10.9637 16.1426 10.5444 16.1426 10.0271C16.1426 9.50986 15.7232 9.09058 15.206 9.09058C14.6887 9.09058 14.2694 9.50986 14.2694 10.0271C14.2694 10.5444 14.6887 10.9637 15.206 10.9637ZM15.0385 11.8117C15.3941 11.7617 15.6942 11.7195 15.8749 11.7195C16.3182 11.7195 16.6776 12.0789 16.6776 12.5222C16.6776 14.3694 15.1801 15.8669 13.333 15.8669C11.4858 15.8669 9.9883 14.3694 9.9883 12.5222C9.9883 12.0789 10.3478 11.7195 10.7911 11.7195C10.9718 11.7195 11.2719 11.7617 11.6275 11.8117C12.1443 11.8845 12.7782 11.9737 13.333 11.9737C13.8877 11.9737 14.5217 11.8845 15.0385 11.8117ZM13.3329 15.198C14.0659 15.198 14.7301 14.9031 15.2133 14.4257H15.213C15.4281 14.2131 15.3576 13.8497 15.0802 13.7299C14.6114 13.5276 14.0007 13.4052 13.3327 13.4052C12.6648 13.4052 12.054 13.5276 11.5853 13.7299C11.3078 13.8497 11.2374 14.2133 11.4524 14.4257C11.9358 14.9031 12.5998 15.198 13.3329 15.198Z" fill="white"/>
<defs>
<linearGradient id="paint0_linear_5_433145" x1="12" y1="0" x2="12" y2="24" gradientUnits="userSpaceOnUse">
<stop stop-color="#6DC4FE"/>
<stop offset="1" stop-color="#53AEEB"/>
</linearGradient>
</defs>
</svg>
