<svg width="24" height="24" viewBox="0 0 24 24" fill="none" xmlns="http://www.w3.org/2000/svg">
<path fill-rule="evenodd" clip-rule="evenodd" d="M21.68 18.9655C22.4061 18.5551 23 17.5476 23 16.7266V7.27339C23 6.45245 22.4061 5.44493 21.68 5.03446L13.32 0.307852C12.5939 -0.102617 11.4061 -0.102617 10.68 0.307852L2.31997 5.03446C1.59394 5.44493 1 6.45245 1 7.27339V16.7266C1 17.5476 1.59394 18.5551 2.31997 18.9655L10.68 23.6921C11.4061 24.1026 12.5939 24.1026 13.32 23.6921L21.68 18.9655Z" fill="url(#paint0_linear_5_439023)"/>
<path d="M7.50977 13.969V17.1608C7.50977 17.3572 7.67606 17.4388 7.72779 17.4573C7.77952 17.4796 7.9532 17.5278 8.1084 17.3832L10.523 15.0628C10.7286 14.8652 10.927 14.6575 11.0762 14.4145C11.1464 14.3003 11.1755 14.2359 11.1755 14.2359C11.3233 13.9356 11.3233 13.6465 11.1791 13.3573C10.9649 12.9273 10.418 12.4899 9.59388 12.0747L8.186 12.8606C7.76845 13.0978 7.50977 13.5167 7.50977 13.969Z" fill="#CACFD8"/>
<path d="M6.12109 6.86926V10.2167C6.12109 10.6356 6.40194 11.0063 6.80103 11.125C8.16089 11.5179 10.5296 12.3631 11.1023 13.605C11.1762 13.7681 11.2205 13.9275 11.2354 14.0943C11.616 13.4011 11.7897 12.6041 11.7084 11.7959C11.5975 10.6505 10.9914 9.60877 10.0455 8.94521L6.6717 6.58382C6.61257 6.53933 6.54236 6.51709 6.47215 6.51709C6.41302 6.51709 6.36128 6.52821 6.30586 6.55787C6.19499 6.62089 6.12109 6.73581 6.12109 6.86926Z" fill="white"/>
<path d="M16.4899 13.969V17.1608C16.4899 17.3572 16.3237 17.4388 16.2719 17.4573C16.2202 17.4796 16.0464 17.5278 15.8913 17.3832L13.4205 15.0088C13.2523 14.8472 13.0917 14.6762 12.965 14.4803C12.8647 14.3253 12.8242 14.2359 12.8242 14.2359C12.6764 13.9356 12.6764 13.6465 12.8205 13.3573C13.0348 12.9273 13.5818 12.4899 14.4057 12.0747L15.8137 12.8606C16.235 13.0978 16.4899 13.5167 16.4899 13.969Z" fill="#CACFD8"/>
<path d="M17.8804 6.86926V10.2167C17.8804 10.6356 17.5995 11.0063 17.2003 11.125C15.8406 11.5179 13.4719 12.3631 12.8991 13.605C12.8251 13.7681 12.7808 13.9275 12.7661 14.0943C12.3855 13.4011 12.2118 12.6041 12.2931 11.7959C12.4038 10.6505 13.0099 9.60878 13.956 8.94522L17.3298 6.58382C17.3889 6.53933 17.4591 6.51709 17.5293 6.51709C17.5884 6.51709 17.6402 6.52821 17.6955 6.55787C17.8064 6.62089 17.8804 6.73581 17.8804 6.86926Z" fill="white"/>
<defs>
<linearGradient id="paint0_linear_5_439023" x1="12" y1="0" x2="12" y2="24" gradientUnits="userSpaceOnUse">
<stop stop-color="#0059FF"/>
<stop offset="1" stop-color="#003599"/>
</linearGradient>
</defs>
</svg>
