<svg width="24" height="24" viewBox="0 0 24 24" fill="none" xmlns="http://www.w3.org/2000/svg">
<path d="M21.68 18.9655C22.4061 18.5551 23 17.5476 23 16.7266V7.27339C23 6.45245 22.4061 5.44493 21.68 5.03446L13.32 0.307852C12.5939 -0.102617 11.4061 -0.102617 10.68 0.307852L2.31997 5.03446C1.59394 5.44493 1 6.45245 1 7.27339V16.7266C1 17.5476 1.59394 18.5551 2.31997 18.9655L10.68 23.6921C11.4061 24.1026 12.5939 24.1026 13.32 23.6921L21.68 18.9655Z" fill="url(#paint0_linear_2_4624)"/>
<path d="M13.643 19.595L11.9955 20.5648L10.356 19.595V17.6644L11.9955 18.6342L13.643 17.6644V19.595Z" fill="white"/>
<path d="M6.35626 12.0001L6.3653 15.3131L9.18039 16.9697V18.9093L4.7178 16.292V11.0313L6.35626 12.0001Z" fill="white"/>
<path d="M19.2822 16.291L14.8196 18.9083V16.9687L17.6337 15.3131L17.6428 12.0001L19.2822 11.0302V16.291Z" fill="white"/>
<path d="M16.4651 9.37372H16.4581L16.4671 11.3134L13.644 12.9699V16.291L12.0045 17.2518L10.3651 16.291V12.9699L7.54194 11.3134V9.37372L9.18843 8.40389L11.9945 10.0685L14.8176 8.40389L16.4651 9.37372Z" fill="white"/>
<path d="M9.1804 13.6566V15.5872L7.54094 14.6264V12.6868L9.1804 13.6566Z" fill="white"/>
<path d="M16.4581 14.6264L14.8186 15.5872V13.6566L16.4581 12.6868V14.6264Z" fill="white"/>
<path d="M8.00376 7.71718L6.35626 8.68701V10.6176L4.7168 9.6478V7.71718L6.35626 6.74736L8.00376 7.71718Z" fill="white"/>
<path d="M19.2812 7.71718V9.6478L17.6337 10.6176V8.68701L15.9943 7.71718L17.6337 6.74736L19.2812 7.71718Z" fill="white"/>
<path d="M13.643 7.71718L11.9955 8.68701L10.356 7.71718L11.9955 6.74736L13.643 7.71718Z" fill="white"/>
<path d="M16.4581 6.06166L14.8186 7.03148L11.9955 5.36692L9.1804 7.03148L7.54094 6.06166L11.9955 3.4353L16.4581 6.06166Z" fill="white"/>
<defs>
<linearGradient id="paint0_linear_2_4624" x1="12" y1="0" x2="12" y2="24" gradientUnits="userSpaceOnUse">
<stop stop-color="#F4C95F"/>
<stop offset="1" stop-color="#F3BA2F"/>
</linearGradient>
</defs>
</svg>
