<svg width="24" height="24" viewBox="0 0 24 24" fill="none" xmlns="http://www.w3.org/2000/svg">
<path fill-rule="evenodd" clip-rule="evenodd" d="M21.68 18.9655C22.4061 18.5551 23 17.5476 23 16.7266V7.27339C23 6.45245 22.4061 5.44493 21.68 5.03446L13.32 0.307852C12.5939 -0.102617 11.4061 -0.102617 10.68 0.307852L2.31997 5.03446C1.59394 5.44493 1 6.45245 1 7.27339V16.7266C1 17.5476 1.59394 18.5551 2.31997 18.9655L10.68 23.6921C11.4061 24.1026 12.5939 24.1026 13.32 23.6921L21.68 18.9655Z" fill="url(#paint0_linear_7_75825)"/>
<path fill-rule="evenodd" clip-rule="evenodd" d="M12.3415 7.06401C11.5263 7.23221 10.8143 7.51801 10.1424 7.94681C9.82339 8.15041 9.77525 8.22841 9.9678 8.22941C10.0355 8.22981 10.4233 8.29741 10.8294 8.37961L11.5679 8.52901L12.0954 8.37061C12.8161 8.15421 13.7308 8.11101 14.427 8.26061C15.7153 8.53701 16.6679 9.15001 16.6655 9.70101C16.6632 10.2514 16.1413 10.2718 14.5637 9.78301C11.4678 8.82441 10.3752 8.56301 9.21175 8.50201C7.25626 8.39961 5.71018 9.29261 5.16221 10.8416C4.87247 11.6608 4.9791 12.8502 5.4164 13.6736C5.67149 14.1544 6.4154 14.8428 6.93166 15.0756C7.43217 15.3016 8.86015 15.5944 8.86015 15.471C8.86015 15.4508 8.74723 15.294 8.60933 15.123C8.45023 14.9222 8.30262 14.7144 8.16708 14.5004C8.00917 14.2428 7.89737 14.1526 7.52148 13.9794C7.16673 13.8158 7.00904 13.6944 6.80479 13.427C5.99295 12.365 6.26491 10.6978 7.35479 10.0546C7.82494 9.77741 8.15516 9.70621 8.96565 9.70781C9.77547 9.70961 10.0668 9.77361 12.658 10.5192C15.2532 11.266 16.1022 11.4064 16.8346 11.21C17.3057 11.0838 17.6118 10.8508 17.8307 10.452C18.0008 10.143 18.0174 10.054 17.9886 9.62161C17.9479 9.01381 17.7875 8.72321 17.2164 8.22241C16.7451 7.80901 15.7227 7.31881 14.9437 7.13281C14.3557 6.99241 12.8791 6.95341 12.3415 7.06401ZM8.18755 10.2648C7.50348 11.7236 7.82538 13.6732 8.96948 14.9994C10.078 16.284 11.6871 17 13.4669 17C15.2834 17 17.1619 16.1646 17.8343 15.0578C17.9366 14.889 17.9675 14.7088 17.9677 14.2746C17.9679 13.7754 17.9463 13.678 17.779 13.4246C17.4627 12.9454 16.8843 12.6782 16.1616 12.6774C15.6251 12.6768 14.9005 12.8408 13.1504 13.3586C12.2414 13.6276 11.2761 13.8988 11.0053 13.9614C10.7344 14.024 10.4845 14.0974 10.4499 14.1246C10.3727 14.185 11.0829 14.8034 11.405 14.9564C11.6367 15.0664 11.6435 15.0654 12.4821 14.8184C13.0598 14.6469 13.6355 14.4702 14.2092 14.2884C16.054 13.7 16.6668 13.694 16.6668 14.2644C16.6668 14.9476 15.1792 15.7156 13.7051 15.7938C11.7053 15.8998 9.89245 14.7302 9.3123 12.959C9.07183 12.225 9.18093 11.112 9.56222 10.409C9.74488 10.0726 9.70034 10.0478 8.90942 10.0466L8.29036 10.0456L8.18755 10.2648Z" fill="white"/>
<defs>
<linearGradient id="paint0_linear_7_75825" x1="12" y1="0" x2="12" y2="24" gradientUnits="userSpaceOnUse">
<stop stop-color="#7974E3"/>
<stop offset="1" stop-color="#5650C3"/>
</linearGradient>
</defs>
</svg>
