<svg width="24" height="24" viewBox="0 0 24 24" fill="none" xmlns="http://www.w3.org/2000/svg">
<path fill-rule="evenodd" clip-rule="evenodd" d="M21.68 18.9655C22.4061 18.5551 23 17.5476 23 16.7266V7.27339C23 6.45245 22.4061 5.44493 21.68 5.03446L13.32 0.307852C12.5939 -0.102617 11.4061 -0.102617 10.68 0.307852L2.31997 5.03446C1.59394 5.44493 1 6.45245 1 7.27339V16.7266C1 17.5476 1.59394 18.5551 2.31997 18.9655L10.68 23.6921C11.4061 24.1026 12.5939 24.1026 13.32 23.6921L21.68 18.9655Z" fill="url(#paint0_linear_7_76080)"/>
<path d="M7.04218 9.07493C7.54644 9.06168 8.04544 9.1878 8.49147 9.44122C8.93749 9.69464 9.31561 10.0669 9.58973 10.5224C9.67943 10.409 9.76017 10.2981 9.84987 10.1943C9.99071 10.0458 10.1594 9.93135 10.3447 9.85871C10.53 9.78605 10.7277 9.75686 10.9243 9.77308C11.121 9.7893 11.3121 9.85057 11.485 9.95276C11.6578 10.0549 11.8083 10.1957 11.9265 10.3656C12.2043 10.8368 12.4301 11.3412 12.5993 11.8686C12.7244 12.2283 12.8743 12.5774 13.0478 12.9132C13.0773 12.9825 13.1247 13.0412 13.1843 13.0823C13.2439 13.1235 13.3133 13.1454 13.3841 13.1454C13.455 13.1454 13.5243 13.1235 13.584 13.0823C13.6436 13.0412 13.691 12.9825 13.7205 12.9132C13.8659 12.6302 13.9653 12.3226 14.0143 12.0037C14.0777 11.549 14.2126 11.1092 14.4135 10.7033C14.6966 10.1654 15.1178 9.72648 15.6267 9.43922C16.062 9.18533 16.5513 9.0581 17.0462 9.07011V10.0713C15.8442 10.1316 15.0975 11.14 15.1244 12.0399C15.1513 12.9397 15.8936 13.8685 17.0462 13.9119V14.8769C16.3488 15.0361 15.1064 14.4523 14.548 13.4946C14.4336 13.7035 14.2722 13.8782 14.0786 14.0026C13.885 14.1269 13.6655 14.197 13.4402 14.2062C12.6172 14.2714 12.1843 13.8275 11.9197 13.1906C11.682 12.6188 11.4959 12.0278 11.2829 11.4488C11.2361 11.3197 11.1759 11.1967 11.1035 11.0821C10.9084 10.7878 10.5742 10.8409 10.3477 11.1907C10.1386 11.5504 10.0104 11.9576 9.97319 12.38C9.87603 13.0133 9.58096 13.592 9.13672 14.0205C8.73801 14.4363 8.23813 14.7223 7.69477 14.8456C7.48845 14.8914 7.27091 14.9011 7.03769 14.93V13.8974C7.29599 13.9062 7.55316 13.857 7.79289 13.7532C8.03261 13.6494 8.24969 13.4931 8.43034 13.2943C8.62476 13.1052 8.77426 12.8688 8.86634 12.6048C8.95842 12.3408 8.99039 12.0569 8.95958 11.7769C8.86539 11.0121 8.20382 10.1268 7.0332 10.0616L7.04218 9.07493Z" fill="white"/>
<path d="M18.1259 8.02771V15.9647H5.97455V8.02771H18.1259ZM19.1005 7H5V16.9948H19.1005V7Z" fill="white"/>
<path d="M18.1259 8.02824V15.9693H5.97455V8.02824H18.1259ZM19.1005 7H5V17H19.1005V7Z" fill="white"/>
<defs>
<linearGradient id="paint0_linear_7_76080" x1="12" y1="0" x2="12" y2="24" gradientUnits="userSpaceOnUse">
<stop stop-color="#06D995"/>
<stop offset="1" stop-color="#05A16E"/>
</linearGradient>
</defs>
</svg>
