<svg width="24" height="24" viewBox="0 0 24 24" fill="none" xmlns="http://www.w3.org/2000/svg">
<path fill-rule="evenodd" clip-rule="evenodd" d="M21.68 18.9655C22.4061 18.5551 23 17.5476 23 16.7266V7.27339C23 6.45245 22.4061 5.44493 21.68 5.03446L13.32 0.307852C12.5939 -0.102617 11.4061 -0.102617 10.68 0.307852L2.31997 5.03446C1.59394 5.44493 1 6.45245 1 7.27339V16.7266C1 17.5476 1.59394 18.5551 2.31997 18.9655L10.68 23.6921C11.4061 24.1026 12.5939 24.1026 13.32 23.6921L21.68 18.9655Z" fill="url(#paint0_linear_7_76416)"/>
<path d="M17.3179 9.50027C17.2723 9.33676 17.099 9.24046 16.9298 9.2836L11.9705 10.5696C11.8014 10.6137 11.6281 10.5164 11.5824 10.3529L11.3904 9.66278C11.3448 9.49927 11.4454 9.33175 11.6146 9.28761L16.5739 8.00161C16.743 7.95747 16.8427 7.78995 16.798 7.62644L16.1318 5.22697C16.0862 5.06346 15.9129 4.96716 15.7437 5.01029L8.22847 6.95936C8.14752 6.98043 8.078 7.03159 8.03649 7.1018L6.04197 10.4442C6.00046 10.5144 5.98905 10.5977 6.01084 10.6769L7.98045 17.773C8.02611 17.9365 8.19941 18.0328 8.36856 17.9897L13.0383 16.7789C13.2075 16.7348 13.3071 16.5673 13.2625 16.4038L12.5817 13.9501C12.5361 13.7866 12.6367 13.6191 12.8059 13.575L17.7652 12.289C17.9344 12.2448 18.034 12.0773 17.9894 11.9138L17.319 9.49927L17.3179 9.50027Z" fill="white"/>
<defs>
<linearGradient id="paint0_linear_7_76416" x1="1" y1="0" x2="28.2541" y2="11.1035" gradientUnits="userSpaceOnUse">
<stop stop-color="#6538E7"/>
<stop offset="0.995059" stop-color="#2A1665"/>
</linearGradient>
</defs>
</svg>
