<svg width="24" height="24" viewBox="0 0 24 24" fill="none" xmlns="http://www.w3.org/2000/svg">
<path d="M21.68 18.9655C22.4061 18.5551 23 17.5476 23 16.7266V7.27339C23 6.45245 22.4061 5.44493 21.68 5.03446L13.32 0.307852C12.5939 -0.102617 11.4061 -0.102617 10.68 0.307852L2.31997 5.03446C1.59394 5.44493 1 6.45245 1 7.27339V16.7266C1 17.5476 1.59394 18.5551 2.31997 18.9655L10.68 23.6921C11.4061 24.1026 12.5939 24.1026 13.32 23.6921L21.68 18.9655Z" fill="url(#paint0_linear_2_7869)"/>
<path d="M12.3587 12.9543H15.9685C16.0455 12.9543 16.0818 12.9543 16.0874 12.8534C16.1169 12.4862 16.1169 12.1168 16.0874 11.7491C16.0874 11.6778 16.0519 11.6483 15.9745 11.6483H8.79032C8.7014 11.6483 8.67746 11.6778 8.67746 11.7611V12.8179C8.67746 12.9543 8.67746 12.9543 8.81982 12.9543H12.3587ZM15.6843 10.4132C15.6945 10.3863 15.6945 10.3568 15.6843 10.3303C15.624 10.199 15.5526 10.0738 15.4696 9.95619C15.3448 9.75527 15.1978 9.57016 15.0302 9.40386C14.9511 9.30339 14.8596 9.21319 14.757 9.13667C14.2431 8.69933 13.6322 8.38982 12.9756 8.23421C12.6443 8.15982 12.3057 8.12434 11.9662 8.12733H8.77792C8.689 8.12733 8.67703 8.16281 8.67703 8.24019V10.3478C8.67703 10.4367 8.67703 10.4606 8.78989 10.4606H15.6415C15.6415 10.4606 15.7009 10.4487 15.7129 10.4132H15.6843ZM15.6843 14.1893C15.5834 14.1782 15.4816 14.1782 15.3807 14.1893H8.79631C8.70738 14.1893 8.67746 14.1893 8.67746 14.3082V16.3688C8.67746 16.4637 8.67746 16.4876 8.79631 16.4876H11.8363C11.9816 16.4987 12.127 16.4885 12.2694 16.4581C12.7105 16.4265 13.1445 16.3307 13.5583 16.173C13.7088 16.1208 13.8541 16.0528 13.9913 15.9712H14.0328C14.7455 15.6005 15.3243 15.0183 15.6894 14.3035C15.6894 14.3035 15.7309 14.2129 15.6843 14.1893ZM7.48429 17.5559V17.5205V16.137V15.6681V14.2727C7.48429 14.1953 7.48429 14.1838 7.38939 14.1838H6.10089C6.0295 14.1838 6 14.1838 6 14.0889V12.9607H7.37742C7.45437 12.9607 7.48429 12.9607 7.48429 12.8598V11.7436C7.48429 11.6722 7.48429 11.6547 7.38939 11.6547H6.10089C6.0295 11.6547 6 11.6547 6 11.5598V10.5149C6 10.4495 6 10.432 6.09491 10.432H7.37143C7.46035 10.432 7.48429 10.432 7.48429 10.3191V7.11885C7.48429 7.02394 7.48429 7 7.60314 7H12.056C12.3792 7.01283 12.7003 7.04831 13.0179 7.10688C13.6724 7.22786 14.3013 7.4617 14.8763 7.79559C15.2576 8.02003 15.6086 8.29106 15.9211 8.60314C16.1562 8.84725 16.3683 9.11144 16.5564 9.39274C16.7432 9.67789 16.8984 9.9827 17.0202 10.3012C17.0352 10.3841 17.1147 10.4401 17.1976 10.426H18.2604C18.3968 10.426 18.3968 10.426 18.4028 10.5568V11.5307C18.4028 11.6256 18.3673 11.6495 18.2719 11.6495H17.4524C17.3695 11.6495 17.3455 11.6495 17.3515 11.7564C17.384 12.1181 17.384 12.481 17.3515 12.8427C17.3515 12.9436 17.3515 12.9556 17.4648 12.9556H18.4023C18.4438 13.009 18.4023 13.0624 18.4023 13.1163C18.4083 13.1851 18.4083 13.2548 18.4023 13.3236V14.0423C18.4023 14.1432 18.3728 14.1731 18.2835 14.1731H17.1613C17.083 14.1581 17.007 14.2081 16.989 14.286C16.7218 14.9806 16.2943 15.6035 15.742 16.1028C15.5402 16.2845 15.3281 16.4555 15.1067 16.6133C14.869 16.7501 14.6377 16.8925 14.394 17.0053C13.9456 17.2071 13.4753 17.3559 12.9927 17.4503C12.5344 17.5324 12.0697 17.5696 11.6033 17.5632H7.48258V17.5572L7.48429 17.5559Z" fill="#FEFEFD"/>
<defs>
<linearGradient id="paint0_linear_2_7869" x1="12" y1="24" x2="14.0478" y2="0.176012" gradientUnits="userSpaceOnUse">
<stop stop-color="#F5AC37"/>
<stop offset="1" stop-color="#FFC663"/>
</linearGradient>
</defs>
</svg>
