<svg width="24" height="24" viewBox="0 0 24 24" fill="none" xmlns="http://www.w3.org/2000/svg">
<path d="M21.68 18.9655C22.4061 18.5551 23 17.5476 23 16.7266V7.27339C23 6.45245 22.4061 5.44493 21.68 5.03446L13.32 0.307852C12.5939 -0.102617 11.4061 -0.102617 10.68 0.307852L2.31997 5.03446C1.59394 5.44493 1 6.45245 1 7.27339V16.7266C1 17.5476 1.59394 18.5551 2.31997 18.9655L10.68 23.6921C11.4061 24.1026 12.5939 24.1026 13.32 23.6921L21.68 18.9655Z" fill="url(#paint0_linear_2_844)"/>
<path fill-rule="evenodd" clip-rule="evenodd" d="M15.4421 6.56384C15.4421 6.56384 16.045 6.58796 16.672 6.66032C15.2612 5.55095 13.9227 5.22538 12.8375 5.22538C11.3529 5.22538 10.3438 5.83161 10.2705 5.87567L10.2691 5.87653L10.7393 5.12891C10.7393 5.12891 8.85825 4.94804 8.19505 6.93766C8.02623 6.51561 7.86948 5.90064 7.86948 5.90064C7.86948 5.90064 6.89275 6.75677 7.35096 8.17966C6.22954 7.76968 4.6258 7.20293 4.56551 7.19089C4.4811 7.17882 4.45698 7.215 4.45698 7.215C4.45698 7.215 4.43287 7.25116 4.50522 7.31146C4.63786 7.41998 7.17009 9.289 7.72477 9.65075C7.60418 10.0849 7.60418 10.2898 7.72477 10.4948C7.89359 10.7722 7.90564 10.9169 7.88152 11.1219C7.85741 11.3268 7.64036 13.0994 7.59214 13.3165C7.57265 13.4041 7.47854 13.5821 7.37479 13.7782C7.22151 14.0681 7.04718 14.3977 7.06157 14.5343C7.08568 14.7635 7.3992 15.7402 7.67654 15.8487C7.88152 15.9211 8.38798 16.0778 8.72561 16.0778C8.84618 16.0778 8.95471 16.0537 9.00293 16.0055C9.20793 15.8246 9.26823 15.7884 9.41293 15.7884H9.44909C9.47672 15.7884 9.50684 15.7909 9.53952 15.7937L9.53954 15.7937H9.53958H9.5396H9.53962H9.53964C9.57826 15.7969 9.62044 15.8005 9.66614 15.8005C9.85907 15.8005 10.1123 15.7643 10.2932 15.5955C10.4182 15.4704 10.5861 15.324 10.7439 15.1863L10.7439 15.1863L10.7439 15.1863L10.744 15.1862C10.9208 15.032 11.0849 14.8889 11.1614 14.7996C11.3423 14.5705 11.4387 14.257 11.3905 13.9435C11.3543 13.6541 11.5111 13.4009 11.6919 13.1476C11.921 12.8462 12.3431 12.3036 12.3431 12.3036C13.1751 12.9306 13.6936 13.8832 13.6936 14.9443C13.6936 16.8254 12.0537 18.3448 10.0279 18.3448C9.71439 18.3448 9.41293 18.3086 9.11148 18.2362C10.04 18.5618 10.8237 18.6703 11.4628 18.6703C12.8254 18.6703 13.5489 18.1759 13.5489 18.1759C13.5489 18.1759 13.2957 18.5015 12.8857 18.8753H12.8978C15.1526 18.5618 16.25 16.7048 16.25 16.7048C16.25 16.7048 16.1656 17.3077 16.057 17.7177C18.9831 15.5202 18.5766 12.7845 18.5428 12.5573L18.5428 12.5571C18.5419 12.5513 18.5413 12.5472 18.541 12.5447C18.5559 12.5671 18.677 12.7141 18.8043 12.8687L18.8044 12.8688L18.8048 12.8693L18.8054 12.8699C18.8835 12.9648 18.9638 13.0624 19.0233 13.1356C19.5057 8.16759 15.4421 6.56384 15.4421 6.56384ZM10.5325 14.7749L10.5325 14.7749L10.5325 14.775L10.5317 14.7757C10.495 14.8089 10.4588 14.8417 10.4258 14.872C10.3755 14.9181 10.3238 14.9642 10.2726 15.0098C10.1765 15.0954 10.0825 15.1792 10.0038 15.2578C9.95555 15.3061 9.85907 15.3302 9.71439 15.3302H9.58173H9.50939H9.46116H9.35264C9.5335 15.089 10.0641 14.5343 10.2449 14.4138C10.462 14.2691 10.5705 14.1244 10.4379 13.8711C10.3052 13.6179 9.95555 13.6782 9.95555 13.6782C9.95555 13.6782 10.1605 13.5938 10.3414 13.5938C10.1123 13.5335 9.82291 13.5938 9.69027 13.7264C9.5938 13.8149 9.57237 14.0534 9.55092 14.2918C9.5402 14.4111 9.52949 14.5303 9.50939 14.6308C9.45541 14.9116 9.28537 15.0666 9.02526 15.3038L9.02506 15.304C8.99478 15.3316 8.96327 15.3603 8.93059 15.3905C8.76177 15.5472 8.6412 15.5955 8.54473 15.5955C8.33975 15.5593 8.09857 15.499 7.92975 15.4387C7.80918 15.282 7.6283 14.7635 7.58007 14.5464C7.60611 14.4596 7.68833 14.3042 7.75937 14.1699V14.1699C7.78705 14.1176 7.81301 14.0685 7.8333 14.0279L7.84679 14.002L7.85338 13.9894C7.98584 13.7358 8.06353 13.587 8.08652 13.4491C8.13475 13.2441 8.2915 11.978 8.3518 11.4474C8.50855 11.6524 8.72561 11.9901 8.67737 12.2071C9.02707 11.7127 8.77384 11.2304 8.65325 11.0375C8.54473 10.8445 8.40002 10.4587 8.52061 10.0487C8.6412 9.63871 9.0753 8.50523 9.0753 8.50523C9.0753 8.50523 9.22 8.75846 9.42498 8.71021C9.62998 8.66198 11.282 6.17798 11.282 6.17798C11.282 6.17798 11.7281 7.15471 11.2578 7.86614C10.7755 8.57757 10.3052 8.71021 10.3052 8.71021C10.3052 8.71021 10.9684 8.8308 11.5834 8.38464C11.8366 8.9755 12.0778 9.59046 12.0898 9.67487C12.0837 9.68914 12.0649 9.73412 12.0375 9.79933C11.903 10.1198 11.5632 10.9291 11.5231 10.9892C11.499 11.0133 11.3302 11.0616 11.2096 11.0857C11.0046 11.146 10.884 11.1822 10.8358 11.2183C10.7514 11.2907 10.3655 12.3518 10.1847 12.8703C9.96759 12.9306 9.75055 13.0512 9.5938 13.2923C9.67821 13.2321 9.94348 13.1959 10.1364 13.1718C10.3052 13.1597 10.8237 13.4371 10.9564 13.9556V13.9797C10.9805 14.1726 10.9202 14.3535 10.8237 14.4982C10.7866 14.5446 10.6565 14.6625 10.5325 14.7749H10.5325ZM9.69027 14.6429C9.77566 14.5195 9.78639 14.3289 9.79296 14.2122C9.79475 14.1806 9.79621 14.1544 9.7988 14.1364C9.81084 14.052 9.83496 13.8953 9.93143 13.8711C10.0279 13.847 10.257 13.8832 10.257 14.052C10.257 14.16 10.1769 14.2107 10.0877 14.2673C10.0474 14.2929 10.0052 14.3197 9.96759 14.3535C9.91263 14.4084 9.82187 14.5043 9.75859 14.5712L9.75849 14.5713L9.75845 14.5713C9.72463 14.6071 9.69867 14.6345 9.69027 14.6429ZM14.5015 12.3398C14.6221 11.7248 14.6341 11.1942 14.598 10.7601C15.0682 11.3871 15.3576 12.1468 15.4421 12.9306C15.4541 13.0271 15.5506 13.1235 15.647 13.22C15.7314 13.2923 15.8279 13.3888 15.8279 13.4491C15.8279 13.7264 15.8038 14.0038 15.7556 14.2811C15.7441 14.3154 15.646 14.3714 15.5639 14.4182L15.5631 14.4187L15.5562 14.4226L15.5506 14.4258C15.43 14.4861 15.3215 14.5464 15.2973 14.6429C15.0321 15.5714 14.4653 16.3913 13.7057 16.9701C14.8271 15.8005 15.3697 13.8711 14.5015 12.3398ZM13.7418 17.0786C14.5256 16.4757 15.1285 15.6316 15.3938 14.6791C15.4031 14.6511 15.4701 14.6087 15.5335 14.5686C15.5521 14.5569 15.5703 14.5453 15.5868 14.5343C15.7073 14.4741 15.8279 14.4017 15.852 14.3052C15.9003 14.0279 15.9244 13.7385 15.9244 13.4491C15.9244 13.3406 15.8158 13.2321 15.7073 13.1235C15.6921 13.1053 15.6746 13.0863 15.6569 13.067L15.6569 13.067C15.6045 13.0101 15.5506 12.9516 15.5506 12.9065C15.4541 12.0262 15.1044 11.1942 14.5618 10.5069C14.3245 9.08328 13.387 8.62843 13.3338 8.60263C13.3329 8.60219 13.3322 8.60189 13.3318 8.60169C13.3322 8.60223 13.3327 8.60297 13.3333 8.60389C13.3745 8.66499 13.9765 9.55813 13.5489 10.6034C13.1501 11.5625 12.1927 11.5296 11.9249 11.5204H11.9249C11.8931 11.5193 11.871 11.5185 11.8608 11.5198C11.7643 11.5198 11.3905 12.0021 10.9202 12.8944C10.8599 12.8703 10.6067 12.81 10.3173 12.8583C10.5343 12.2553 10.8599 11.3992 10.9202 11.3268C10.9394 11.3076 11.0582 11.2731 11.1666 11.2416C11.1943 11.2335 11.2213 11.2257 11.2458 11.2183C11.4749 11.158 11.5834 11.1219 11.6196 11.0736C11.6437 11.0375 11.7643 10.7601 11.8849 10.4707C11.9934 10.4707 12.2707 10.4466 12.2948 10.4345C12.319 10.4104 12.5481 9.81957 12.5481 9.74723C12.5481 9.68693 12.0778 8.51728 11.8969 8.07114C11.9813 7.97466 12.0657 7.85407 12.1501 7.72143C14.6221 7.98673 16.5514 10.0849 16.5514 12.6291C16.5514 14.5826 15.4059 16.2828 13.7418 17.0786ZM11.1614 6.90146C11.1614 6.90146 11.2699 7.3838 10.9926 7.70937C10.6429 8.1073 10.3414 8.09523 10.3535 8.09523L11.1614 6.90146ZM8.37591 13.7506L8.27945 14.2329C8.27945 14.2329 8.47239 14.2088 8.47239 14.4258C8.47239 14.5947 8.27945 14.8238 8.1227 14.8358C7.96593 14.8479 7.90564 14.6549 7.94182 14.5464C7.978 14.45 8.37591 13.7506 8.37591 13.7506ZM10.2208 9.7231C10.6429 9.80751 10.7635 10.3019 10.5343 10.5672C10.3052 10.8204 9.72643 11.1821 9.38882 11.2666C9.31646 11.5439 8.70148 11.4233 8.93059 10.5431C8.93059 10.5431 9.03912 10.9651 9.14764 10.9289C9.25616 10.8928 10.4861 8.96344 10.4861 8.96344C10.4861 8.96344 10.3293 9.46989 10.2208 9.7231ZM10.1123 9.9643L9.48527 11.0375C9.48527 11.0375 10.0641 10.7722 10.2932 10.4346C10.474 10.1452 10.1123 9.9643 10.1123 9.9643ZM10.0279 5.55096C8.94266 6.20211 9.15971 7.75762 9.15971 7.75762C8.16973 6.24964 9.78418 5.64277 10.0061 5.55935L10.0061 5.55934C10.0167 5.55538 10.0241 5.5526 10.0279 5.55096ZM15.2853 6.19007C13.4886 5.85243 12.331 6.02125 11.499 6.33477C11.4749 6.2383 11.3905 6.04537 11.3181 5.88861C11.0743 6.17892 10.8192 6.52514 10.6499 6.75497L10.6308 6.78093C10.1726 7.09443 9.97966 7.39588 9.97966 7.39588C10.2449 6.49152 11.0167 5.81626 11.9572 5.64745C12.2225 5.59921 12.5119 5.5751 12.8254 5.5751C13.6574 5.58715 14.4894 5.79214 15.2853 6.19007ZM15.6711 8.33641C17.3714 9.45782 18.1431 10.6998 18.6857 12.1589C18.6616 10.6154 18.1431 9.289 17.1423 8.22789L17.1181 8.20375C16.2379 7.27527 14.9477 6.84118 13.6695 7.02205C13.1872 7.08234 12.7048 7.17882 12.331 7.29939C12.2707 7.31146 12.2104 7.3235 12.1501 7.34764H12.1743C12.2707 7.33557 14.0312 7.25116 15.6711 8.33641ZM16.6117 16.741C16.8529 16.4999 17.0578 16.2466 17.2387 16.0055C18.2757 14.5585 18.131 12.5688 16.9373 11.2424C16.8408 11.1339 16.7323 11.0133 16.6238 10.9048C16.6841 11.0133 18.1672 13.7506 16.6117 16.741ZM7.72179 6.73216C7.67602 6.90683 7.26951 8.45836 8.6412 8.50525C7.82125 8.01086 7.72477 6.73268 7.72477 6.72063C7.72411 6.7233 7.72311 6.72713 7.72181 6.73208L7.72179 6.73216ZM8.30357 9.26489C8.38798 9.10814 8.31562 8.99962 8.24327 8.93932L8.21916 8.91521C8.07446 8.84287 7.17009 8.50523 6.27777 8.19171C7.06157 8.71021 7.92975 9.21666 8.07446 9.289C8.18298 9.33725 8.25534 9.3493 8.30357 9.26489Z" fill="white"/>
<defs>
<linearGradient id="paint0_linear_2_844" x1="12" y1="0" x2="12" y2="24" gradientUnits="userSpaceOnUse">
<stop stop-color="#712587"/>
<stop offset="1" stop-color="#094CBE"/>
</linearGradient>
</defs>
</svg>
