<svg width="24" height="24" viewBox="0 0 24 24" fill="none" xmlns="http://www.w3.org/2000/svg">
<path d="M21.68 18.9655C22.4061 18.5551 23 17.5476 23 16.7266V7.27339C23 6.45245 22.4061 5.44493 21.68 5.03446L13.32 0.307852C12.5939 -0.102617 11.4061 -0.102617 10.68 0.307852L2.31997 5.03446C1.59394 5.44493 1 6.45245 1 7.27339V16.7266C1 17.5476 1.59394 18.5551 2.31997 18.9655L10.68 23.6921C11.4061 24.1026 12.5939 24.1026 13.32 23.6921L21.68 18.9655Z" fill="url(#paint0_linear_5_433129)"/>
<path fill-rule="evenodd" clip-rule="evenodd" d="M17.3292 8.65619C17.3292 9.74082 16.4529 10.6171 15.363 10.6171C14.273 10.6171 13.3967 9.74082 13.3967 8.65619C13.3967 7.57156 14.273 6.69531 15.363 6.69531C16.4476 6.69531 17.3292 7.57156 17.3292 8.65619ZM10.6024 15.3436C10.6024 16.4282 9.72614 17.3045 8.63617 17.3045C7.5462 17.3045 6.6646 16.4282 6.66995 15.3436C6.66995 14.8028 6.88777 14.3139 7.24129 13.9595C6.47246 12.1003 6.84127 9.88888 8.3584 8.37709C9.87582 6.87036 12.1038 6.5017 13.9685 7.27109L7.29322 13.9093C7.64408 13.5825 8.11577 13.3827 8.63617 13.3827C9.7208 13.3827 10.6024 14.259 10.6024 15.3436ZM15.6356 15.6314C14.1182 17.1381 11.8902 17.5068 10.0255 16.7374L16.7523 10.0479C17.5217 11.9073 17.153 14.1193 15.6356 15.6314Z" fill="white"/>
<defs>
<linearGradient id="paint0_linear_5_433129" x1="12" y1="0" x2="12" y2="24" gradientUnits="userSpaceOnUse">
<stop stop-color="#04CFFF"/>
<stop offset="1" stop-color="#0088FF"/>
</linearGradient>
</defs>
</svg>
