<svg width="24" height="24" viewBox="0 0 24 24" fill="none" xmlns="http://www.w3.org/2000/svg">
<path d="M21.68 18.9655C22.4061 18.5551 23 17.5476 23 16.7266V7.27339C23 6.45245 22.4061 5.44493 21.68 5.03446L13.32 0.307852C12.5939 -0.102617 11.4061 -0.102617 10.68 0.307852L2.31997 5.03446C1.59394 5.44493 1 6.45245 1 7.27339V16.7266C1 17.5476 1.59394 18.5551 2.31997 18.9655L10.68 23.6921C11.4061 24.1026 12.5939 24.1026 13.32 23.6921L21.68 18.9655Z" fill="url(#paint0_linear_5_350189)"/>
<path d="M11.1191 8.00003C11.1573 7.81189 11.1852 7.6141 11.3026 7.46224C11.4636 7.25412 11.7157 7.12012 11.9991 7.12012C12.1534 7.12012 12.2985 7.15983 12.4246 7.2296C12.8017 7.43828 12.8429 7.93561 12.9664 8.34856C13.351 9.634 14.3646 10.6478 15.6499 11.0327C16.0635 11.1565 16.5618 11.1977 16.7703 11.5758C16.8397 11.7016 16.8791 11.8463 16.8791 12.0001C16.8791 12.2839 16.7448 12.5363 16.5362 12.6973C16.3846 12.8143 16.1873 12.842 15.9996 12.8801C15.9994 12.8801 15.9997 12.8801 15.9996 12.8801C14.5502 13.1743 13.3851 14.2522 12.9663 15.6522C12.8429 16.0648 12.8018 16.5615 12.4251 16.7703C12.2989 16.8403 12.1537 16.8801 11.9991 16.8801C11.7156 16.8801 11.4633 16.746 11.3024 16.5377C11.1851 16.3859 11.1573 16.1883 11.1191 16.0004C11.1191 16.0003 11.1191 16.0004 11.1191 16.0004C10.801 14.4331 9.56643 13.1984 7.99912 12.8802C7.99897 12.8802 7.99927 12.8802 7.99912 12.8802C7.81115 12.8421 7.61356 12.8143 7.46175 12.697C7.25336 12.5361 7.11914 12.2838 7.11914 12.0001C7.11914 11.8462 7.15864 11.7016 7.22806 11.5757C7.43654 11.1977 7.93473 11.1565 8.34825 11.0327C9.74768 10.6137 10.825 9.44901 11.1191 8.00003C11.1191 8.00006 11.1191 8 11.1191 8.00003Z" fill="white" fill-opacity="0.9"/>
<path fill-rule="evenodd" clip-rule="evenodd" d="M10.4363 4.67366C10.4289 4.71139 10.4215 4.74904 10.4139 4.78648C9.88356 7.3994 7.94078 9.49958 5.41721 10.2552C5.2664 10.3003 5.10935 10.3394 4.95164 10.3786C4.66444 10.4501 4.37505 10.5221 4.11719 10.6324C4.68609 7.32915 7.28049 4.71887 10.5756 4.12634C10.5094 4.29991 10.4727 4.48772 10.4363 4.67366ZM13.3685 4.11621C13.4786 4.37389 13.5505 4.66305 13.6218 4.95002C13.661 5.10752 13.7 5.26437 13.745 5.41499C14.4386 7.73299 16.2664 9.56116 18.5842 10.2552C18.735 10.3003 18.8921 10.3394 19.0498 10.3786C19.3371 10.4501 19.6265 10.5221 19.8844 10.6324C19.3122 7.30996 16.6908 4.68854 13.3685 4.11621ZM19.8742 13.4252C19.7007 13.4913 19.5131 13.528 19.3273 13.5643C19.2897 13.5717 19.2521 13.5791 19.2147 13.5866C16.6011 14.1172 14.5001 16.0609 13.7449 18.5854C13.6999 18.7359 13.6609 18.8927 13.6218 19.0501C13.5505 19.3368 13.4787 19.6258 13.3686 19.8833C16.6716 19.3142 19.2816 16.72 19.8742 13.4252ZM10.5755 19.8732C10.5094 19.6997 10.4726 19.5119 10.4362 19.3261C10.4289 19.2884 10.4215 19.2507 10.4139 19.2133C9.84019 16.387 7.61392 14.1605 4.78763 13.5868C4.75024 13.5792 4.71263 13.5719 4.67494 13.5645C4.48892 13.5281 4.30102 13.4913 4.12739 13.4251C4.7165 16.7009 7.29975 19.2841 10.5755 19.8732Z" fill="white" fill-opacity="0.4"/>
<defs>
<linearGradient id="paint0_linear_5_350189" x1="1" y1="0" x2="1" y2="24" gradientUnits="userSpaceOnUse">
<stop stop-color="#59626B"/>
<stop offset="1" stop-color="#3B4248"/>
</linearGradient>
</defs>
</svg>
