<svg width="24" height="24" viewBox="0 0 24 24" fill="none" xmlns="http://www.w3.org/2000/svg">
<path d="M21.68 18.9655C22.4061 18.5551 23 17.5476 23 16.7266V7.27339C23 6.45245 22.4061 5.44493 21.68 5.03446L13.32 0.307852C12.5939 -0.102617 11.4061 -0.102617 10.68 0.307852L2.31997 5.03446C1.59394 5.44493 1 6.45245 1 7.27339V16.7266C1 17.5476 1.59394 18.5551 2.31997 18.9655L10.68 23.6921C11.4061 24.1026 12.5939 24.1026 13.32 23.6921L21.68 18.9655Z" fill="url(#paint0_linear_2_7980)"/>
<path d="M21.68 18.9655C22.4061 18.5551 23 17.5476 23 16.7266V7.27339C23 6.45245 22.4061 5.44493 21.68 5.03446L13.32 0.307852C12.5939 -0.102617 11.4061 -0.102617 10.68 0.307852L2.31997 5.03446C1.59394 5.44493 1 6.45245 1 7.27339V16.7266C1 17.5476 1.59394 18.5551 2.31997 18.9655L10.68 23.6921C11.4061 24.1026 12.5939 24.1026 13.32 23.6921L21.68 18.9655Z" fill="url(#paint1_linear_2_7980)"/>
<path d="M8.68743 7.89668L10.9079 6.52583C11.1034 6.41547 11.1034 6.18677 10.9624 6.04716L9.10759 4.25349C9.07169 4.21759 9.01185 4.21759 8.97595 4.25349L8.80044 4.43033C8.57574 4.65637 8.57707 5.02068 8.8031 5.24539L9.52775 5.9142C9.65141 6.03653 9.62747 6.24129 9.47988 6.33303L8.6143 6.86356C8.34438 7.02976 8.26061 7.38477 8.42815 7.65468L8.55845 7.8661C8.58504 7.90997 8.64355 7.92327 8.68743 7.89668Z" fill="white"/>
<path d="M10.8308 15.2495C11.0129 14.461 10.7975 13.6327 10.2524 13.033L8.84965 11.4428C8.06916 10.5572 8.26195 9.18504 9.25651 8.54948L11.5514 7.0829C11.699 6.98849 11.8932 7.00578 12.0221 7.12412C12.8611 7.89796 15.7823 10.6875 15.652 13.5688C15.652 13.5688 15.656 18.043 11.2496 19.717C10.6021 19.963 9.94659 19.3713 10.1168 18.6999C10.7257 16.2879 10.8321 15.2482 10.8321 15.2482L10.8308 15.2495ZM11.4052 8.36067C11.0542 8.58272 10.3747 9.01352 9.79501 9.38183C9.40676 9.62781 9.32831 10.161 9.62881 10.5094L11.0954 12.2046C11.9357 13.1287 12.2694 14.4052 11.9876 15.6231L11.7416 16.7014C11.6352 17.1695 12.187 17.4966 12.5513 17.1828C14.0964 15.8491 16.2623 12.6434 11.7442 8.39391C11.6525 8.30749 11.5129 8.29419 11.4052 8.362V8.36067Z" fill="white"/>
<path d="M8.68743 7.89668L10.9079 6.52583C11.1034 6.41547 11.1034 6.18677 10.9624 6.04716L9.10759 4.25349C9.07169 4.21759 9.01185 4.21759 8.97595 4.25349L8.80044 4.43033C8.57574 4.65637 8.57707 5.02068 8.8031 5.24539L9.52775 5.9142C9.65141 6.03653 9.62747 6.24129 9.47988 6.33303L8.6143 6.86356C8.34438 7.02976 8.26061 7.38477 8.42815 7.65468L8.55845 7.8661C8.58504 7.90997 8.64355 7.92327 8.68743 7.89668Z" fill="white"/>
<path d="M10.8308 15.2495C11.0129 14.461 10.7975 13.6327 10.2524 13.033L8.84965 11.4428C8.06916 10.5572 8.26195 9.18504 9.25651 8.54948L11.5514 7.0829C11.699 6.98849 11.8932 7.00578 12.0221 7.12412C12.8611 7.89796 15.7823 10.6875 15.652 13.5688C15.652 13.5688 15.656 18.043 11.2496 19.717C10.6021 19.963 9.94659 19.3713 10.1168 18.6999C10.7257 16.2879 10.8321 15.2482 10.8321 15.2482L10.8308 15.2495ZM11.4052 8.36067C11.0542 8.58272 10.3747 9.01352 9.79501 9.38183C9.40676 9.62781 9.32831 10.161 9.62881 10.5094L11.0954 12.2046C11.9357 13.1287 12.2694 14.4052 11.9876 15.6231L11.7416 16.7014C11.6352 17.1695 12.187 17.4966 12.5513 17.1828C14.0964 15.8491 16.2623 12.6434 11.7442 8.39391C11.6525 8.30749 11.5129 8.29419 11.4052 8.362V8.36067Z" fill="white"/>
<defs>
<linearGradient id="paint0_linear_2_7980" x1="12" y1="24" x2="14.0478" y2="0.176012" gradientUnits="userSpaceOnUse">
<stop stop-color="#BC272D"/>
<stop offset="1" stop-color="#F1333B"/>
</linearGradient>
<linearGradient id="paint1_linear_2_7980" x1="12" y1="24" x2="14.0478" y2="0.176012" gradientUnits="userSpaceOnUse">
<stop stop-color="#BC272D"/>
<stop offset="1" stop-color="#FF1356"/>
</linearGradient>
</defs>
</svg>
