<svg width="24" height="24" viewBox="0 0 24 24" fill="none" xmlns="http://www.w3.org/2000/svg">
<path d="M21.68 18.9655C22.4061 18.5551 23 17.5476 23 16.7266V7.27339C23 6.45245 22.4061 5.44493 21.68 5.03446L13.32 0.307852C12.5939 -0.102617 11.4061 -0.102617 10.68 0.307852L2.31997 5.03446C1.59394 5.44493 1 6.45245 1 7.27339V16.7266C1 17.5476 1.59394 18.5551 2.31997 18.9655L10.68 23.6921C11.4061 24.1026 12.5939 24.1026 13.32 23.6921L21.68 18.9655Z" fill="url(#paint0_linear_5_432794)"/>
<mask id="mask0_5_432794" style="mask-type:luminance" maskUnits="userSpaceOnUse" x="6" y="7" width="12" height="10">
<path d="M17.8333 7.42188H6.16699V16.5781H17.8333V7.42188Z" fill="white"/>
</mask>
<g mask="url(#mask0_5_432794)">
<path d="M13.2313 7.42188H10.7687C10.4851 7.42188 10.2266 7.58372 10.1035 7.83815L8.84453 10.4412C8.687 10.7668 8.92517 11.1444 9.2882 11.1444H10.9872C11.2235 11.1444 11.4388 11.0096 11.5416 10.7975L12 9.84966L14.3488 14.7052L11.1754 12.4172C11.0493 12.3265 10.8979 12.2774 10.7422 12.2774H8.41935C8.13568 12.2774 7.87722 12.4393 7.75416 12.6937L6.21642 15.8749C6.05889 16.2005 6.29704 16.5781 6.66007 16.5781H8.35904C8.59533 16.5781 8.8107 16.4433 8.91347 16.2311L10.162 13.6501L13.6017 16.2575C13.8762 16.4653 14.2109 16.5781 14.5555 16.5781H17.3406C17.7036 16.5781 17.9417 16.2005 17.7842 15.8749L13.8965 7.83815C13.7734 7.58372 13.515 7.42188 13.2313 7.42188Z" fill="#D7FE51"/>
</g>
<defs>
<linearGradient id="paint0_linear_5_432794" x1="12" y1="-3.6263e-07" x2="10.3354" y2="23.884" gradientUnits="userSpaceOnUse">
<stop stop-color="#1F2925"/>
<stop offset="1" stop-color="#0E100F"/>
</linearGradient>
</defs>
</svg>
