<svg width="24" height="24" viewBox="0 0 24 24" fill="none" xmlns="http://www.w3.org/2000/svg">
<path d="M21.68 18.9655C22.4061 18.5551 23 17.5476 23 16.7266V7.27339C23 6.45245 22.4061 5.44493 21.68 5.03446L13.32 0.307852C12.5939 -0.102617 11.4061 -0.102617 10.68 0.307852L2.31997 5.03446C1.59394 5.44493 1 6.45245 1 7.27339V16.7266C1 17.5476 1.59394 18.5551 2.31997 18.9655L10.68 23.6921C11.4061 24.1026 12.5939 24.1026 13.32 23.6921L21.68 18.9655Z" fill="url(#paint0_linear_5_350069)"/>
<mask id="mask0_5_350069" style="mask-type:alpha" maskUnits="userSpaceOnUse" x="1" y="0" width="22" height="24">
<path d="M21.68 18.9655C22.4061 18.5551 23 17.5476 23 16.7266V7.27339C23 6.45245 22.4061 5.44493 21.68 5.03446L13.32 0.307852C12.5939 -0.102617 11.4061 -0.102617 10.68 0.307852L2.31997 5.03446C1.59394 5.44493 1 6.45245 1 7.27339V16.7266C1 17.5476 1.59394 18.5551 2.31997 18.9655L10.68 23.6921C11.4061 24.1026 12.5939 24.1026 13.32 23.6921L21.68 18.9655Z" fill="#B956A2"/>
</mask>
<g mask="url(#mask0_5_350069)">
<path d="M13.4662 13.5084L12.5071 16.1399C12.4833 16.2113 12.4833 16.2905 12.5071 16.3698L14.1558 20.8957L16.066 19.794L13.7753 13.5084C13.7198 13.3657 13.5217 13.3657 13.4662 13.5084Z" fill="#12AAFF"/>
<path d="M15.3925 9.09138C15.337 8.94871 15.1389 8.94871 15.0834 9.09138L14.1243 11.7229C14.1005 11.7943 14.1005 11.8735 14.1243 11.9528L16.8272 19.3639L18.7374 18.2622L15.3925 9.09931V9.09138Z" fill="#12AAFF"/>
<path d="M12.0002 3.32819C12.0477 3.32819 12.0953 3.34404 12.1349 3.36782L19.4113 7.56878C19.4985 7.61634 19.546 7.71146 19.546 7.80657V16.2085C19.546 16.3036 19.4905 16.3987 19.4113 16.4463L12.1349 20.6472C12.0953 20.671 12.0477 20.6869 12.0002 20.6869C11.9526 20.6869 11.905 20.671 11.8654 20.6472L4.58903 16.4463C4.50184 16.3987 4.45428 16.3036 4.45428 16.2085V7.79865C4.45428 7.70353 4.50977 7.60842 4.58903 7.56086L11.8654 3.3599C11.905 3.33612 11.9526 3.32027 12.0002 3.32027V3.32819ZM12.0002 2.09961C11.7386 2.09961 11.4849 2.16302 11.2472 2.29777L3.97078 6.49873C3.50312 6.76822 3.21777 7.25966 3.21777 7.79865V16.2006C3.21777 16.7396 3.50312 17.231 3.97078 17.5005L11.2472 21.7015C11.477 21.8362 11.7386 21.8996 12.0002 21.8996C12.2617 21.8996 12.5154 21.8362 12.7532 21.7015L20.0295 17.5005C20.4972 17.231 20.7825 16.7396 20.7825 16.2006V7.79865C20.7825 7.25966 20.4972 6.76822 20.0295 6.49873L12.7452 2.29777C12.5154 2.16302 12.2538 2.09961 11.9922 2.09961H12.0002Z" fill="#9DCCED"/>
<path d="M11.3827 7.20422H9.53585C9.40111 7.20422 9.27429 7.29141 9.22673 7.41823L5.27148 18.2615L7.18173 19.3632L11.5412 7.41823C11.5809 7.30726 11.5016 7.19629 11.3906 7.19629L11.3827 7.20422Z" fill="white"/>
<path d="M14.6164 7.20422H12.7695C12.6348 7.20422 12.508 7.29141 12.4604 7.41823L7.94238 19.7992L9.85263 20.9009L14.767 7.41823C14.8066 7.30726 14.7273 7.19629 14.6164 7.19629V7.20422Z" fill="white"/>
</g>
<defs>
<linearGradient id="paint0_linear_5_350069" x1="12" y1="0" x2="12" y2="24" gradientUnits="userSpaceOnUse">
<stop stop-color="#122032"/>
<stop offset="1" stop-color="#213147"/>
</linearGradient>
</defs>
</svg>
