<svg width="24" height="24" viewBox="0 0 24 24" fill="none" xmlns="http://www.w3.org/2000/svg">
<path fill-rule="evenodd" clip-rule="evenodd" d="M21.68 18.9655C22.4061 18.5551 23 17.5476 23 16.7266V7.27339C23 6.45245 22.4061 5.44493 21.68 5.03446L13.32 0.307852C12.5939 -0.102617 11.4061 -0.102617 10.68 0.307852L2.31997 5.03446C1.59394 5.44493 1 6.45245 1 7.27339V16.7266C1 17.5476 1.59394 18.5551 2.31997 18.9655L10.68 23.6921C11.4061 24.1026 12.5939 24.1026 13.32 23.6921L21.68 18.9655Z" fill="url(#paint0_linear_5_438806)"/>
<path d="M21.0981 11.9929C21.0981 11.9929 21.0962 11.9913 21.0955 11.9906C21.0476 11.9487 20.9837 11.9258 20.9173 11.9269H18.4704C18.6782 11.7962 18.8561 11.6111 18.9829 11.3841L19.099 11.1717C19.0997 11.1705 19.1005 11.169 19.1012 11.1677C19.1186 11.133 19.1277 11.0944 19.1277 11.056V10.1254C19.1277 10.0879 19.1193 10.0508 19.1028 10.0151C19.1014 10.0118 19.0997 10.0087 19.0979 10.0056C19.0582 9.93592 18.9894 9.89257 18.9117 9.88745C19.0657 9.26433 19.0397 8.68674 18.8014 8.21048C18.0016 6.61234 15.1146 6.75975 12.3529 8.53951C12.0864 8.71125 11.8313 8.8914 11.5871 9.07978C14.086 7.75727 16.5125 7.7761 17.2351 9.22007C17.3377 9.42509 17.4008 9.64896 17.4273 9.88709H14.8039C14.7349 9.88709 14.679 9.94305 14.679 10.012V10.2792L14.6001 10.4232V10.0122C14.6001 9.94323 14.5442 9.88727 14.4752 9.88727H10.1936C10.1731 9.88727 10.1538 9.89221 10.1368 9.90099C10.1197 9.89221 10.1004 9.88727 10.0799 9.88727H8.63975C9.57581 8.76996 10.9184 7.70203 12.5235 6.85596C12.1188 6.98801 11.7102 7.14127 11.298 7.31539C9.70164 7.99229 8.30103 8.89543 7.21115 9.8869H5.78841C5.71946 9.8869 5.66349 9.94287 5.66349 10.0118V10.2798L5.51699 10.5488C5.5137 10.5548 5.51096 10.5612 5.50858 10.5678C5.49907 10.5953 5.49431 10.6242 5.49431 10.6538V11.1749L4.91453 11.6877C4.88783 11.7115 4.87247 11.7455 4.87247 11.7812V11.9267H3.87166C3.80271 11.9267 3.74674 11.9827 3.74674 12.0517V12.319L3.18471 13.3475C3.18123 13.352 3.17812 13.357 3.17538 13.3621L3.07405 13.549C2.99706 13.5977 2.94347 13.616 2.94365 13.616C2.94145 13.6167 2.93944 13.6174 2.93725 13.6182L2.90433 13.6308C2.85604 13.6492 2.82422 13.6957 2.82422 13.7475V14.678C2.82422 14.7221 2.84745 14.7627 2.88512 14.7854L3.00401 14.8562C3.02339 14.8677 3.04534 14.8737 3.06784 14.8737H4.86735C4.87484 14.9023 4.88271 14.9306 4.8913 14.9588C5.61813 17.3715 9.66488 17.861 13.93 16.0521C14.3415 15.8775 14.7395 15.6887 15.1239 15.4857C11.9549 16.5198 9.08199 16.2626 7.84178 14.8761H11.4644C11.5099 14.8761 11.5518 14.8512 11.5738 14.8114L11.6522 14.6687C11.6588 14.711 11.6762 14.7501 11.7029 14.7834C11.7501 14.8426 11.8223 14.8761 11.9026 14.8761C11.9054 14.8761 11.9081 14.8761 11.911 14.8761H15.2405C15.5353 14.8761 15.8122 14.7556 16.0115 14.5502V14.629C16.0115 14.6863 16.0302 14.7399 16.0653 14.7836C16.1141 14.8448 16.1899 14.8783 16.2734 14.8761H19.6029C19.9965 14.8761 20.3581 14.6612 20.5463 14.3161C20.7348 13.9739 20.9342 13.6083 21.1558 13.198C21.1602 13.19 21.1637 13.1812 21.1663 13.1724C21.1727 13.1498 21.1758 13.1265 21.1758 13.1035V12.1729C21.1758 12.1041 21.1474 12.0385 21.0981 11.9928V11.9929ZM16.8113 12.1429H16.8322C16.8258 12.1543 16.8196 12.1654 16.8132 12.1768V12.1733C16.8132 12.163 16.8126 12.153 16.8113 12.1429Z" fill="black"/>
<path d="M9.60552 11.3873L9.60753 11.3835C9.60753 11.3835 9.60607 11.3853 9.60552 11.3873Z" fill="white"/>
<path d="M9.92852 10.7948L10.0598 10.9466L9.77177 11.0804L9.60497 11.3888C9.60497 11.3888 9.60534 11.3879 9.60552 11.3875L9.60442 11.3897C9.60442 11.3897 9.60479 11.3892 9.60516 11.389L9.60223 11.3937L9.48134 11.6139C9.44073 11.6897 9.49396 11.7807 9.57992 11.7807H13.505L13.8134 11.2171H14.0358L14.3138 10.7066H11.0407L11.0711 10.651L11.1215 10.5599L11.157 10.4917L11.2152 10.388H13.2775C13.4065 10.3957 13.5279 10.4513 13.6113 10.5499L13.6188 10.5574L14.4757 10.0114H10.1941L10.2623 10.1859L9.9287 10.7949L9.92852 10.7948ZM10.7525 11.2321L10.813 11.1209H12.7998L12.6456 11.4014H10.6614L10.7525 11.2321Z" fill="white"/>
<path d="M9.44567 11.1487C9.49121 11.0678 9.44311 10.9667 9.35221 10.9515L6.7615 10.4941L6.78673 10.4485C6.80704 10.4081 6.84746 10.3854 6.89281 10.3854H8.85675C8.99575 10.3854 9.12725 10.446 9.21577 10.5497L9.22327 10.5572L10.0801 10.0112H5.78831L5.85653 10.1857L5.62663 10.6078C5.62407 10.6153 5.60633 10.666 5.63669 10.719C5.66705 10.7721 5.72009 10.7847 5.72777 10.7873L8.30074 11.2902L8.27294 11.3407C8.25008 11.3787 8.20966 11.404 8.16668 11.404H5.97029C5.83129 11.404 5.69997 11.3433 5.61145 11.2372L4.99728 11.7806H9.09689L9.44567 11.1487Z" fill="white"/>
<path d="M14.1015 11.5935L13.8814 11.7072L14.0003 11.7806H15.067L15.4435 11.0856L17.7283 11.0879C18.1959 11.0879 18.6332 10.8226 18.8734 10.3929L18.9895 10.1806C19.0073 10.1453 19.0073 10.1049 18.9895 10.0668C18.9694 10.0315 18.9365 10.0112 18.8961 10.0112H14.804L14.8722 10.1857L14.1015 11.5935ZM15.8227 10.3929H17.7967C17.6879 10.5724 17.4984 10.6938 17.2886 10.709L15.6533 10.7064L15.8227 10.3929Z" fill="white"/>
<path d="M9.58979 11.414L9.60205 11.3936L9.60424 11.3895C9.5993 11.3947 9.59437 11.402 9.58979 11.414Z" fill="white"/>
<path d="M7.57209 13.1254L7.69335 12.903L7.56441 12.7463L4.72111 12.7437L4.79939 12.5996L4.85243 12.5035L4.89541 12.4253H6.96286C7.08924 12.4328 7.21069 12.4909 7.29409 12.5895L7.30159 12.597L8.15845 12.0511H3.87174L3.93996 12.2255L3.28538 13.4235V13.4211L3.16906 13.6359C3.06042 13.7092 2.98214 13.7344 2.98214 13.7344L2.94922 13.7471L3.0681 13.8178H6.57878C6.9528 13.8178 7.29665 13.6181 7.47863 13.2922L7.57209 13.1254ZM6.32602 13.4413H4.33941L4.51133 13.1254H6.49794L6.32602 13.4413Z" fill="white"/>
<path d="M21.0135 12.084C20.973 12.0487 20.9249 12.0511 20.9174 12.0511H17.5862C17.2374 12.0511 16.9162 12.2407 16.7494 12.5465L16.6408 12.7463L16.4361 13.1254L16.1404 13.6637C16.1404 13.6688 16.1226 13.7244 16.1631 13.7749C16.2035 13.8255 16.2668 13.8204 16.2719 13.8204H19.6031C19.9519 13.8204 20.2703 13.6309 20.4371 13.3249C20.6418 12.9535 20.8441 12.5818 21.0462 12.2078C21.059 12.1623 21.0462 12.1143 21.0135 12.084ZM19.3074 13.4438H17.3257L17.8819 12.4276H19.8634L19.3074 13.4438Z" fill="white"/>
<path d="M12.2253 12.4302L12.4325 12.0511H8.9193C8.54765 12.0511 8.20399 12.2533 8.02201 12.5769L7.92837 12.7463L7.81479 12.956L7.93605 13.1228L10.4004 13.1254L10.7618 12.7463H9.0027L9.17444 12.4302H11.1612L11.0449 12.64L10.7391 13.1986L10.7011 13.2719L10.6632 13.3376L10.605 13.4438H8.53759C8.40865 13.4361 8.28995 13.3805 8.20655 13.282L8.19887 13.2745L7.33963 13.8204H11.4645L11.5605 13.6459L12.2328 12.4176L12.2253 12.4302Z" fill="white"/>
<path d="M16.6838 12.2078C16.6964 12.1623 16.6838 12.1143 16.6508 12.084C16.6104 12.0487 16.5625 12.0511 16.5548 12.0511H13.2236C12.8748 12.0511 12.5538 12.2407 12.387 12.5465L12.2784 12.7463L12.0735 13.1254L11.778 13.6637C11.778 13.6688 11.7602 13.7244 11.8006 13.7749C11.8411 13.8255 11.9042 13.8204 11.9093 13.8204H15.2405C15.5893 13.8204 15.9079 13.6309 16.0747 13.3249C16.2794 12.9535 16.4817 12.5818 16.6838 12.2078ZM14.9448 13.4438H12.9633L13.5193 12.4276H15.501L14.9448 13.4438Z" fill="white"/>
<defs>
<linearGradient id="paint0_linear_5_438806" x1="12" y1="0" x2="12" y2="24" gradientUnits="userSpaceOnUse">
<stop stop-color="#FAF96B"/>
<stop offset="0.5" stop-color="#FFBD14"/>
<stop offset="1" stop-color="#B98733"/>
</linearGradient>
</defs>
</svg>
