<svg width="24" height="24" viewBox="0 0 24 24" fill="none" xmlns="http://www.w3.org/2000/svg">
<path d="M21.68 18.9655C22.4061 18.5551 23 17.5476 23 16.7266V7.27339C23 6.45245 22.4061 5.44493 21.68 5.03446L13.32 0.307852C12.5939 -0.102617 11.4061 -0.102617 10.68 0.307852L2.31997 5.03446C1.59394 5.44493 1 6.45245 1 7.27339V16.7266C1 17.5476 1.59394 18.5551 2.31997 18.9655L10.68 23.6921C11.4061 24.1026 12.5939 24.1026 13.32 23.6921L21.68 18.9655Z" fill="url(#paint0_linear_5_17982)"/>
<path d="M7.6876 6.45405L7.03516 7.10649L7.86062 7.93196L8.68789 8.75742L8.6194 8.95928C8.53109 9.22422 8.49504 9.44591 8.49504 9.73969C8.49504 10.6967 8.99609 11.5114 9.88283 11.9962C10.2397 12.1908 10.8525 12.4107 11.532 12.5856C12.8585 12.9262 13.0621 12.9857 13.3235 13.1082C13.6803 13.2777 13.857 13.4615 13.9309 13.739C13.9633 13.8598 13.9615 14.1302 13.9291 14.2599C13.8461 14.5753 13.5776 14.8925 13.2442 15.0656C12.7936 15.3017 12.0096 15.3665 11.4184 15.2152C11.1985 15.1611 10.8867 15.0079 10.7299 14.8799C10.4109 14.6168 10.1622 14.1626 10.0523 13.6381C10.0342 13.5552 10.0198 13.4849 10.018 13.4813C10.0126 13.4741 8.16702 13.6543 8.15801 13.6652C8.15079 13.6706 8.1562 13.7463 8.16882 13.8328C8.22649 14.2491 8.37248 14.7447 8.5401 15.089L8.63742 15.289L7.83539 16.0911L7.03516 16.8931L7.6894 17.5474L8.34184 18.1998L9.16911 17.3725L9.99458 16.5471L10.137 16.6065C10.8903 16.9238 12.0204 17.0229 13.1162 16.8643C13.3793 16.8264 13.7596 16.7363 13.9597 16.6624L14.0786 16.6192L14.8699 17.4104L15.6593 18.1998L16.3117 17.5474L16.966 16.8931L16.2324 16.1596L15.5007 15.4278L15.5926 15.2404C15.7836 14.8565 15.8629 14.5303 15.8792 14.0815C15.908 13.2254 15.6863 12.5802 15.1817 12.0485C14.6554 11.4952 14.0624 11.232 12.3881 10.8103C11.2075 10.5147 10.6993 10.311 10.4974 10.0551C10.2974 9.80277 10.2793 9.44951 10.4542 9.19178C10.5551 9.04219 10.8038 8.88178 11.0742 8.79167C11.3788 8.68893 11.8906 8.64207 12.2709 8.68172C13.0729 8.76643 13.4767 9.10887 13.6533 9.85864C13.6749 9.95056 13.6948 10.0281 13.6966 10.0317C13.7002 10.0371 15.005 9.99021 15.3961 9.97039L15.6196 9.95957L15.607 9.80277C15.5818 9.48376 15.5187 9.19899 15.4034 8.90161L15.3403 8.73399L16.1531 7.91934L16.966 7.10649L16.3135 6.45225L15.6593 5.7998L14.8374 6.62167L14.0138 7.44533L13.8137 7.36963C13.3217 7.18579 12.8459 7.10469 12.1448 7.08486C11.3788 7.06504 10.7065 7.16417 10.191 7.37324L9.99998 7.45073L9.17091 6.62527L8.34184 5.7998L7.6876 6.45405Z" fill="white"/>
<defs>
<linearGradient id="paint0_linear_5_17982" x1="12" y1="0" x2="12" y2="24" gradientUnits="userSpaceOnUse">
<stop/>
<stop offset="1" stop-color="#232326"/>
</linearGradient>
</defs>
</svg>
