<svg width="24" height="24" viewBox="0 0 24 24" fill="none" xmlns="http://www.w3.org/2000/svg">
<path d="M21.68 18.9655C22.4061 18.5551 23 17.5476 23 16.7266V7.27339C23 6.45245 22.4061 5.44493 21.68 5.03446L13.32 0.307852C12.5939 -0.102617 11.4061 -0.102617 10.68 0.307852L2.31997 5.03446C1.59394 5.44493 1 6.45245 1 7.27339V16.7266C1 17.5476 1.59394 18.5551 2.31997 18.9655L10.68 23.6921C11.4061 24.1026 12.5939 24.1026 13.32 23.6921L21.68 18.9655Z" fill="#0C0E21"/>
<path d="M12.6042 11.3216V15.7065C12.6158 15.7078 12.6254 15.7097 12.635 15.7097C13.0765 15.7095 13.5181 15.7137 13.9594 15.7074C14.366 15.7016 14.743 15.5851 15.0887 15.3697C15.4015 15.1748 15.6534 14.9186 15.8382 14.5993C16.1433 14.0719 16.4444 13.5421 16.7474 13.0134C17.0435 12.4968 17.3397 11.9804 17.636 11.464C17.8837 11.0323 18.1317 10.6009 18.3787 10.1689C18.4134 10.1082 18.4538 10.0575 18.5269 10.0433C18.6394 10.0214 18.7405 10.082 18.7682 10.1937C18.8035 10.3353 18.8381 10.4774 18.867 10.6205C18.9481 11.0213 18.9914 11.4265 19.0011 11.8355C19.01 12.2114 18.9883 12.5852 18.9377 12.9576C18.8284 13.7639 18.5845 14.5272 18.2088 15.2478C17.9061 15.8281 17.5293 16.3556 17.0794 16.8306C16.5475 17.3923 15.9405 17.8544 15.2575 18.2162C14.6507 18.5377 14.0106 18.7638 13.3371 18.8951C12.9619 18.9683 12.5834 19.0097 12.2013 19.0205C11.3317 19.0453 10.486 18.9144 9.66606 18.6232C8.76581 18.3034 7.96426 17.8176 7.26156 17.1687C6.64066 16.5954 6.13848 15.9313 5.75587 15.1763C5.43662 14.5464 5.21836 13.8829 5.09955 13.1867C5.04602 12.873 5.01586 12.557 5.00443 12.2388C4.99179 11.8847 5.00634 11.5319 5.04602 11.1803C5.11273 10.5889 5.25187 10.015 5.46389 9.45892C5.6488 8.97398 5.88503 8.51562 6.17161 8.08353C6.38272 7.76531 6.61911 7.46701 6.87933 7.18758C7.18929 6.85469 7.52872 6.55556 7.89717 6.28972C8.31938 5.98509 8.77015 5.73132 9.24933 5.52833C9.61305 5.37422 9.98683 5.25165 10.3711 5.16146C10.8227 5.05546 11.2803 4.99513 11.7441 4.9781C12.2772 4.95855 12.8051 4.9991 13.3288 5.09952C14.0921 5.24592 14.8101 5.51497 15.4839 5.90276C15.9487 6.17028 16.3767 6.48797 16.769 6.85446C17.2054 7.26227 17.5841 7.71811 17.9052 8.22229C18.0498 8.44926 18.0431 8.67508 17.9102 8.90533C17.5694 9.49581 17.2311 10.0877 16.8919 10.679C16.6297 11.136 16.3677 11.593 16.1056 12.05C15.815 12.5566 15.5245 13.0631 15.2339 13.5696C15.2252 13.5848 15.2158 13.5995 15.2006 13.6247V9.21729H15.1561C14.3188 9.21729 13.4815 9.21744 12.6442 9.2166C12.6153 9.2166 12.6001 9.22485 12.5853 9.25074C12.1913 9.93943 11.7962 10.6275 11.4012 11.3157C10.969 12.0688 10.5369 12.8219 10.1047 13.5751C10.1004 13.5827 10.095 13.5897 10.0847 13.605V9.21935H7.49064V15.7067C7.49544 15.7075 7.50138 15.7094 7.50725 15.7094C7.96129 15.7092 8.41564 15.7194 8.86931 15.7058C9.41398 15.6894 9.88881 15.4847 10.2942 15.1188C10.514 14.9204 10.6722 14.6767 10.8172 14.4212C11.1334 13.8635 11.4544 13.3086 11.7735 12.7525C12.0428 12.2835 12.3119 11.8144 12.5811 11.3454C12.5861 11.3367 12.5915 11.3283 12.5966 11.3199C12.5991 11.3203 12.6016 11.3208 12.604 11.3212L12.6042 11.3216Z" fill="white"/>
</svg>
