<svg width="24" height="24" viewBox="0 0 24 24" fill="none" xmlns="http://www.w3.org/2000/svg">
<path d="M21.68 18.9655C22.4061 18.5551 23 17.5476 23 16.7266V7.27339C23 6.45245 22.4061 5.44493 21.68 5.03446L13.32 0.307852C12.5939 -0.102617 11.4061 -0.102617 10.68 0.307852L2.31997 5.03446C1.59394 5.44493 1 6.45245 1 7.27339V16.7266C1 17.5476 1.59394 18.5551 2.31997 18.9655L10.68 23.6921C11.4061 24.1026 12.5939 24.1026 13.32 23.6921L21.68 18.9655Z" fill="#5D43EF"/>
<path d="M12.9577 16.3961L11.0613 16.375C10.8354 16.3733 10.6496 16.547 10.6477 16.7646L10.6368 17.677C10.6277 18.3999 11.2289 18.9912 11.9794 18.9999C12.73 19.0087 13.3439 18.4298 13.353 17.7068L13.364 16.7944C13.3657 16.5769 13.1854 16.3979 12.9595 16.3961H12.9577Z" fill="white"/>
<path d="M11.7537 5.00781C9.2356 5.13069 7.15826 7.21088 7.00901 9.75625C6.91878 11.2905 7.51229 12.6931 8.51365 13.6796H8.51712L8.53274 13.6989L8.87636 14.0027L10.3237 15.2859C10.4799 15.4245 10.6795 15.5 10.8878 15.5H13.1126C13.3209 15.5 13.5204 15.4245 13.6767 15.2859L15.176 13.957L15.4138 13.7446L15.4242 13.7376C16.3943 12.8124 17 11.5064 17 10.0582C17 7.18454 14.619 4.86562 11.752 5.00606L11.7537 5.00781ZM12.0019 7.69361C13.2896 7.69361 14.3396 8.75565 14.3396 10.0599C14.3396 11.3642 13.2896 12.4245 12.0019 12.4245C10.7142 12.4245 9.66426 11.3624 9.66426 10.0599C9.66426 8.75741 10.7142 7.69361 12.0019 7.69361Z" fill="white"/>
</svg>
