<svg width="24" height="24" viewBox="0 0 24 24" fill="none" xmlns="http://www.w3.org/2000/svg">
<path d="M21.68 18.9655C22.4061 18.5551 23 17.5476 23 16.7266V7.27339C23 6.45245 22.4061 5.44493 21.68 5.03446L13.32 0.307852C12.5939 -0.102617 11.4061 -0.102617 10.68 0.307852L2.31997 5.03446C1.59394 5.44493 1 6.45245 1 7.27339V16.7266C1 17.5476 1.59394 18.5551 2.31997 18.9655L10.68 23.6921C11.4061 24.1026 12.5939 24.1026 13.32 23.6921L21.68 18.9655Z" fill="url(#paint0_linear_5_350595)"/>
<g clip-path="url(#clip0_5_350595)">
<path d="M9.15509 16.7246H12.3886L7.47852 13.8192L9.15509 16.7246Z" fill="white"/>
<path d="M15.8715 9.2719L14.9828 7.97557H16.85C16.85 7.59132 16.1631 7.28002 15.7767 7.28002H14.5646L13.8641 6.111C13.6665 5.78064 13.0455 5.35318 12.7137 5.54972L13.7445 7.27119L12.1651 7.17965L11.5586 8.19209C11.2016 8.1289 10.8343 8.09591 10.4596 8.09591C7.65923 8.09591 5.28969 9.93029 4.5 12.456H8.24519L13.2506 15.3456L15.0529 18.5005C16.0753 17.3956 16.7 15.9208 16.7 14.3006C16.7 12.785 16.1533 11.3962 15.2449 10.3187L15.872 9.27237L15.8715 9.2719ZM13.3819 13.495L9.74279 11.406L10.5409 10.0316L14.18 12.1206L13.3819 13.495Z" fill="white"/>
</g>
<mask id="mask0_5_350595" style="mask-type:alpha" maskUnits="userSpaceOnUse" x="1" y="0" width="22" height="24">
<path d="M21.68 18.9655C22.4061 18.5551 23 17.5476 23 16.7266V7.27339C23 6.45245 22.4061 5.44493 21.68 5.03446L13.32 0.307852C12.5939 -0.102617 11.4061 -0.102617 10.68 0.307852L2.31997 5.03446C1.59394 5.44493 1 6.45245 1 7.27339V16.7266C1 17.5476 1.59394 18.5551 2.31997 18.9655L10.68 23.6921C11.4061 24.1026 12.5939 24.1026 13.32 23.6921L21.68 18.9655Z" fill="#B956A2"/>
</mask>
<g mask="url(#mask0_5_350595)">
</g>
<defs>
<linearGradient id="paint0_linear_5_350595" x1="12" y1="0" x2="12" y2="24.5" gradientUnits="userSpaceOnUse">
<stop stop-color="#5D88FF"/>
<stop offset="0.935" stop-color="#4D75E4"/>
</linearGradient>
<clipPath id="clip0_5_350595">
<rect width="12.35" height="13" fill="white" transform="translate(4.5 5.5)"/>
</clipPath>
</defs>
</svg>
