<svg width="24" height="24" viewBox="0 0 24 24" fill="none" xmlns="http://www.w3.org/2000/svg">
<path d="M21.68 18.9655C22.4061 18.5551 23 17.5476 23 16.7266V7.27339C23 6.45245 22.4061 5.44493 21.68 5.03446L13.32 0.307852C12.5939 -0.102617 11.4061 -0.102617 10.68 0.307852L2.31997 5.03446C1.59394 5.44493 1 6.45245 1 7.27339V16.7266C1 17.5476 1.59394 18.5551 2.31997 18.9655L10.68 23.6921C11.4061 24.1026 12.5939 24.1026 13.32 23.6921L21.68 18.9655Z" fill="url(#paint0_linear_5_15810)"/>
<path d="M11.9563 5.47834C12.2001 5.49117 12.4097 5.30294 12.4269 5.0591C12.444 4.81526 12.2515 4.60564 12.0076 4.58852C11.7638 4.57569 11.5542 4.75964 11.537 5.00349C11.5242 5.25161 11.7124 5.46123 11.9563 5.47834Z" fill="white"/>
<path d="M16.1102 5.53823C16.0032 5.70079 15.7893 5.74785 15.6268 5.6409C15.4685 5.53395 15.4214 5.31577 15.5241 5.15321C15.6311 4.99493 15.845 4.94787 16.0075 5.05482C16.1701 5.16177 16.2171 5.37567 16.1102 5.53823Z" fill="white"/>
<path d="M8.30721 5.67512C8.47833 5.58956 8.54678 5.37566 8.46122 5.20454C8.37566 5.03343 8.16176 4.96498 7.99064 5.05054C7.81953 5.1361 7.75108 5.34572 7.83664 5.51684C7.9222 5.69223 8.13182 5.76496 8.30721 5.67512Z" fill="white"/>
<path d="M9.39378 13.0846C8.79914 13.0504 8.3414 12.5413 8.37562 11.9466C8.40557 11.3734 8.88042 10.9242 9.45367 10.9242C10.0526 10.9199 10.536 11.4033 10.536 12.0022C10.5403 12.6012 10.0569 13.0846 9.45795 13.0846H9.39378Z" fill="white"/>
<path d="M3.9779 11.998C3.98645 11.8055 4.15329 11.6557 4.3458 11.6686C4.53831 11.6814 4.68804 11.844 4.67521 12.0365C4.66237 12.229 4.49981 12.3787 4.3073 12.3659C4.11479 12.3573 3.96934 12.1905 3.9779 11.998Z" fill="white"/>
<path d="M9.64194 6.8644C9.77455 7.12963 9.6676 7.45476 9.40237 7.58737C9.13714 7.71999 8.81201 7.61304 8.67939 7.34781C8.54678 7.08257 8.65373 6.75745 8.91896 6.62483C9.18419 6.49221 9.50932 6.59916 9.64194 6.8644Z" fill="white"/>
<path d="M5.71476 8.90071C5.92011 9.03332 6.1939 8.97771 6.33079 8.77237C6.46341 8.56702 6.40779 8.29323 6.20245 8.15634C5.99711 8.02372 5.72332 8.07934 5.58642 8.28468C5.44953 8.49002 5.50942 8.76809 5.71476 8.90071Z" fill="white"/>
<path d="M5.80034 11.9851C5.81746 11.6857 6.06986 11.4589 6.36931 11.4761C6.66877 11.4932 6.8955 11.7498 6.87839 12.045C6.86128 12.3445 6.60888 12.5712 6.30942 12.5541C6.00996 12.537 5.78323 12.2846 5.80034 11.9851Z" fill="white"/>
<path d="M5.77466 15.0995C5.55648 15.2107 5.46665 15.476 5.57787 15.6984C5.6891 15.9166 5.95433 16.0064 6.17679 15.8952C6.39496 15.784 6.4848 15.5187 6.37357 15.2963C6.26235 15.0781 5.99284 14.9883 5.77466 15.0995Z" fill="white"/>
<path d="M8.74787 10.1756C8.55964 10.4707 8.16606 10.552 7.87088 10.3595C7.5757 10.167 7.49442 9.77343 7.68693 9.48253C7.87516 9.18735 8.26873 9.10606 8.56391 9.29857C8.85909 9.4868 8.94037 9.88038 8.74787 10.1756Z" fill="white"/>
<path d="M14.5231 7.5446C14.7712 7.70716 15.1092 7.63871 15.2717 7.39059C15.4343 7.14247 15.3658 6.80451 15.1177 6.64195C14.8696 6.47938 14.5316 6.54783 14.3691 6.79595C14.2022 7.04835 14.2707 7.38204 14.5231 7.5446Z" fill="white"/>
<path d="M14.6043 10.9156C14.0097 10.8814 13.4963 11.3392 13.4664 11.9338C13.4322 12.5284 13.8899 13.0418 14.4846 13.0717H14.5445C15.1391 13.0717 15.6225 12.5883 15.6225 11.9894C15.6268 11.4204 15.1776 10.9456 14.6043 10.9156Z" fill="white"/>
<path d="M10.7242 10.8771C10.3135 10.8771 9.94136 10.6461 9.75741 10.2825C9.48789 9.75202 9.70179 9.10177 10.2365 8.82798C10.767 8.55847 11.4173 8.77237 11.6868 9.30711C11.7638 9.46112 11.8023 9.62796 11.8023 9.7948C11.8023 10.3937 11.3189 10.8771 10.7242 10.8771Z" fill="white"/>
<path d="M18.2235 8.90072C18.4417 8.78949 18.5272 8.51998 18.416 8.3018C18.3048 8.08363 18.0353 7.99807 17.8171 8.1093C17.5989 8.22052 17.5134 8.48576 17.6203 8.70393C17.7358 8.92211 18.0011 9.01195 18.2235 8.90072Z" fill="white"/>
<path d="M15.2032 10.0943C15.045 9.78198 15.1733 9.40124 15.4856 9.24295C15.7979 9.08894 16.1786 9.21301 16.3369 9.5253C16.4952 9.83759 16.3669 10.2183 16.0546 10.3766C15.7423 10.5349 15.3615 10.4066 15.2032 10.0943Z" fill="white"/>
<path d="M12.6194 7.67293C12.6023 8.02373 12.3028 8.29324 11.9521 8.27185C11.6013 8.25474 11.336 7.95528 11.3531 7.60448C11.3702 7.25369 11.6697 6.98418 12.0205 7.00557C12.3713 7.02268 12.6408 7.32214 12.6194 7.67293Z" fill="white"/>
<path d="M8.51255 14.7572C8.82485 14.599 8.95319 14.2182 8.7949 13.9059C8.63662 13.5936 8.25588 13.4653 7.94359 13.6236C7.63129 13.7819 7.50295 14.1626 7.66124 14.4749C7.81952 14.7872 8.20026 14.9155 8.51255 14.7572Z" fill="white"/>
<path d="M12.675 10.6932C12.1745 10.368 12.0376 9.70069 12.3627 9.20016C12.5638 8.89643 12.9017 8.71247 13.2654 8.71247C13.475 8.71247 13.6803 8.77237 13.8557 8.88787C14.3562 9.213 14.4931 9.88036 14.168 10.3809C13.8429 10.8814 13.1755 11.0183 12.675 10.6932Z" fill="white"/>
<path d="M14.2408 13.7177C13.9713 13.183 13.321 12.9691 12.7905 13.2386C12.2558 13.5081 12.0419 14.1583 12.3114 14.6888C12.5809 15.2235 13.2312 15.4374 13.7616 15.1679C14.2921 14.9027 14.5103 14.261 14.245 13.7263C14.245 13.722 14.245 13.722 14.2408 13.7177Z" fill="white"/>
<path d="M15.2503 13.8247C15.4386 13.5295 15.8321 13.4482 16.1273 13.6407C16.4225 13.8332 16.5038 14.2268 16.3113 14.5177C16.123 14.8129 15.7295 14.8942 15.4343 14.7016C15.1391 14.5134 15.0578 14.1198 15.2503 13.8247Z" fill="white"/>
<path d="M18.1979 12.0194C18.215 11.7199 17.9883 11.4675 17.6888 11.4504C17.3893 11.4333 17.1369 11.66 17.1198 11.9595C17.1027 12.2589 17.3295 12.5113 17.6289 12.5284C17.9241 12.5455 18.1808 12.3145 18.1979 12.0194Z" fill="white"/>
<path d="M19.3229 11.9637C19.3315 11.7712 19.4983 11.6215 19.6908 11.6343C19.8833 11.6472 20.0288 11.8097 20.0202 12.0022C20.0074 12.1947 19.8448 12.3445 19.6523 12.3316C19.4598 12.3231 19.3144 12.1562 19.3229 11.9637Z" fill="white"/>
<path d="M18.2834 15.0995C18.0781 14.9669 17.8043 15.0225 17.6674 15.2278C17.5348 15.4332 17.5904 15.707 17.7957 15.8439C18.0011 15.9765 18.2748 15.9209 18.4117 15.7155C18.5486 15.5102 18.4887 15.2321 18.2834 15.0995Z" fill="white"/>
<path d="M7.88368 18.4577C7.99063 18.2994 8.20452 18.2523 8.36709 18.3593C8.52965 18.4662 8.57671 18.6844 8.46548 18.8427C8.35853 19.001 8.14463 19.0481 7.98207 18.9411C7.82378 18.8342 7.77673 18.6203 7.88368 18.4577Z" fill="white"/>
<path d="M15.691 18.3251C15.5199 18.4106 15.4514 18.6245 15.537 18.7957C15.6225 18.9668 15.8364 19.0352 16.0076 18.9497C16.1787 18.8641 16.2471 18.6545 16.1616 18.4834C16.076 18.308 15.8664 18.2352 15.691 18.3251Z" fill="white"/>
<path d="M11.3232 13.3027C11.8237 13.6321 11.9606 14.2995 11.6355 14.8C11.4344 15.108 11.0964 15.292 10.7285 15.2877C10.5189 15.2877 10.3136 15.2278 10.1382 15.1123C9.63765 14.7829 9.49648 14.1155 9.82588 13.615C10.1553 13.1145 10.8226 12.9776 11.3232 13.3027Z" fill="white"/>
<path d="M9.47509 16.4556C9.22697 16.293 8.88901 16.3615 8.72644 16.6096C8.56388 16.8577 8.63233 17.1957 8.88045 17.3583C9.12857 17.5208 9.46653 17.4524 9.6291 17.2042C9.79594 16.9561 9.72749 16.6182 9.47509 16.4556Z" fill="white"/>
<path d="M11.5242 18.9411C11.5413 18.6973 11.7509 18.509 11.9948 18.5219C12.2386 18.539 12.4268 18.7486 12.414 18.9967C12.3969 19.2406 12.1873 19.4245 11.9434 19.4117C11.6996 19.3946 11.5071 19.1849 11.5242 18.9411Z" fill="white"/>
<path d="M11.9991 15.7283C11.6483 15.707 11.3488 15.9765 11.3317 16.3273C11.3103 16.6781 11.5799 16.9775 11.9307 16.9946C12.2814 17.0117 12.5809 16.7465 12.598 16.3957C12.6194 16.0492 12.3499 15.7455 11.9991 15.7283Z" fill="white"/>
<path d="M14.3605 17.1401C14.2236 16.8749 14.3306 16.5497 14.5958 16.4128C14.8653 16.2759 15.1904 16.3872 15.3273 16.6524C15.4599 16.9176 15.353 17.2428 15.0878 17.3754C14.8225 17.5123 14.4974 17.4053 14.3605 17.1401Z" fill="white"/>
<defs>
<linearGradient id="paint0_linear_5_15810" x1="12" y1="0" x2="12" y2="24" gradientUnits="userSpaceOnUse">
<stop stop-color="#235EFA"/>
<stop offset="1" stop-color="#1F45AB"/>
</linearGradient>
</defs>
</svg>
