<svg width="24" height="24" viewBox="0 0 24 24" fill="none" xmlns="http://www.w3.org/2000/svg">
<path fill-rule="evenodd" clip-rule="evenodd" d="M21.68 18.9655C22.4061 18.5551 23 17.5476 23 16.7266V7.27339C23 6.45245 22.4061 5.44493 21.68 5.03446L13.32 0.307852C12.5939 -0.102617 11.4061 -0.102617 10.68 0.307852L2.31997 5.03446C1.59394 5.44493 1 6.45245 1 7.27339V16.7266C1 17.5476 1.59394 18.5551 2.31997 18.9655L10.68 23.6921C11.4061 24.1026 12.5939 24.1026 13.32 23.6921L21.68 18.9655Z" fill="url(#paint0_linear_7_76282)"/>
<path d="M9.99344 17C9.99344 17 9.91306 15.8631 9.84873 15.198C9.78443 14.5328 9.42263 13.9528 8.69906 13.1098C7.97549 12.2668 4.82386 8.37664 4.82386 8.37664V7H8.3855C8.3855 7 9.84034 8.61881 10.7561 9.62086L10.6688 7H14.2466L21 14.5174V17H15.8706C15.8706 17 15.7741 15.3759 15.6214 14.7881C15.4606 14.2003 12.7994 10.9521 12.3009 10.3797H11.4551C12.2386 11.2408 13.6474 12.8862 14.1259 13.481C14.6485 14.1307 15.0103 15.0588 15.0264 15.8322C15.0424 16.6056 15.0264 17 15.0264 17H9.99344Z" fill="white"/>
<path d="M4.82303 16.9998H6.55158C6.89729 16.9998 7.21889 16.8219 7.39576 16.5358L8.26405 15.0972C8.43289 14.8111 8.43289 14.4553 8.26405 14.1692L7.39576 12.7306C7.21889 12.4445 6.90534 12.2666 6.55962 12.2666H4.83106C4.48535 12.2666 4.16376 12.4445 3.99493 12.7306L3.12663 14.1692C2.95779 14.4553 2.95779 14.8111 3.12663 15.0972L3.98688 16.5358C4.16376 16.8219 4.47731 16.9998 4.82303 16.9998Z" fill="white"/>
<defs>
<linearGradient id="paint0_linear_7_76282" x1="1" y1="0" x2="28.2541" y2="11.1035" gradientUnits="userSpaceOnUse">
<stop stop-color="#5865F2"/>
<stop offset="0.995059" stop-color="#200638"/>
</linearGradient>
</defs>
</svg>
