<svg width="24" height="24" viewBox="0 0 24 24" fill="none" xmlns="http://www.w3.org/2000/svg">
<path d="M21.68 18.9655C22.4061 18.5551 23 17.5476 23 16.7266V7.27339C23 6.45245 22.4061 5.44493 21.68 5.03446L13.32 0.307852C12.5939 -0.102617 11.4061 -0.102617 10.68 0.307852L2.31997 5.03446C1.59394 5.44493 1 6.45245 1 7.27339V16.7266C1 17.5476 1.59394 18.5551 2.31997 18.9655L10.68 23.6921C11.4061 24.1026 12.5939 24.1026 13.32 23.6921L21.68 18.9655Z" fill="#F1CC14"/>
<path fill-rule="evenodd" clip-rule="evenodd" d="M4.42765 7H19.5723L19.5497 7.00514L17.9904 9.39234H21L20.2141 11.8632C19.9354 12.7392 19.1163 13.3349 18.1903 13.3349H17.4116L16.0843 17.5258C15.8064 18.4031 14.9867 19 14.0597 19H9.94034C9.01333 19 8.19359 18.4031 7.91573 17.5258L6.58842 13.3349H5.80972C4.88367 13.3349 4.06455 12.7392 3.78589 11.8632L3 9.39234H6.00965L4.45031 7.00514L4.42765 7ZM10.9871 12.1292C10.9871 12.774 10.5121 13.2967 9.92604 13.2967C9.34001 13.2967 8.86495 12.774 8.86495 12.1292C8.86495 11.4844 9.34001 10.9617 9.92604 10.9617C10.5121 10.9617 10.9871 11.4844 10.9871 12.1292ZM15.1929 12.1292C15.1929 12.774 14.7179 13.2967 14.1318 13.2967C13.5458 13.2967 13.0707 12.774 13.0707 12.1292C13.0707 11.4844 13.5458 10.9617 14.1318 10.9617C14.7179 10.9617 15.1929 11.4844 15.1929 12.1292Z" fill="black"/>
</svg>
