<svg width="24" height="24" viewBox="0 0 24 24" fill="none" xmlns="http://www.w3.org/2000/svg">
<path fill-rule="evenodd" clip-rule="evenodd" d="M21.68 18.9655C22.4061 18.5551 23 17.5476 23 16.7266V7.27339C23 6.45245 22.4061 5.44493 21.68 5.03446L13.32 0.307852C12.5939 -0.102617 11.4061 -0.102617 10.68 0.307852L2.31997 5.03446C1.59394 5.44493 1 6.45245 1 7.27339V16.7266C1 17.5476 1.59394 18.5551 2.31997 18.9655L10.68 23.6921C11.4061 24.1026 12.5939 24.1026 13.32 23.6921L21.68 18.9655Z" fill="#EB540A"/>
<path d="M17.5 9.41862V20H17.0015V10.4995C17.0015 7.7814 14.7582 5.57266 12.0016 5.57266C9.24484 5.57266 6.99868 7.7814 6.99868 10.4995V20H6.5V9.41862C6.5 6.42634 8.96364 4 12.0016 4C15.0364 3.99841 17.5 6.42634 17.5 9.41862Z" fill="white"/>
<path d="M15.5053 10.5242V18.1635H15.0066V11.3109C15.0066 9.67768 13.6587 8.34813 12.0014 8.34813C10.3442 8.34813 8.99318 9.67608 8.99318 11.3109V18.1635H8.4945V10.5242C8.4945 8.61834 10.066 7.07039 12.0014 7.07039C13.9338 7.07199 15.5053 8.61834 15.5053 10.5242Z" fill="white"/>
<path d="M13.5108 16.3286V11.6321C13.5108 10.8111 12.8347 10.144 12.0016 10.144C11.1685 10.144 10.4908 10.8111 10.4908 11.6321V16.3286H10.9895V12.1247C10.9895 11.5748 11.4453 11.1276 12.0016 11.1276C12.558 11.1276 13.0123 11.574 13.0123 12.1247V16.3286H13.5108Z" fill="white"/>
</svg>
