<svg width="24" height="24" viewBox="0 0 24 24" fill="none" xmlns="http://www.w3.org/2000/svg">
<path d="M21.68 18.9655C22.4061 18.5551 23 17.5476 23 16.7266V7.27339C23 6.45245 22.4061 5.44493 21.68 5.03446L13.32 0.307852C12.5939 -0.102617 11.4061 -0.102617 10.68 0.307852L2.31997 5.03446C1.59394 5.44493 1 6.45245 1 7.27339V16.7266C1 17.5476 1.59394 18.5551 2.31997 18.9655L10.68 23.6921C11.4061 24.1026 12.5939 24.1026 13.32 23.6921L21.68 18.9655Z" fill="url(#paint0_linear_5_13349)"/>
<path fill-rule="evenodd" clip-rule="evenodd" d="M13.4309 17.5C11.847 17.5 10 17.5 8.67846 17.5C8.51171 17.5 8.26158 17.4 8.19488 17.275C8.12818 17.1583 8.20322 16.9084 8.28659 16.7584C8.47002 16.4251 8.66179 16.096 8.85355 15.7668C9.04531 15.4377 9.23709 15.1085 9.42051 14.7753C9.57893 14.4836 9.78737 14.3669 10.1209 14.3753C11.038 14.3836 11.9552 14.3836 12.8723 14.3753C13.3726 14.3669 13.4976 14.1503 13.2475 13.717C12.7305 12.8171 12.2136 11.9171 11.6883 11.0172C11.4466 10.6089 11.1964 10.6173 10.9546 11.0339C10.8808 11.1608 10.8069 11.2876 10.7331 11.4142C10.332 12.1022 9.93286 12.787 9.54558 13.4837C9.38716 13.767 9.17872 13.9003 8.84522 13.892C8.36609 13.8816 7.89023 13.8874 7.41355 13.8933C7.12708 13.8968 6.8403 13.9003 6.55236 13.9003C6.01875 13.9003 5.86034 13.6087 6.12714 13.142C7.71963 10.3756 9.31213 7.6175 10.913 4.85107C11.1881 4.37611 11.4882 4.38445 11.7717 4.86774C12.9097 6.84246 14.0478 8.81926 15.1858 10.7961C16.3239 12.7731 17.4621 14.7501 18.6002 16.7251C18.9004 17.2501 18.7503 17.5 18.1417 17.5H13.4309Z" fill="white"/>
<defs>
<linearGradient id="paint0_linear_5_13349" x1="12" y1="0" x2="12" y2="24" gradientUnits="userSpaceOnUse">
<stop stop-color="#C432CD"/>
<stop offset="1" stop-color="#6D47DC"/>
</linearGradient>
</defs>
</svg>
